<?xml version="1.0" encoding="UTF-8"?>
<svg width="1027px" height="520px" viewBox="0 0 1027 520" version="1.1" xmlns="http://www.w3.org/2000/svg" xmlns:xlink="http://www.w3.org/1999/xlink">
    <title>8E27F61F-E85A-49C5-AC17-8CC2E390AE72</title>
    <defs>
        <rect id="path-1" x="0" y="0" width="1440" height="417"></rect>
    </defs>
  <g>
  <path transform="scale(0.9) rotate(-45) " d="M-624,332 L-624,0 L2064,0 L2064,332 L2063,332 L2062.62276,389.874685 C2040.08346,389.874685 2028.13763,395.866667 2016.81969,402.218168 L2015.37748,403.030517 L2015.37748,403.030517 L2013.9375,403.844168 L2013.9375,403.844168 L2012.49512,404.656517 C2001.17507,411.008018 1989.2107,417 1966.63641,417 C1944.09419,417 1932.14682,411.008018 1920.82999,404.656517 L1919.38794,403.844168 C1907.14662,396.929979 1895.14848,389.874685 1870.66247,389.874685 C1847.15797,389.874685 1835.17068,396.387473 1823.40789,403.030517 L1821.9679,403.844168 C1810.20463,410.487212 1798.20493,417 1774.67612,417 C1726.71396,417 1726.71396,389.874685 1678.69597,389.874685 C1656.15668,389.874685 1644.21085,395.866667 1632.89934,402.218168 L1631.458,403.030517 C1619.22282,409.944706 1607.23553,417 1582.77167,417 C1560.20321,417 1548.24193,411.008018 1536.92287,404.656517 L1535.48061,403.844168 L1535.48061,403.844168 L1534.04072,403.030517 C1522.27872,396.387473 1510.29298,389.874685 1486.79152,389.874685 C1463.26271,389.874685 1451.26301,396.387473 1439.50119,403.030517 L1438.06139,403.844168 L1438.06139,403.844168 L1436.61936,404.656517 C1425.3027,411.008018 1413.35688,417 1390.81758,417 C1367.28573,417 1355.28448,410.487212 1343.52114,403.844168 L1342.08116,403.030517 C1330.31843,396.387473 1318.33269,389.874685 1294.83123,389.874685 C1271.30546,389.874685 1259.30731,396.387473 1247.54483,403.030517 L1246.10493,403.844168 C1234.34287,410.487212 1222.35558,417 1198.85109,417 C1175.31923,417 1163.31798,410.487212 1151.55465,403.844168 L1150.11466,403.030517 C1138.35193,396.387473 1126.36619,389.874685 1102.86474,389.874685 C1079.33592,389.874685 1067.33622,396.387473 1055.57441,403.030517 L1054.13461,403.844168 C1042.3734,410.487212 1030.38921,417 1006.8908,417 C983.358941,417 971.357693,410.487212 959.594358,403.844168 L958.154371,403.030517 L958.154371,403.030517 L956.712155,402.218168 C945.394031,395.866667 933.446659,389.874685 910.904448,389.874685 C862.998139,389.874685 862.998139,417 814.980145,417 C767.122595,417 767.018222,389.992872 719.313487,389.875071 L719.622756,389.874685 C697.083461,389.874685 685.137634,395.866667 673.819686,402.218168 L672.377484,403.030517 L672.377484,403.030517 L670.937497,403.844168 L670.937497,403.844168 L669.495117,404.656517 C658.175069,411.008018 646.210695,417 623.636406,417 C601.094195,417 589.146823,411.008018 577.829988,404.656517 L576.387943,403.844168 C564.146624,396.929979 552.148478,389.874685 527.662466,389.874685 C504.157971,389.874685 492.170679,396.387473 480.407891,403.030517 L478.967904,403.844168 C467.204629,410.487212 455.204933,417 431.676116,417 C383.713964,417 383.713964,389.874685 335.695971,389.874685 C313.156676,389.874685 301.210849,395.866667 289.899343,402.218168 L288.457999,403.030517 C276.222822,409.944706 264.23553,417 239.771668,417 C217.203211,417 205.241929,411.008018 193.922875,404.656517 L192.48061,403.844168 L192.48061,403.844168 L191.040716,403.030517 C179.278719,396.387473 167.292977,389.874685 143.791523,389.874685 C120.262706,389.874685 108.263009,396.387473 96.501195,403.030517 L95.0613939,403.844168 L95.0613939,403.844168 L93.619364,404.656517 C82.3027038,411.008018 70.3568775,417 47.8175825,417 C24.2857254,417 12.2844782,410.487212 0.521143026,403.844168 L-0.918844193,403.030517 C-12.6815713,396.387473 -24.667313,389.874685 -48.1687672,389.874685 C-71.6945438,389.874685 -83.6926898,396.387473 -95.4551734,403.030517 L-96.8950676,403.844168 C-108.657126,410.487212 -120.644418,417 -144.148912,417 C-167.680769,417 -179.682017,410.487212 -191.445352,403.844168 L-192.885339,403.030517 C-204.648066,396.387473 -216.633808,389.874685 -240.135262,389.874685 C-263.664079,389.874685 -275.663775,396.387473 -287.42559,403.030517 L-288.865391,403.844168 C-300.626597,410.487212 -312.610788,417 -336.109202,417 C-359.641059,417 -371.642307,410.487212 -383.405642,403.844168 L-384.845629,403.030517 L-384.845629,403.030517 L-386.287845,402.218168 C-397.605969,395.866667 -409.553341,389.874685 -432.095552,389.874685 C-480.001861,389.874685 -480.001861,417 -528.019855,417 C-575.982006,417 -575.982006,389.874685 -624,389.874685 L-623.723388,332 L-624,332 Z"
   >

  </path>
</g>
</svg>
