<?xml version="1.0" encoding="UTF-8"?>
<svg width="1027px" height="522px" viewBox="0 0 1027 522" version="1.1" xmlns="http://www.w3.org/2000/svg" xmlns:xlink="http://www.w3.org/1999/xlink">
    <title>Path Copy</title>
    <g id="Design" stroke="none" stroke-width="1" fill="none" fill-rule="none" transform="rotate(1) scale(1,1)">
        <path d="M1027,-7.27595761e-12 L1023.90921,6.58726918 C1020.4347,13.1340906 1015.46025,20.0983859 1007.73274,27.8283833 C973.726183,61.8458571 954.548768,42.668442 920.711975,76.5161004 C886.875182,110.363759 906.052597,129.541174 872.079361,163.52532 C838.106125,197.509466 818.928709,178.33205 785.058599,212.213037 C751.188489,246.094023 770.365904,265.271439 736.390897,299.257355 C702.415891,333.243272 683.238476,314.065857 649.36575,347.94946 C615.493024,381.833063 633.837544,401.84364 600.693662,434.998165 C567.54978,468.15269 547.736918,449.491157 513.668514,483.69027 C513.668514,483.69027 498.033203,499.584473 490.797397,522 C490.797397,522 327.198264,522 -1.8189894e-12,522 L-1.8189894e-12,-7.27595761e-12 L1027,-7.27595761e-12 Z" id="Path-Copy" fill="#9FC9EB"></path>
    </g>
</svg>
