<?xml version="1.0" encoding="UTF-8"?>
<svg width="31px" height="31px" viewBox="0 0 31 31" version="1.1" xmlns="http://www.w3.org/2000/svg" xmlns:xlink="http://www.w3.org/1999/xlink">
    <!-- Generator: Sketch 43.2 (39069) - http://www.bohemiancoding.com/sketch -->
    <title>Page 1</title>
    <desc>Created with Sketch.</desc>
    <defs></defs>
    <g id="MyHelsinki" stroke="none" stroke-width="1" fill="none" fill-rule="evenodd">
        <g id="MyHelsinki---mylist-empty---desktop-hover" transform="translate(-807.000000, -428.000000)" fill="#FFFFFF">
            <g id="Group-2" transform="translate(807.000000, 428.000000)">
                <g id="Page-1">
                    <path d="M9.94532642,9.28929623 C9.94532642,9.97480566 9.38732642,10.5328057 8.70181698,10.5328057 C8.01630755,10.5328057 7.45830755,9.97480566 7.45830755,9.28929623 C7.45830755,8.60378679 8.01630755,8.04578679 8.70181698,8.04578679 C9.38732642,8.04578679 9.94532642,8.60378679 9.94532642,9.28929623 M4.97128868,9.28929623 C4.97128868,11.349334 6.64177925,13.0198245 8.70181698,13.0198245 C10.7618547,13.0198245 12.4323453,11.349334 12.4323453,9.28929623 C12.4323453,7.22925849 10.7618547,5.55876792 8.70181698,5.55876792 C6.64177925,5.55876792 4.97128868,7.22925849 4.97128868,9.28929623" id="Fill-1"></path>
                    <g id="Group-5" transform="translate(18.132075, 0.013453)">
                        <polygon id="Fill-3" points="7.5609 5.54537358 7.5609 0.571335849 5.07388113 0.571335849 5.07388113 5.54537358 0.10335283 5.54537358 0.10335283 8.03239245 5.07388113 8.03239245 5.07388113 13.0064302 7.5609 13.0064302 7.5609 8.03239245 12.5384472 8.03239245 12.5384472 5.54537358"></polygon>
                    </g>
                    <g id="Group-8" transform="translate(0.000000, 0.013453)">
                        <polygon id="Fill-6" points="23.2059566 27.9279585 2.4868434 27.9279585 2.4868434 3.06303396 20.7189377 3.06303396 20.7189377 0.576015094 -0.000175471698 0.576015094 -0.000175471698 30.4149774 25.6929755 30.4149774 25.6929755 15.4934491 23.2059566 15.4934491"></polygon>
                    </g>
                    <g id="Group-11" transform="translate(0.000000, 16.390811)">
                        <path d="M-5.84905647e-05,4.53916038 C1.44056415,5.49431132 3.07303585,6.5769717 5.74371509,6.5769717 C8.41497925,6.5769717 10.0480358,5.49431132 11.4880736,4.53916038 C12.7736962,3.68636792 13.8838472,2.9499717 15.7192811,2.9499717 C17.5553,2.9499717 18.6654509,3.68636792 19.9510736,4.53916038 C21.3916962,5.49431132 23.0241679,6.5769717 25.6954321,6.5769717 L25.6954321,4.08995283 C23.774017,4.08995283 22.6393,3.33776415 21.3256019,2.46683962 C19.9095453,1.52748113 18.3045642,0.46295283 15.7192811,0.46295283 C13.1339981,0.46295283 11.5296019,1.52748113 10.1135453,2.46625472 C8.79984717,3.33776415 7.66513019,4.08995283 5.74371509,4.08995283 C3.8223,4.08995283 2.68816792,3.33776415 1.37446981,2.46683962 C-0.0415867925,1.52748113 0.656790566,2.66278302 -5.84905647e-05,4.53916038" id="Fill-9"></path>
                    </g>
                </g>
            </g>
        </g>
    </g>
</svg>