<svg xmlns="http://www.w3.org/2000/svg" width="20" height="20" viewBox="0 0 20 20">
    <path fill="#0000BF" fill-rule="evenodd" d="M11.77 11.77c.473-.472.716-1.064.73-1.77-.014-.706-.257-1.296-.73-1.77-.474-.472-1.064-.716-1.77-.73-.706.014-1.297.258-1.77.73-.474.474-.716 1.064-.73 1.77.014.706.256 1.298.73 1.77.473.474 1.064.717 1.77.73.706-.013 1.296-.256 1.77-.73zm.88-4.43c.7.706 1.064 1.594 1.09 2.66-.026 1.054-.39 1.934-1.09 2.64-.7.707-1.584 1.074-2.65 1.1-1.067-.026-1.954-.393-2.66-1.1-.706-.706-1.074-1.586-1.1-2.64.026-1.066.394-1.954 1.1-2.66.706-.706 1.593-1.072 2.66-1.1 1.066.028 1.95.394 2.65 1.1zm4.85 3.9c.36-.014.653-.136.88-.37.226-.232.34-.526.34-.88s-.114-.646-.34-.88c-.227-.232-.52-.356-.88-.37h-.74a7.247 7.247 0 0 0-1.1-2.62l.52-.54c.253-.253.376-.542.37-.87a1.293 1.293 0 0 0-.38-.88c-.248-.26-.538-.39-.87-.39a1.21 1.21 0 0 0-.88.38l-.54.54a6.515 6.515 0 0 0-2.64-1.12V2.5c-.014-.36-.134-.656-.36-.89-.227-.232-.52-.35-.88-.35s-.656.118-.89.35c-.234.234-.358.53-.37.89v.74c-.96.188-1.834.56-2.62 1.12l-.54-.54a1.213 1.213 0 0 0-.88-.38 1.21 1.21 0 0 0-.88.38 1.208 1.208 0 0 0 0 1.76l.52.54a6.817 6.817 0 0 0-1.1 2.62H2.5c-.36.014-.656.138-.89.37-.234.234-.35.526-.35.88s.116.648.35.88c.234.234.53.356.89.37h.74a6.817 6.817 0 0 0 1.1 2.64l-.52.54a1.208 1.208 0 0 0 0 1.76 1.208 1.208 0 0 0 1.76 0l.54-.54c.786.547 1.66.914 2.62 1.1v.76c.012.36.136.653.37.88.234.226.53.34.89.34s.653-.114.88-.34c.226-.227.346-.52.36-.88v-.76a6.643 6.643 0 0 0 2.64-1.1l.54.54a1.208 1.208 0 0 0 1.76 0 1.21 1.21 0 0 0 .38-.88c0-.333-.127-.626-.38-.88l-.52-.54c.534-.786.9-1.666 1.1-2.64h.74zm1.83.46c-.434.454-.976.714-1.63.78a6.548 6.548 0 0 1-.52 1.22c.426.52.63 1.09.61 1.71-.02.62-.258 1.17-.71 1.65-.494.466-1.05.71-1.67.73-.62.02-1.184-.184-1.69-.61-.4.214-.814.386-1.24.52-.066.654-.326 1.196-.78 1.63-.454.434-1.02.656-1.7.67-.68-.014-1.248-.236-1.7-.67-.454-.434-.714-.976-.78-1.63a7.155 7.155 0 0 1-1.24-.52c-.506.426-1.07.63-1.69.61-.62-.02-1.178-.264-1.67-.73-.454-.48-.69-1.03-.71-1.65-.02-.62.184-1.19.61-1.71a6.465 6.465 0 0 1-.52-1.22c-.654-.066-1.197-.326-1.63-.78C.236 11.247.014 10.68 0 10c.014-.68.236-1.246.67-1.7.433-.453.976-.713 1.63-.78a7.1 7.1 0 0 1 .52-1.24c-.426-.506-.634-1.073-.62-1.7.013-.626.253-1.18.72-1.66.492-.453 1.05-.69 1.67-.71.62-.02 1.184.184 1.69.61.4-.214.813-.386 1.24-.52.066-.654.326-1.196.78-1.63C8.752.236 9.32.014 10 0c.68.014 1.246.236 1.7.67.454.434.714.976.78 1.63.426.134.84.306 1.24.52.506-.426 1.073-.634 1.7-.62.626.014 1.18.254 1.66.72.453.494.69 1.05.71 1.67.02.62-.184 1.184-.61 1.69.214.4.386.814.52 1.24.654.067 1.196.327 1.63.78.434.454.656 1.02.67 1.7-.014.68-.236 1.247-.67 1.7z"/>
</svg>
