<?xml version="1.0" encoding="UTF-8"?>
<svg width="32px" height="23px" viewBox="0 0 32 23" version="1.1" xmlns="http://www.w3.org/2000/svg" xmlns:xlink="http://www.w3.org/1999/xlink">
    <!-- Generator: Sketch 43.2 (39069) - http://www.bohemiancoding.com/sketch -->
    <title>Page 1</title>
    <desc>Created with Sketch.</desc>
    <defs></defs>
    <g id="MyHelsinki" stroke="none" stroke-width="1" fill="none" fill-rule="evenodd">
        <g id="MyHelsinki---mylist-empty---desktop-hover" transform="translate(-889.000000, -561.000000)" fill="#231F20">
            <g id="edit" transform="translate(889.000000, 560.000000)">
                <g id="Page-1">
                    <g id="Group-3" transform="translate(16.000000, 0.649200)">
                        <path d="M13.999,3.5615 C14.183,3.0015 13.915,2.5135 13.194,2.0975 C12.459,1.7295 11.879,1.7615 11.455,2.1935 C11.03,2.6255 10.618,3.2175 10.22,3.9695 L12.979,5.4815 C13.475,4.7615 13.815,4.1225 13.999,3.5615 L13.999,3.5615 Z M12.187,6.7775 L9.403,5.2655 L8.61,6.5855 L11.371,8.0975 L12.187,6.7775 Z M10.579,9.3935 L7.819,7.8815 L2.026,17.0175 C1.627,17.7855 1.479,18.5255 1.583,19.2375 C1.686,19.9495 1.763,20.3295 1.811,20.3775 C1.875,20.3935 2.259,20.2655 2.963,19.9935 C3.667,19.7215 4.274,19.2335 4.787,18.5295 L10.579,9.3935 Z M15.535,3.1775 C15.463,4.1225 15.075,5.1375 14.371,6.2255 L6.179,19.2735 C5.362,20.3455 4.267,21.1255 2.892,21.6135 C1.515,22.1015 0.755,22.3455 0.61,22.3455 C0.53,22.2335 0.371,21.4895 0.131,20.1135 C-0.108,18.7375 0.06,17.4495 0.636,16.2495 L6.835,6.4655 L7.22,5.8175 L7.22,5.8415 L8.035,4.5215 L8.827,3.2015 C9.483,2.0825 10.223,1.2575 11.047,0.7295 C11.871,0.2015 12.851,0.2255 13.987,0.8015 C15.091,1.4415 15.606,2.2335 15.535,3.1775 L15.535,3.1775 Z" id="Fill-1"></path>
                    </g>
                    <path d="M4.0303,23.6492 C2.5083,23.6492 1.0763,23.0562 0.0003,21.9802 L1.0603,20.9192 C1.8533,21.7122 2.9083,22.1492 4.0303,22.1492 C5.1523,22.1492 6.2073,21.7122 7.0003,20.9192 C8.0763,19.8422 9.5083,19.2502 11.0303,19.2502 C12.5523,19.2502 13.9843,19.8422 15.0603,20.9192 L14.0003,21.9802 C13.2073,21.1862 12.1523,20.7502 11.0303,20.7502 C9.9083,20.7502 8.8533,21.1862 8.0603,21.9802 C6.9843,23.0562 5.5523,23.6492 4.0303,23.6492" id="Fill-4"></path>
                </g>
            </g>
        </g>
    </g>
</svg>