<?xml version="1.0" encoding="UTF-8"?>
<svg width="277px" height="247px" viewBox="0 0 277 247" version="1.1" xmlns="http://www.w3.org/2000/svg" xmlns:xlink="http://www.w3.org/1999/xlink">
    <!-- Generator: Sketch 42 (36781) - http://www.bohemiancoding.com/sketch -->
    <title>Page 1</title>
    <desc>Created with Sketch.</desc>
    <defs></defs>
    <g id="Page-1" stroke="none" stroke-width="1" fill="none" fill-rule="evenodd">
        <g id="404-new-font" transform="translate(-374.000000, -157.000000)" fill="#FD4F00">
            <g id="Page-1" transform="translate(374.000000, 157.000000)">
                <path d="M169.439169,88.7002935 L162.188941,95.9410985 C159.550021,98.6000535 159.550021,102.921318 162.2112,105.592623 C163.541789,106.921483 165.296535,107.593323 167.038914,107.593323 C168.780057,107.593323 170.534803,106.921483 171.866629,105.592623 L179.11562,98.3518185 L186.365847,105.592623 C187.697673,106.921483 189.452419,107.593323 191.193562,107.593323 C192.948307,107.593323 194.68945,106.921483 196.020039,105.592623 C198.691111,102.933668 198.691111,98.6124035 196.020039,95.9410985 L188.767338,88.7002935 L196.020039,81.4570185 C198.691111,78.7857135 198.691111,74.4767985 196.020039,71.8054935 C193.346495,69.1341885 189.015896,69.1341885 186.353481,71.8054935 L179.103254,79.0500035 L171.853026,71.8054935 C169.191847,69.1341885 164.861249,69.1341885 162.188941,71.8054935 C159.515396,74.4644485 159.515396,78.7857135 162.188941,81.4570185 L169.439169,88.7002935 Z" id="Fill-1"></path>
                <path d="M86.3050384,88.7002935 L79.0523375,95.9410985 C76.4022884,98.6000535 76.4022884,102.921318 79.0770696,105.592623 C80.4076589,106.921483 82.1624045,107.593323 83.9047839,107.593323 C85.6570563,107.593323 87.3981991,106.921483 88.7287884,105.592623 L95.9814893,98.3518185 L103.231717,105.592623 C104.563543,106.921483 106.318288,107.593323 108.059431,107.593323 C109.810467,107.593323 111.552846,106.921483 112.883436,105.592623 C115.558217,102.933668 115.558217,98.6124035 112.883436,95.9410985 L105.633208,88.7002935 L112.883436,81.4570185 C115.558217,78.7857135 115.558217,74.4767985 112.883436,71.8054935 C110.208654,69.1341885 105.881766,69.1341885 103.219351,71.8054935 L95.9691232,79.0500035 L88.7151857,71.8054935 C86.0540071,69.1341885 81.7271188,69.1341885 79.0523375,71.8054935 C76.3775563,74.4644485 76.3775563,78.7857135 79.0523375,81.4570185 L86.3050384,88.7002935 Z" id="Fill-3"></path>
                <path d="M257.942276,97.0763105 C253.99379,122.91745 241.323513,138.442635 228.684151,152.128905 C209.543946,172.03093 187.686915,188.862745 168.405736,203.714855 C158.996392,210.9606 149.441129,218.3212 141.169464,225.307595 L138.767973,227.335465 L136.300942,225.3854 C127.978575,218.809025 120.937334,213.666485 114.727093,209.129095 C105.924924,202.71821 97.7534237,196.76304 87.733196,188.06617 C85.1004594,185.782655 82.4170219,183.475675 79.7051424,181.15758 C63.5847317,167.34781 46.9214504,153.07121 35.1118522,136.60866 C22.2276424,118.648055 11.9539103,86.6800805 19.8434638,58.9296305 C23.9922808,44.3553955 36.3583522,19.5368355 72.5847585,17.0643655 L73.3440353,17.0557205 C106.588982,17.0557205 120.588611,37.5270805 130.763415,59.6496355 C132.143468,62.6432755 135.168209,64.5908705 138.471187,64.6131005 C141.810026,64.6131005 144.837241,62.7025555 146.23337,59.7472005 C156.609741,37.8592955 167.851736,19.5442455 200.478379,17.0668355 L201.084317,17.0557205 C222.121477,17.0557205 235.664799,26.2305355 243.323107,33.9295255 C260.739482,51.5146905 260.886638,77.9758005 257.942276,97.0763105 M255.44804,21.9450855 C245.536633,11.9341755 228.058428,0.0003705 201.084317,0.0003705 L199.62883,0.0337155 C174.045901,1.8639855 155.087477,12.4368205 141.716044,32.3511955 L138.540437,37.0812455 L135.338861,32.3709555 C120.744424,10.8918355 99.8853344,0.0003705 73.3440353,0.0003705 L72.2743701,0.0003705 L71.8601067,0.0188955 C38.0487942,2.1912605 12.464629,22.4749005 3.42008438,54.2761505 C-6.05232634,87.6285605 5.54210223,124.65633 21.2334103,146.55535 C34.2759058,164.703675 51.7194862,179.649645 68.5905174,194.104085 L70.6840933,195.90101 C72.6614281,197.594195 74.6226871,199.276265 76.5468478,200.958335 C86.9442406,209.9726 95.4446781,216.176005 104.443468,222.74497 C112.941433,228.93726 121.679299,235.303685 133.592772,245.12564 C136.759723,247.740135 141.786531,247.595641 144.767991,244.837885 C154.320781,236.076795 166.141508,226.979785 178.655973,217.35049 C198.456526,202.10812 220.900946,184.831705 241.108343,163.81571 C254.944741,148.816635 270.156245,130.195305 274.808361,99.6488155 C279.877214,66.7101305 273.180986,39.8439405 255.44804,21.9450855" id="Fill-5"></path>
                <rect id="Rectangle-2" x="128.607143" y="137.085" width="21.0223214" height="33.345" rx="10.5111607"></rect>
            </g>
        </g>
    </g>
</svg>