<svg xmlns="http://www.w3.org/2000/svg" width="16" height="16" viewBox="0 0 16 16">
    <path fill="#231F20" fill-rule="evenodd" d="M12.384 11.373c.501.138.938.294 1.312.473.406-.557.723-1.17.953-1.838a6.516 6.516 0 0 0 .343-2.12h-4c0 1.123-.086 2.176-.255 3.153a13.63 13.63 0 0 1 1.647.332zm-1.647-6.64c.117.683.197 1.402.239 2.16h3.936a6.677 6.677 0 0 0-.448-1.593 7.22 7.22 0 0 0-.784-1.405c-.768.37-1.749.647-2.943.837zm.912 9.022a6.869 6.869 0 0 0 1.679-1.435h-.799a13.76 13.76 0 0 0-1.969-.348 13.32 13.32 0 0 1-.44 1.46 7.09 7.09 0 0 1-.551 1.174 7.209 7.209 0 0 0 2.08-.851zM11.64 2.019a7.116 7.116 0 0 0-2.071-.853c.405.674.735 1.552.991 2.635.736-.094 1.371-.21 1.904-.346h.848a6.871 6.871 0 0 0-1.672-1.436zm-4.568-.244c-.277.52-.506 1.222-.688 2.105.513.032 1.048.047 1.608.047s1.101-.015 1.624-.047c-.181-.883-.411-1.586-.688-2.105C8.651 1.253 8.341.988 8 .977c-.342.01-.65.276-.928.798zM8.928 13.99c.277-.515.507-1.214.688-2.098A20.059 20.059 0 0 0 8 11.831c-.565 0-1.109.02-1.632.062.192.884.427 1.583.704 2.098.278.516.586.778.928.789.341-.011.651-.273.928-.789zm1.04-7.098a19.538 19.538 0 0 0-.191-2.051c-.577.053-1.171.079-1.785.079-.613 0-1.208-.026-1.784-.08a23.572 23.572 0 0 0-.176 2.052h3.936zM6 7.887a24.34 24.34 0 0 0 .208 3.045A16.203 16.203 0 0 1 8 10.836c.618 0 1.211.032 1.777.096.148-.926.223-1.941.223-3.045H6zM4.344 2.02a6.89 6.89 0 0 0-1.672 1.436h.864c.534.136 1.168.252 1.905.346.245-1.083.575-1.961.991-2.635a7.094 7.094 0 0 0-2.088.853zm-.008 11.736c.64.389 1.339.673 2.096.851a6.308 6.308 0 0 1-.568-1.174 11.165 11.165 0 0 1-.423-1.46 13.76 13.76 0 0 0-1.969.348h-.816a6.855 6.855 0 0 0 1.68 1.435zM1.529 5.3a6.906 6.906 0 0 0-.441 1.593h3.937c.031-.758.106-1.477.223-2.16a13.502 13.502 0 0 1-1.632-.357 8.239 8.239 0 0 1-1.295-.48A6.46 6.46 0 0 0 1.529 5.3zm3.719 5.741c-.16-.977-.245-2.03-.256-3.154h-4c0 .747.115 1.454.344 2.121.23.668.552 1.28.968 1.838.768-.357 1.75-.625 2.944-.805zm8.408-8.73C15.165 3.799 15.947 5.657 16 7.887c-.053 2.23-.835 4.088-2.344 5.576C12.147 14.95 10.262 15.72 8 15.775c-2.262-.054-4.146-.824-5.656-2.312C.835 11.975.054 10.116 0 7.887.054 5.657.835 3.8 2.344 2.311 3.854.822 5.738.052 8 0c2.262.052 4.147.822 5.656 2.311z"/>
</svg>
