<?xml version="1.0" encoding="UTF-8"?>
<svg width="22px" height="20px" viewBox="0 0 22 20" version="1.1" xmlns="http://www.w3.org/2000/svg" xmlns:xlink="http://www.w3.org/1999/xlink">
    <!-- Generator: Sketch 42 (36781) - http://www.bohemiancoding.com/sketch -->
    <title>gray-heart</title>
    <desc>Created with Sketch.</desc>
    <defs></defs>
    <g id="components" stroke="none" stroke-width="1" fill="none" fill-rule="evenodd">
        <g id="Artboard-4" transform="translate(-395.000000, -312.000000)" fill="#ABB2BE">
            <path d="M410.818182,312 C408.787273,312 406.994545,313.037273 405.909091,314.620909 C404.823636,313.037273 403.031818,312 401,312 C397.686364,312 395,314.753636 395,318.15 C395,323.671818 403.795455,330.545455 405.590909,331.891818 C405.687273,331.963636 405.798182,332 405.909091,332 C406.02,332 406.130909,331.963636 406.227273,331.891818 C408.022727,330.545455 416.818182,323.671818 416.818182,318.15 C416.818182,314.753636 414.131818,312 410.818182,312 M410.818182,313.818182 C413.124545,313.818182 415,315.760909 415,318.15 C415,321.353636 410.552727,326.213636 405.909091,329.845455 C401.266364,326.213636 396.818182,321.353636 396.818182,318.15 C396.818182,315.760909 398.694545,313.818182 401,313.818182 C402.349091,313.818182 403.623636,314.502727 404.41,315.649091 L405.534545,317.289091 C405.714545,317.552727 406.103636,317.552727 406.284545,317.289091 L407.409091,315.649091 C408.194545,314.502727 409.469091,313.818182 410.818182,313.818182" id="gray-heart"></path>
        </g>
    </g>
</svg>
