<svg xmlns="http://www.w3.org/2000/svg" width="16" height="15" viewBox="0 0 16 15">
    <path fill="#abb2be" fill-rule="evenodd" d="M14.69 1.312A4.45 4.45 0 0 1 16 4.48a4.45 4.45 0 0 1-1.31 3.168c-.92.92-1.764 1.664-2.58 2.383-1.15 1.014-2.237 1.97-3.375 3.285-.131.15-.624.786-.629.792L8 14.245l-.106-.137c-.005-.006-.498-.641-.629-.792-1.138-1.314-2.225-2.271-3.375-3.285-.816-.719-1.66-1.462-2.58-2.383A4.45 4.45 0 0 1 0 4.48a4.45 4.45 0 0 1 1.31-3.168A4.45 4.45 0 0 1 4.478 0h.003C6.597 0 7.663 1.286 8 1.793 8.34 1.286 9.405 0 11.521 0a4.45 4.45 0 0 1 3.169 1.312zM13.584 6.83c.59-.577.916-1.347.916-2.166 0-.82-.325-1.589-.916-2.166a3.149 3.149 0 0 0-2.216-.897c-2.22 0-2.96 1.879-3.367 2.582C7.594 3.48 6.853 1.6 4.634 1.6c-.839 0-1.626.318-2.218.897A3.008 3.008 0 0 0 1.5 4.663c0 .82.325 1.589.916 2.166.855.836 1.648 1.52 2.414 2.18C5.906 9.934 6.922 10.81 8 12c1.078-1.19 2.094-2.065 3.17-2.991.766-.66 1.558-1.343 2.414-2.18z"/>
</svg>
