<?xml version="1.0" standalone="no"?>
<!DOCTYPE svg PUBLIC "-//W3C//DTD SVG 20010904//EN"
 "http://www.w3.org/TR/2001/REC-SVG-20010904/DTD/svg10.dtd">
<svg version="1.0" xmlns="http://www.w3.org/2000/svg"
 width="200.000000pt" height="200.000000pt" viewBox="0 0 200.000000 200.000000"
 preserveAspectRatio="xMidYMid meet">
<metadata>
Created by potrace 1.15, written by Peter Selinger 2001-2017
</metadata>
<g transform="translate(0.000000,200.000000) scale(0.100000,-0.100000)"
fill="#000000" stroke="none">
<path d="M32 1718 c-17 -17 -17 -1249 0 -1266 17 -17 1919 -17 1936 0 17 17
17 1249 0 1266 -17 17 -1919 17 -1936 0z m1747 -145 c-35 -38 -203 -215 -372
-395 -355 -377 -375 -392 -461 -351 -30 14 -299 295 -720 751 l-58 62 838 0
837 0 -64 -67z m-1394 -302 c99 -106 181 -198 183 -204 1 -7 -101 -115 -228
-242 l-230 -230 0 485 1 485 47 -51 c26 -28 128 -138 227 -243z m1503 -430
l-3 -240 -233 227 -234 227 234 248 233 249 3 -235 c1 -130 1 -344 0 -476z
m-1128 30 c107 -111 119 -121 174 -136 113 -33 185 1 332 159 l89 94 235 -229
235 -229 -825 0 -825 0 230 230 c126 127 232 230 235 230 3 0 57 -53 120 -119z"/>
</g>
</svg>
