<svg xmlns="http://www.w3.org/2000/svg" viewBox="0 0 51.02 51.02"><defs><style>.cls-1{fill:#231f20;}</style></defs><title>Asset 2</title><g id="Layer_2" data-name="Layer 2"><g id="Layer_1-2" data-name="Layer 1"><path class="cls-1" d="M25.51,3.83A21.69,21.69,0,1,1,3.83,25.51,21.71,21.71,0,0,1,25.51,3.83m0-3.83A25.51,25.51,0,1,0,51,25.51,25.51,25.51,0,0,0,25.51,0Z"/><rect class="cls-1" x="1.79" y="23.6" width="47.45" height="3.83"/><rect class="cls-1" x="23.6" y="1.19" width="3.83" height="48.65"/><path class="cls-1" d="M21.74,1.59a31.7,31.7,0,0,0-.57,47.33,44.07,44.07,0,0,0,6.55.49q.82,0,1.63,0A31.71,31.71,0,0,0,28.84,1.2l-1.12,0A44.17,44.17,0,0,0,21.74,1.59ZM36.35,25.51A28,28,0,0,1,25.51,47.61a27.93,27.93,0,0,1,0-44.19A28,28,0,0,1,36.35,25.51Z"/><path class="cls-1" d="M44.1,11.68a112.2,112.2,0,0,1-37.18,0H4.2L3.51,15a115.47,115.47,0,0,0,22,2.11,115.46,115.46,0,0,0,22-2.11l-.69-3.27Z"/><path class="cls-1" d="M6.92,39.34a112.2,112.2,0,0,1,37.18,0h2.72l.69-3.27a115.59,115.59,0,0,0-44,0l.69,3.27Z"/></g></g></svg>