<svg xmlns="http://www.w3.org/2000/svg" viewBox="0 0 36.85 39.68"><defs><style>.cls-1{fill:#231f20;}</style></defs><title>Asset 6</title><g id="Layer_2" data-name="Layer 2"><g id="Layer_1-2" data-name="Layer 1"><path class="cls-1" d="M17,0A16.71,16.71,0,0,1,12.1,11.85L5,19A17.53,17.53,0,0,0,0,31.18l19.89,8.5A16.71,16.71,0,0,1,24.8,27.83l7.14-7.14A17.5,17.5,0,0,0,36.85,8.5ZM30.79,15.23a2.13,2.13,0,1,0-2.68,3.27l-6.32,6.32a20.91,20.91,0,0,0-5.27,8.8l-12-5.13A13,13,0,0,1,8,22l7.14-7.14a21.35,21.35,0,0,0,1.8-2A2.12,2.12,0,1,0,19.1,9.31a20.74,20.74,0,0,0,1.28-3.24l11.95,5.12A13.48,13.48,0,0,1,30.79,15.23Z"/><path class="cls-1" d="M24.8,12.12A2.12,2.12,0,1,0,25.75,15,2.12,2.12,0,0,0,24.8,12.12Z"/></g></g></svg>