<svg xmlns="http://www.w3.org/2000/svg" viewBox="0 0 24 24"><defs><style>.cls-1{fill:#525a66;fill-rule:evenodd;}.cls-2{fill:none;}</style></defs><title>ico-twitter</title><g id="Layer_2" data-name="Layer 2"><g id="Layer_1-2" data-name="Layer 1"><path class="cls-1" d="M20.23,7.48c0,.2,0,.39,0,.59C20.24,14.08,16,21,8.16,21a11.45,11.45,0,0,1-6.51-2,8.06,8.06,0,0,0,1,.06,8.18,8.18,0,0,0,5.27-1.94,4.3,4.3,0,0,1-4-3.16,4.06,4.06,0,0,0,.8.08,4,4,0,0,0,1.12-.16A4.48,4.48,0,0,1,2.48,9.39V9.33a4,4,0,0,0,1.92.57A4.64,4.64,0,0,1,2.52,6.11a4.76,4.76,0,0,1,.58-2.28,11.81,11.81,0,0,0,8.75,4.75,4.9,4.9,0,0,1-.11-1A4.4,4.4,0,0,1,16,3a4.12,4.12,0,0,1,3.1,1.43,8.22,8.22,0,0,0,2.7-1.1,4.52,4.52,0,0,1-1.87,2.51,8.07,8.07,0,0,0,2.44-.72A8.94,8.94,0,0,1,20.23,7.48Z"/><rect class="cls-2" width="24" height="24"/></g></g></svg>
