<svg xmlns="http://www.w3.org/2000/svg" viewBox="0 0 24 24"><defs><style>.cls-1{fill:#525a66;}.cls-2{fill:none;}</style></defs><title>ico-link</title><g id="Layer_2" data-name="Layer 2"><g id="Layer_1-2" data-name="Layer 1"><path class="cls-1" d="M7.27,22a3.58,3.58,0,0,1-2.51-1L3,19.23a3.51,3.51,0,0,1-1-2.5,3.57,3.57,0,0,1,1-2.51L8.64,8.61a3.51,3.51,0,0,1,2.5-1,3.57,3.57,0,0,1,2.51,1L15,9.9a1.16,1.16,0,0,1,.32.79,1.08,1.08,0,0,1-.33.78,1.11,1.11,0,0,1-1.55,0l-1.31-1.31a1.33,1.33,0,0,0-1.89,0L4.6,15.79a1.29,1.29,0,0,0-.39.93,1.35,1.35,0,0,0,.4,1L6.33,19.4a1.32,1.32,0,0,0,1.88,0l1.73-1.72a1.1,1.1,0,1,1,1.56,1.56L9.79,21A3.6,3.6,0,0,1,7.27,22Zm5.55-5.75a3.6,3.6,0,0,1-2.22-.73.67.67,0,0,1-.25-.19L9.07,14.07a1.15,1.15,0,0,1-.32-.8,1.08,1.08,0,0,1,.33-.78,1.14,1.14,0,0,1,1.55,0l1.23,1.25a1.39,1.39,0,0,0,1,.31A1.76,1.76,0,0,0,14,13.57l5.38-5.38a1.33,1.33,0,0,0,.36-1,1.47,1.47,0,0,0-.42-1L17.76,4.64a1.44,1.44,0,0,0-1-.43,1.26,1.26,0,0,0-1,.37L14.08,6.3a1.11,1.11,0,0,1-1.55,0,1.1,1.1,0,0,1,0-1.55L14.22,3a3.55,3.55,0,0,1,2.56-1,3.76,3.76,0,0,1,2.55,1l1.59,1.61A3.73,3.73,0,0,1,22,7.21h0a3.48,3.48,0,0,1-1,2.53l-5.4,5.4a.29.29,0,0,1-.09.1l-.32.38-.12-.06a3.9,3.9,0,0,1-2.14.69Z"/><rect class="cls-2" width="24" height="24"/></g></g></svg>