<svg id="Layer_1" data-name="Layer 1" xmlns="http://www.w3.org/2000/svg" xmlns:xlink="http://www.w3.org/1999/xlink" viewBox="0 0 316 198"><defs><style>.cls-1{fill:none;}.cls-2{clip-path:url(#clip-path);}.cls-3{fill:#3b00ff;}</style><clipPath id="clip-path"><rect class="cls-1" x="269.54" y="-4132.68" width="1024" height="607"/></clipPath></defs><title>info-koro</title><path class="cls-1" d="M.15,4.3c15.39,9.61,27.7-10.09,43.09-.48s3.07,29.32,18.46,38.93,27.7-10.09,43.08-.48,3.07,29.32,18.46,38.93,27.7-10.09,43.08-.48,3.07,29.32,18.46,38.93,27.7-10.09,43.08-.48,3.07,29.32,18.46,38.93S274,148,289.4,157.64s3.07,29.32,18.46,38.93A19,19,0,0,0,310.6,198H316V0H0V4.2Z"/><path class="cls-3" d="M289.4,157.64c-15.38-9.61-27.7,10.09-43.08.48s-3.07-29.32-18.46-38.93-27.7,10.09-43.08.48-3.07-29.32-18.46-38.93-27.7,10.09-43.08.48-3.07-29.32-18.46-38.93-27.7,10.09-43.08.48S58.62,13.44,43.23,3.82,15.53,13.92.15,4.3L0,4.2V198H310.6a19,19,0,0,1-2.74-1.42C292.47,187,304.78,167.25,289.4,157.64Z"/></svg>