<?xml version="1.0" encoding="UTF-8"?>
<svg width="22px" height="22px" viewBox="0 0 22 22" version="1.1" xmlns="http://www.w3.org/2000/svg" xmlns:xlink="http://www.w3.org/1999/xlink">
    <!-- Generator: sketchtool 41.2 (35397) - http://www.bohemiancoding.com/sketch -->
    <title>C62A9928-21C5-49CD-A52C-42F4ADD00992</title>
    <desc>Created with sketchtool.</desc>
    <defs></defs>
    <g id="components" stroke="none" stroke-width="1" fill="none" fill-rule="evenodd">
        <g id="desktop-footer" transform="translate(-310.000000, -355.000000)" fill="#001028">
            <g id="Group-11" transform="translate(254.000000, 353.000000)">
                <g id="instagram-logo" transform="translate(56.333333, 2.000000)">
                    <g id="Capa_1">
                        <path d="M21.30425,2.2199375 C21.173625,0.9508125 20.12175,0.0006875 18.8436875,0 C13.3876875,0 7.932375,0 2.476375,0.001375 C2.3271875,0.001375 2.17525,0.012375 2.030875,0.0405625 C0.82225,0.2715625 0.001375,1.2711875 0.001375,2.501125 L0.001375,10.660375 C0.001375,13.374625 0.001375,16.088875 0.00275,18.803125 C0.00275,18.9413125 0.0130625,19.0801875 0.03025,19.218375 C0.188375,20.3988125 1.2368125,21.313875 2.429625,21.3145625 C7.9151875,21.3145625 13.4014375,21.3145625 18.887,21.313875 C18.9811875,21.313875 19.074,21.308375 19.1681875,21.2980625 C20.373375,21.1564375 21.3104375,20.103875 21.3104375,18.8904375 C21.3125,13.4035 21.3125,7.91725 21.311125,2.431 C21.3125,2.3595 21.313875,2.2900625 21.30425,2.2199375 Z M10.6569375,6.560125 C12.9215625,6.5594375 14.7544375,8.3895625 14.7571875,10.65625 C14.7599375,12.9215625 12.9298125,14.755125 10.6638125,14.7565 C8.3936875,14.7571875 6.5580625,12.92225 6.5608125,10.6535 C6.5635625,8.394375 8.3978125,6.560125 10.6569375,6.560125 Z M18.8595,9.1306875 L18.8595,17.963 C18.8595,18.517125 18.522625,18.8574375 17.9678125,18.8574375 L4.3071875,18.8574375 C3.97925,18.8574375 3.653375,18.858125 3.32475,18.8574375 C2.8111875,18.85675 2.462625,18.5075 2.462625,17.994625 C2.4619375,15.037 2.462625,12.079375 2.462625,9.1210625 L2.462625,9.0261875 L4.312,9.0261875 C3.898125,10.696125 4.087875,12.293875 4.9053125,13.805 C5.50275,14.90775 6.359375,15.7650625 7.4518125,16.38175 C9.6091875,17.5993125 12.2931875,17.4845 14.3474375,16.080625 C15.4873125,15.301 16.3068125,14.26425 16.795625,12.9724375 C17.2816875,11.683375 17.3449375,10.3675 17.0053125,9.0234375 L18.858125,9.0234375 C18.8595,9.059875 18.8595,9.0949375 18.8595,9.1306875 Z M18.8595,5.7206875 C18.858125,6.205375 18.5013125,6.55875 18.0145625,6.5594375 L17.9980625,6.5594375 L16.8086875,6.5594375 C16.4044375,6.5594375 15.9988125,6.560125 15.5931875,6.55875 C15.126375,6.55875 14.763375,6.2101875 14.760625,5.743375 C14.755125,4.9218125 14.755125,4.10025 14.760625,3.2800625 C14.763375,2.80775 15.125,2.4619375 15.6000625,2.46125 C16.4085625,2.4605625 17.215,2.4605625 18.022125,2.46125 C18.500625,2.4619375 18.8588125,2.817375 18.8601875,3.298625 C18.860875,4.107125 18.860875,4.9135625 18.8595,5.7206875 Z" id="Shape"></path>
                    </g>
                </g>
            </g>
        </g>
    </g>
</svg>