<svg xmlns="http://www.w3.org/2000/svg" width="27" height="24" viewBox="0 0 27 24">
    <path fill="#231F20" fill-rule="evenodd" d="M23.093 11.357c-1.463 1.463-2.819 2.658-4.13 3.813-1.837 1.62-3.576 3.151-5.419 5.232-1.842-2.08-3.58-3.613-5.42-5.233-1.31-1.155-2.666-2.35-4.128-3.812A5.322 5.322 0 0 1 2.43 7.568c0-1.433.556-2.779 1.566-3.789A5.327 5.327 0 0 1 7.79 2.21c3.794 0 5.06 3.286 5.757 4.517.697-1.23 1.962-4.517 5.758-4.517 1.431 0 2.777.557 3.789 1.57a5.322 5.322 0 0 1 1.566 3.788 5.322 5.322 0 0 1-1.566 3.789m1.392-8.97A7.278 7.278 0 0 0 19.304.241c-3.462 0-5.205 2.104-5.758 2.933C12.994 2.345 11.251.241 7.79.241h-.004a7.278 7.278 0 0 0-5.18 2.146A7.279 7.279 0 0 0 .46 7.568c0 1.96.761 3.8 2.143 5.181 1.505 1.506 2.885 2.721 4.22 3.897 1.88 1.658 3.657 3.223 5.52 5.372.213.247 1.018 1.285 1.026 1.296l.174.224.174-.224c.009-.011.814-1.05 1.028-1.296 1.862-2.149 3.639-3.714 5.52-5.372 1.334-1.176 2.714-2.391 4.219-3.897a7.277 7.277 0 0 0 2.143-5.18c0-1.96-.761-3.8-2.143-5.182"/>
</svg>
