<svg xmlns="http://www.w3.org/2000/svg" viewBox="0 0 279.84 200"><defs><style>.cls-1{fill:#cfe4f5;}</style></defs><title>Asset 129</title><g id="Layer_2" data-name="Layer 2"><g id="HKI_hearts"><path class="cls-1" d="M239.93,20.18c0-26.9-40.35-26.9-40.35,0S239.93,47.08,239.93,20.18Z"/><path class="cls-1" d="M200,60.08c0-26.9-40.36-26.9-40.36,0S200,87,200,60.08Z"/><path class="cls-1" d="M239.5,60.08c0,26.9,40.35,26.9,40.35,0S239.5,33.18,239.5,60.08Z"/><path class="cls-1" d="M80.27,20.18c0-26.9-40.35-26.9-40.35,0S80.27,47.08,80.27,20.18Z"/><path class="cls-1" d="M0,60.08C0,87,40.35,87,40.35,60.08S0,33.18,0,60.08Z"/><path class="cls-1" d="M79.82,139.92c0,26.9,40.36,26.9,40.36,0S79.82,113,79.82,139.92Z"/><path class="cls-1" d="M119.74,179.82c0,26.9,40.36,26.9,40.36,0S119.74,152.92,119.74,179.82Z"/><path class="cls-1" d="M205.49,85.74a20.4,20.4,0,0,0-5.88,13.13,22.53,22.53,0,0,1-20.85,20.89A22.54,22.54,0,0,1,161,99.3,20.34,20.34,0,0,0,155.87,87c-.16-.19-.33-.37-.5-.56l-.2-.22-.11-.09-.12-.13-.3-.27-.44-.4a20.53,20.53,0,0,0-12.41-5.21,22.54,22.54,0,0,1-20.9-20.9,20.55,20.55,0,0,0-41-.22,22.55,22.55,0,0,1-20.9,20.91,20.17,20.17,0,1,0,21.28,21.28,22.51,22.51,0,0,1,19.15-20.7,1.1,1.1,0,0,1,.24,0,22.54,22.54,0,0,1,20.91,20.9,20.41,20.41,0,0,0,5.18,12.36c.16.18.31.36.47.52l.22.23a.71.71,0,0,1,.1.11s.08.09.12.12l.28.25c.16.15.31.3.48.43a20.48,20.48,0,0,0,12.39,5.2A22.56,22.56,0,0,1,159.88,137a20.66,20.66,0,1,0,40.79-.12,22.56,22.56,0,0,1,20.21-16.72,20.17,20.17,0,1,0-15.4-34.4Z"/></g></g></svg>