<svg xmlns="http://www.w3.org/2000/svg" viewBox="0 0 212.86 200"><defs><style>.cls-1{fill:#cfe4f5;}</style></defs><title>Asset 116</title><g id="Layer_2" data-name="Layer 2"><g id="HKI_hearts"><polygon class="cls-1" points="148.84 158.33 148.31 158.92 148.37 159.22 148.84 158.33"/><polygon class="cls-1" points="208.85 71.74 207.42 65.11 212.86 66.56 209.67 62.91 207.72 54.79 211.66 50.77 206.72 50.18 210.72 49.19 207.55 47.81 206.98 39.28 209.2 36.31 201.09 38.29 203.45 32.91 201.42 26.75 199.05 27.92 195.89 26.82 197.71 22.65 190.9 23.67 193.74 17.17 191.56 16.75 188.22 12.85 182.01 8.88 181.21 11.02 176.05 9.93 174.86 10.51 169.53 6.6 172.22 4.79 166.78 2.14 159.58 6.91 161.7 1.27 156.05 7 146.82 0.3 146.76 4.01 147.19 3.9 140.22 8.48 133.77 9.43 131.65 7.84 131.33 6.64 125.18 10.72 124.89 13.87 118.99 14.7 117.65 22.2 114.75 24.99 112.43 25.81 108.77 29.7 107.84 35.22 103.58 35.91 96.71 29.42 98.43 28.18 98.16 21.05 92.5 21.51 91.95 17.01 88.55 17.52 80.47 11.66 74.94 5.4 72.53 9.54 68.76 4.97 63.86 6.35 65.29 2.01 59.89 0 51.27 5.53 48.52 6.28 44.51 4.68 42.4 4.25 35.81 6.03 36.1 6.08 30.52 13.13 26.96 13.52 23.5 16.21 19.73 18.41 19.77 20.23 13.8 21.96 15.65 24.25 9.65 31.59 6.34 32.02 4.88 32.52 9.93 35.21 6.64 40.52 7.76 42.48 3.3 48.74 0.72 53.77 5.75 52.24 0.35 58.39 4.81 61.24 0 66.44 1.12 68.44 0.31 75.09 1.37 72.15 4.73 79.18 7.18 78.72 6.99 82.91 11.38 85.98 14.37 90.52 10.85 94.59 14.64 93.72 19.33 96.23 15.16 97.85 19.52 104.1 21.81 107.15 21.14 111.65 28.81 113.16 27.6 113.98 33.83 117.13 33.7 121.53 35.71 125.28 37.11 124.77 42.55 126.36 40.99 130.5 40.08 136.96 46.61 139.38 45.09 135.84 50.12 140.2 53.08 142.81 52.22 147.1 59.43 153.08 58.16 156.3 60.71 157.82 61.35 159.32 69.87 163.16 69.04 159.78 72.66 161.7 73.97 165.95 74.84 167.23 73.61 174.04 76.82 175.94 78.13 176.15 82 177 87.98 179.32 88.67 180.8 91.69 186.95 90.89 189.27 95.82 189.04 98.85 190.09 97.67 198.13 104.34 197.93 107.48 200 110.37 198.69 113.85 191.24 114.48 189.86 118.28 187.63 126.36 184.55 126.52 179.51 130.33 175.56 135.4 170.11 134.31 170.61 139.6 167.07 137.66 162.04 147.19 160.19 148.31 158.92 147.25 153.54 156.32 156.12 155.83 150 157.66 144.5 156.73 141.99 163.64 141.36 162.67 137.76 164.67 134.59 169.41 132.04 167.77 130.34 176.74 130.54 173.34 128.18 177.55 119.46 183.65 117.52 181 114.31 185.54 114.28 190.69 112.12 186.02 106.78 190.44 106.52 190.13 106.47 195.3 101.97 195.3 96.19 199.69 100.19 201.9 91.22 198.28 88.4 205.42 85.82 207.15 83.02 208.14 85.31 208.19 78.89 203.65 79.28 204.09 72.45 208.85 71.74"/></g></g></svg>