<svg xmlns="http://www.w3.org/2000/svg" width="14" height="17" viewBox="0 0 14 17">
    <path fill="#231F20" fill-rule="evenodd" d="M6.864 9.152a.478.478 0 0 1 .144.352v3.007a.498.498 0 0 1-.136.353.47.47 0 0 1-.361.143.494.494 0 0 1-.368-.143.484.484 0 0 1-.143-.353V9.504c0-.139.048-.256.143-.352a.5.5 0 0 1 .368-.145c.139 0 .257.049.353.145zM3.008 6H10V4.511c-.022-.991-.363-1.818-1.025-2.479-.661-.661-1.482-1.003-2.464-1.025-.991.022-1.818.364-2.479 1.025-.662.661-1.003 1.488-1.024 2.479V6zM12 8a1.011 1.011 0 0 0-.992-.993H2A1.008 1.008 0 0 0 1.008 8v6.016a1.007 1.007 0 0 0 .992.991h9.008a1.004 1.004 0 0 0 .992-.991V8zm.424-1.416c.377.379.573.851.584 1.416v6.016c-.011.566-.207 1.037-.584 1.416-.379.378-.851.574-1.416.584H2c-.566-.01-1.038-.206-1.416-.584-.379-.379-.574-.85-.584-1.416V8c.01-.565.205-1.037.584-1.416C.962 6.206 1.434 6.011 2 6V4.511c.032-1.279.471-2.343 1.319-3.191C4.168.472 5.231.032 6.511 0c1.27.032 2.329.472 3.177 1.32.848.848 1.287 1.912 1.32 3.191V6c.565.011 1.037.206 1.416.584z"/>
</svg>
