<?xml version="1.0" encoding="UTF-8"?>
<svg width="24px" height="22px" viewBox="0 0 24 22" version="1.1" xmlns="http://www.w3.org/2000/svg" xmlns:xlink="http://www.w3.org/1999/xlink">
    <!-- Generator: Sketch 42 (36781) - http://www.bohemiancoding.com/sketch -->
    <title>navigation-heart</title>
    <desc>Created with Sketch.</desc>
    <defs></defs>
    <g id="components" stroke="none" stroke-width="1" fill="none" fill-rule="evenodd">
        <g id="Artboard-4" transform="translate(-429.000000, -310.000000)" fill="#001028">
            <path d="M446.4,310 C444.166,310 442.194,311.141 441,312.883 C439.806,311.141 437.835,310 435.6,310 C431.955,310 429,313.029 429,316.765 C429,322.839 438.675,330.4 440.65,331.881 C440.756,331.96 440.878,332 441,332 C441.122,332 441.244,331.96 441.35,331.881 C443.325,330.4 453,322.839 453,316.765 C453,313.029 450.045,310 446.4,310 M446.4,312 C448.937,312 451,314.137 451,316.765 C451,320.289 446.108,325.635 441,329.63 C435.893,325.635 431,320.289 431,316.765 C431,314.137 433.064,312 435.6,312 C437.084,312 438.486,312.753 439.351,314.014 L440.588,315.818 C440.786,316.108 441.214,316.108 441.413,315.818 L442.65,314.014 C443.514,312.753 444.916,312 446.4,312" id="navigation-heart"></path>
        </g>
    </g>
</svg>