<svg xmlns="http://www.w3.org/2000/svg" width="32" height="21" viewBox="0 0 32 21">
    <g fill="#A3C8EB" fill-rule="evenodd">
        <path d="M23.881.593a6.631 6.631 0 0 0-6.69 6.412 6.08 6.08 0 0 0 6.062 6.08 6.237 6.237 0 0 0 5.853-3.991c.049.365.078.734.073 1.105a8.172 8.172 0 0 1-8.196 8.136v2.536c5.904.007 10.7-4.763 10.726-10.666.007-6.536-3.768-9.612-7.828-9.612M6.69.593A6.631 6.631 0 0 0 0 7.005a6.08 6.08 0 0 0 6.08 6.08A6.236 6.236 0 0 0 11.918 9.1a8.172 8.172 0 0 1-8.12 9.235v2.536c5.904.007 10.7-4.763 10.726-10.666 0-6.536-3.774-9.612-7.834-9.612"/>
    </g>
</svg>
