<svg width="18" height="18" viewBox="0 0 18 18" xmlns="http://www.w3.org/2000/svg"><title>19441BA9-B2F6-488F-B927-504EA062E866</title><path d="M17.016 9.017c-.054 2.26-.832 4.146-2.336 5.655-1.504 1.51-3.392 2.29-5.664 2.345-2.272-.054-4.163-.835-5.672-2.345C1.835 13.162 1.053 11.278 1 9.017c.043-2.08.717-3.851 2.024-5.312C4.331 2.243 5.992 1.368 8.008 1.08v1.025c-1.739.288-3.163 1.06-4.272 2.319-1.109 1.26-1.686 2.79-1.728 4.593.053 1.974.739 3.618 2.056 4.936 1.317 1.317 2.968 2.002 4.952 2.055 1.973-.053 3.618-.738 4.936-2.055 1.317-1.318 2.003-2.962 2.056-4.936-.022-1.42-.395-2.681-1.12-3.784a7.039 7.039 0 0 0-2.88-2.52v3.79a.482.482 0 0 1-.144.354.479.479 0 0 1-.352.143.495.495 0 0 1-.352-.135.472.472 0 0 1-.144-.361V1l5.488.017c.139 0 .256.048.352.143a.48.48 0 0 1 .144.352c0 .14-.048.257-.144.353a.477.477 0 0 1-.352.143h-3.648a8.05 8.05 0 0 1 3 2.88c.752 1.228 1.139 2.604 1.16 4.129z" stroke="#FFF" fill="#FFF" fill-rule="evenodd"/></svg>