<?xml version="1.0" encoding="UTF-8"?>
<svg width="188px" height="11px" viewBox="0 0 188 11" version="1.1" xmlns="http://www.w3.org/2000/svg" xmlns:xlink="http://www.w3.org/1999/xlink">
    <!-- Generator: Sketch 42 (36781) - http://www.bohemiancoding.com/sketch -->
    <title>Shape</title>
    <desc>Created with Sketch.</desc>
    <defs></defs>
    <g id="Page-1" stroke="none" stroke-width="1" fill="none" fill-rule="evenodd">
        <path d="M0,0 L0,0 L0,10.69 C1.26017838,10.7040465 2.39478759,9.92899651 2.84,8.75 L5.09,2.26 C5.54743503,1.16003727 6.65077436,0.469948672 7.84,0.54 C9.07422099,0.528949244 10.1892552,1.27495076 10.65,2.42 L12.83,8.75 C13.2906487,9.92122747 14.4214413,10.6909599 15.68,10.69 C16.9401784,10.7040465 18.0747876,9.92899651 18.52,8.75 L20.73,2.34 C21.1735158,1.20947162 22.2867853,0.486047385 23.5,0.54 C24.734221,0.528949244 25.8492552,1.27495076 26.31,2.42 L28.49,8.75 C28.9506487,9.92122747 30.0814413,10.6909599 31.34,10.69 C32.6001784,10.7040465 33.7347876,9.92899651 34.18,8.75 L36.37,2.34 C36.8647272,1.25694542 37.9394102,0.556065259 39.13,0.54 C40.38597,0.503809853 41.5314312,1.25414686 42,2.42 L44.18,8.75 C44.6366038,9.91109219 45.7524045,10.6786998 47,10.69 C48.2601784,10.7040465 49.3947876,9.92899651 49.84,8.75 L52,2.34 C52.4435158,1.20947162 53.5567853,0.486047385 54.77,0.54 C56.004221,0.528949244 57.1192552,1.27495076 57.58,2.42 L59.76,8.75 C60.2206487,9.92122747 61.3514413,10.6909599 62.61,10.69 C63.8701784,10.7040465 65.0047876,9.92899651 65.45,8.75 L67.66,2.34 C68.1558273,1.24875331 69.2414051,0.545861162 70.44,0.54 C71.674221,0.528949244 72.7892552,1.27495076 73.25,2.42 L75.43,8.75 C75.8906487,9.92122747 77.0214413,10.6909599 78.28,10.69 C79.5401784,10.7040465 80.6747876,9.92899651 81.12,8.75 L83.33,2.34 C83.7735158,1.20947162 84.8867853,0.486047385 86.1,0.54 C87.3667924,0.490978038 88.5276583,1.24353939 89,2.42 L91.18,8.75 C91.6366038,9.91109219 92.7524045,10.6786998 94,10.69 C95.2601784,10.7040465 96.3947876,9.92899651 96.84,8.75 L99.09,2.26 C99.547435,1.16003727 100.650774,0.469948672 101.84,0.54 C103.074221,0.528949244 104.189255,1.27495076 104.65,2.42 L106.83,8.75 C107.290649,9.92122747 108.421441,10.6909599 109.68,10.69 C110.940178,10.7040465 112.074788,9.92899651 112.52,8.75 L114.73,2.34 C115.173516,1.20947162 116.286785,0.486047385 117.5,0.54 C118.734221,0.528949244 119.849255,1.27495076 120.31,2.42 L122.49,8.75 C122.950649,9.92122747 124.081441,10.6909599 125.34,10.69 C126.600178,10.7040465 127.734788,9.92899651 128.18,8.75 L130.37,2.34 C130.864727,1.25694542 131.93941,0.556065259 133.13,0.54 C134.364221,0.528949244 135.479255,1.27495076 135.94,2.42 L138.12,8.75 C138.580649,9.92122747 139.711441,10.6909599 140.97,10.69 C142.230178,10.7040465 143.364788,9.92899651 143.81,8.75 L146.02,2.34 C146.463516,1.20947162 147.576785,0.486047385 148.79,0.54 C150.024221,0.528949244 151.139255,1.27495076 151.6,2.42 L153.78,8.75 C154.240649,9.92122747 155.371441,10.6909599 156.63,10.69 C157.890178,10.7040465 159.024788,9.92899651 159.47,8.75 L161.68,2.34 C162.175827,1.24875331 163.261405,0.545861162 164.46,0.54 C165.694221,0.528949244 166.809255,1.27495076 167.27,2.42 L169.45,8.75 C169.910649,9.92122747 171.041441,10.6909599 172.3,10.69 C173.560178,10.7040465 174.694788,9.92899651 175.14,8.75 L177.35,2.34 C177.793516,1.20947162 178.906785,0.486047385 180.12,0.54 C181.354221,0.528949244 182.469255,1.27495076 182.93,2.42 L185.11,8.75 C185.570649,9.92122747 186.701441,10.6909599 187.96,10.69 L187.96,0 L0,0 Z" id="Shape" fill="#009A4A" fill-rule="nonzero"></path>
    </g>
</svg>