<?xml version="1.0" encoding="UTF-8"?>
<svg width="10px" height="16px" viewBox="0 0 10 16" version="1.1" xmlns="http://www.w3.org/2000/svg" xmlns:xlink="http://www.w3.org/1999/xlink">
    <!-- Generator: Sketch 43.2 (39069) - http://www.bohemiancoding.com/sketch -->
    <title>Page 1</title>
    <desc>Created with Sketch.</desc>
    <defs></defs>
    <g id="MyHelsinki" stroke="none" stroke-width="1" fill="none" fill-rule="evenodd">
        <g id="Myhelsinki-editlist" transform="translate(-242.000000, -533.000000)" fill="#DB2719">
            <g id="Group-7" transform="translate(60.000000, 519.000000)">
                <g id="Group-5" transform="translate(182.000000, 14.000000)">
                    <g id="Page-1">
                        <path d="M0.228184615,5.33329231 L0.912492308,15.7997538 L9.0528,15.7997538 L9.73751795,5.33329231 L0.228184615,5.33329231 Z M2.09977436,7.07811282 L7.86551795,7.07811282 L7.40274872,14.0553436 L2.56254359,14.0553436 L2.09977436,7.07811282 Z" id="Fill-1"></path>
                        <g id="Group-4" transform="translate(0.000000, 0.210133)">
                            <path d="M8.20512823e-05,1.63290256 L2.00377436,1.63290256 C2.90264615,1.63290256 3.76418462,1.30305641 4.42921026,0.704902564 L4.99044103,0.200287179 L5.55167179,0.704902564 C6.21628718,1.30305641 7.07782564,1.63290256 7.97669744,1.63290256 L9.96562051,1.63290256 L9.85156923,3.37895385 L7.97669744,3.37895385 C6.90264615,3.37895385 5.86510769,3.05690256 4.99003077,2.46121026 C4.1153641,3.05690256 3.07782564,3.37895385 2.00377436,3.37895385 L0.114133333,3.37895385 L8.20512823e-05,1.63290256 Z" id="Fill-2"></path>
                        </g>
                    </g>
                </g>
            </g>
        </g>
    </g>
</svg>