<svg width="74" height="66" viewBox="0 0 74 66" fill="none" xmlns="http://www.w3.org/2000/svg">
<path d="M36.9703 65.929L7.25955 36.4444C-0.585098 28.6594 -1.12938 16.1768 6.02618 8.02513C9.85113 3.66437 15.1791 1.15198 21.0214 0.953769C26.7838 0.755553 32.4214 2.9508 36.476 6.96963L36.9703 7.46021L37.4647 6.96963C45.584 -1.08786 58.7965 -1.08786 66.9208 6.96963C70.8407 10.8596 73.0028 16.0529 73.0028 21.5881C73.0028 27.1232 70.8456 32.3116 66.9258 36.2015L36.9703 65.929ZM21.7354 4.90818C21.5407 4.90818 21.351 4.91313 21.1562 4.91809C16.4324 5.08162 12.1281 7.10838 9.0372 10.6317C3.25983 17.2174 3.71423 27.3215 10.0858 33.6446L36.9703 60.3294L64.0946 33.4067C67.2604 30.265 69.0031 26.0727 69.0031 21.598C69.0031 17.1232 67.2604 12.926 64.0896 9.7843C57.5232 3.2729 46.8473 3.2729 40.281 9.7843L36.9604 13.0747L33.6447 9.7843C30.5139 6.66239 26.1996 4.90818 21.7354 4.90818Z" fill="white"/>
<path d="M24.0674 30.7608L15.0743 21.8411L17.9005 19.0363L24.0674 25.1562L30.2293 19.0363L33.0556 21.8411L24.0674 30.7608Z" fill="white"/>
<path d="M49.8683 30.7608L40.8801 21.8411L43.7064 19.0363L49.8683 25.1562L56.0351 19.0363L58.8614 21.8411L49.8683 30.7608Z" fill="white"/>
<path d="M36.9205 46.3058L27.9323 37.3861L30.7536 34.5814L36.9205 40.7013L43.0873 34.5814L45.9086 37.3861L36.9205 46.3058Z" fill="white"/>
</svg>
