<?xml version="1.0" encoding="utf-8"?>
<!-- Generator: Adobe Illustrator 23.0.3, SVG Export Plug-In . SVG Version: 6.00 Build 0)  -->
<svg version="1.1" id="Layer_1" xmlns="http://www.w3.org/2000/svg" xmlns:xlink="http://www.w3.org/1999/xlink" x="0px" y="0px"
	 viewBox="0 0 153.6 140.6" style="enable-background:new 0 0 153.6 140.6;" xml:space="preserve">
<style type="text/css">
	.st0{fill:#00D7A7;}
</style>
<path class="st0" d="M139.6,15.9C122.5-1,94.7-1,77.7,15.9l-0.3,0.3L77,15.9C68.5,7.5,56.7,2.9,44.6,3.3C32.3,3.7,21.1,9,13.1,18.1
	C-2,35.3-0.8,61.5,15.6,77.9l61.7,61.3l62.2-61.8c8.2-8.2,12.8-19.1,12.8-30.7C152.4,35,147.8,24.1,139.6,15.9z M46.1,13.4
	c8.9,0,17.6,3.5,23.8,9.7l7.5,7.5l7.5-7.5c13.1-13,34.4-13,47.5,0c6.3,6.3,9.8,14.6,9.8,23.6c0,8.9-3.5,17.3-9.8,23.6l-55,54.6
	L22.8,70.7C10.1,58.1,9.2,37.9,20.7,24.8c6.2-7,14.7-11.1,24.2-11.4C45.3,13.4,45.7,13.4,46.1,13.4z"/>
<path class="st0" d="M74.9,92.8L46.6,65.9l7.2-7.2l21,19.7L111.5,42l7.2,7.2L74.9,92.8z"/>
</svg>
