<?xml version="1.0" encoding="UTF-8"?>
<svg width="23px" height="20px" viewBox="0 0 23 20" version="1.1" xmlns="http://www.w3.org/2000/svg" xmlns:xlink="http://www.w3.org/1999/xlink">
    <!-- Generator: sketchtool 41.2 (35397) - http://www.bohemiancoding.com/sketch -->
    <title>980A481F-8654-427C-8A0B-48130E802674</title>
    <desc>Created with sketchtool.</desc>
    <defs></defs>
    <g id="components" stroke="none" stroke-width="1" fill="none" fill-rule="evenodd">
        <g id="desktop-footer" transform="translate(-445.000000, -357.000000)" fill="#001028">
            <g id="Group-11" transform="translate(254.000000, 353.000000)">
                <path d="M211.645,9.1893021 C211.655,9.39601986 211.65875,9.6052897 211.65875,9.81200746 C211.65875,16.179425 206.9125,23.5191816 198.23375,23.5191816 C195.5675,23.5191816 193.08875,22.7216594 191,21.3537492 C191.37,21.3984105 191.745,21.4213791 192.125,21.4213791 C194.3375,21.4213791 196.37125,20.6506536 197.985,19.3605817 C195.92125,19.3210246 194.1775,17.9301458 193.5775,16.0160924 C193.865,16.0709619 194.16125,16.1003108 194.465,16.1003108 C194.89625,16.1003108 195.31375,16.0428892 195.70875,15.9331501 C193.55,15.4890897 191.92375,13.5431355 191.92375,11.2079904 L191.92375,11.1480167 C192.56,11.5091348 193.28875,11.7260608 194.06125,11.7515815 C192.795,10.8864294 191.96125,9.41388436 191.96125,7.74100173 C191.96125,6.85926114 192.19375,6.03111406 192.60125,5.31908621 C194.9275,8.23482749 198.40625,10.1514329 202.3275,10.3530465 C202.2475,9.99958469 202.20625,9.63336248 202.20625,9.25437992 C202.20625,6.59512178 204.3175,4.4398977 206.92375,4.4398977 C208.28125,4.4398977 209.5075,5.02304596 210.36875,5.95965607 C211.4425,5.74273002 212.4525,5.34205485 213.365,4.79080748 C213.0125,5.91499482 212.26375,6.85926114 211.29,7.45516976 C212.245,7.33777448 213.1525,7.08129133 214,6.69720463 C213.3675,7.66443959 212.5675,8.51172721 211.645,9.1893021 Z" id="Shape"></path>
            </g>
        </g>
    </g>
</svg>