<svg xmlns="http://www.w3.org/2000/svg" width="21" height="24" viewBox="0 0 21 24">
    <g fill="#231F20" fill-rule="evenodd">
        <path d="M10.326 0a5.619 5.619 0 1 0 0 11.237 5.619 5.619 0 0 0 0-11.237m0 1.822a3.8 3.8 0 0 1 3.796 3.797 3.8 3.8 0 0 1-3.796 3.796A3.8 3.8 0 0 1 6.53 5.62a3.8 3.8 0 0 1 3.796-3.797M15.186 12.756H5.467A5.467 5.467 0 0 0 0 18.223v5.467h20.653v-5.467a5.467 5.467 0 0 0-5.467-5.467m0 1.822a3.649 3.649 0 0 1 3.644 3.645v3.644H1.822v-3.644a3.649 3.649 0 0 1 3.645-3.645h9.719"/>
    </g>
</svg>
