<svg id="Layer_1" data-name="Layer 1" xmlns="http://www.w3.org/2000/svg" viewBox="0 0 94 94"><defs><style>.cls-1{fill:#fff;}</style></defs><title>vaakuna-bottom-right</title><path class="cls-1" d="M88-440V9.72C88,39.93,63.12,64.5,32.55,64.5H-351.79a60.31,60.31,0,0,0-42.84,17.68L-398,85.54l-3.37-3.36A60.3,60.3,0,0,0-444.21,64.5H-828.92A55,55,0,0,1-884,9.72V-440H88m6-6H-890V9.72A61,61,0,0,0-828.92,70.5h384.72a54.34,54.34,0,0,1,38.6,15.93L-398,94l7.6-7.58A54.35,54.35,0,0,1-351.79,70.5H32.55C66.43,70.5,94,43.23,94,9.72V-446Z"/></svg>