<svg id="Layer_1" data-name="Layer 1" xmlns="http://www.w3.org/2000/svg" viewBox="0 0 94 94"><defs><style>.cls-1{fill:#fff;}</style></defs><title>vaakuna-triangle</title><path class="cls-1" d="M533-440V9.72c0,30.21-24.88,54.78-55.45,54.78H93.19A60.31,60.31,0,0,0,50.35,82.18L47,85.54l-3.37-3.36A60.3,60.3,0,0,0,.78,64.5H-383.94A55,55,0,0,1-439,9.72V-440H533m6-6H-445V9.72A61,61,0,0,0-383.94,70.5H.78a54.34,54.34,0,0,1,38.6,15.93L47,94l7.6-7.58A54.35,54.35,0,0,1,93.19,70.5H477.53C511.42,70.5,539,43.23,539,9.72V-446Z"/></svg>