<svg id="Layer_1" data-name="Layer 1" xmlns="http://www.w3.org/2000/svg" viewBox="0 0 94 94"><defs><style>.cls-1{fill:#fff;}</style></defs><title>vaakuna-bottom-left</title><path class="cls-1" d="M978-440V9.72c0,30.21-24.88,54.78-55.45,54.78H538.21a60.31,60.31,0,0,0-42.84,17.68L492,85.54l-3.37-3.36A60.3,60.3,0,0,0,445.79,64.5H61.08A55,55,0,0,1,6,9.72V-440H978m6-6H0V9.72A61,61,0,0,0,61.08,70.5H445.79a54.34,54.34,0,0,1,38.6,15.93L492,94l7.6-7.58A54.35,54.35,0,0,1,538.21,70.5H922.55C956.43,70.5,984,43.23,984,9.72V-446Z"/></svg>