<svg xmlns="http://www.w3.org/2000/svg" width="16" height="15" viewBox="0 0 16 15">
    <path fill="#FFFFFF" fill-rule="evenodd" d="M14.69 1.312A4.45 4.45 0 0 0 11.522 0c-2.117 0-3.183 1.286-3.52 1.793C7.662 1.286 6.596 0 4.48 0h-.003A4.45 4.45 0 0 0 1.31 1.312 4.45 4.45 0 0 0 0 4.48a4.45 4.45 0 0 0 1.31 3.168c.92.92 1.764 1.664 2.58 2.383 1.15 1.014 2.237 1.97 3.375 3.285.131.15.624.786.629.792l.106.137.106-.137c.005-.006.498-.641.629-.792 1.138-1.314 2.225-2.271 3.375-3.285.816-.719 1.66-1.462 2.58-2.383A4.45 4.45 0 0 0 16 4.48a4.45 4.45 0 0 0-1.31-3.168"/>
</svg>
