<svg xmlns="http://www.w3.org/2000/svg" viewBox="0 0 255.84 200"><defs><style>.cls-1{fill:#fff;}</style></defs><title>Asset 227</title><g id="Layer_2" data-name="Layer 2"><g id="HKI_hearts"><path class="cls-1" d="M49.94,45.66C61.59,34.57,73,23.48,83.77,11.83,74.38,5,63-1,46.82.18A48,48,0,0,0,20.1,11.83c-6.83,6-12.51,13.65-15.35,21.32C21.8,26,40.84,36.27,49.94,45.66Z"/><path class="cls-1" d="M205.16,46.52C214,36.57,237,29.46,252.62,36,244.09,17.52,229.6-2.1,201.18.18c-12.51.86-21.32,6.25-29.57,12.23C182.42,24.34,194.35,35.15,205.16,46.52Z"/><path class="cls-1" d="M55.35,51.07a60.13,60.13,0,0,0,4.26,4.26c9.95,9.95,20.18,19.61,29.57,29.56,11.65-10.81,22.46-22.18,33.83-33C111.92,40,100.55,28.33,88.9,17.24c-7.67,7.67-17.06,17.34-25.3,25.58C62.73,43.68,55.07,49.93,55.35,51.07Z"/><path class="cls-1" d="M166.49,84.88C178.14,74.07,188.95,62.7,200,51.63c-10.81-11.37-22.18-22.46-33.55-33.55-11.09,10.23-22.74,22.18-33.25,33.55Q150.29,68.26,166.49,84.88Z"/><path class="cls-1" d="M1.06,43.66C-2.06,56.74,2.2,70.1,7.6,78.34c.85,1.72,3.69,6.26,4.55,6a60.21,60.21,0,0,0,4.26-4.26C26.64,69.82,36,60.16,45.4,50.21,36.87,41.4,12.71,31.73,1.06,43.66Z"/><path class="cls-1" d="M255.47,46.5c-11.09-11.37-36.67-4.82-44.92,4.83,10.81,11.37,21.6,22.46,33,33C251.2,75.51,257.45,63.28,255.47,46.5Z"/><path class="cls-1" d="M50.22,56.17C39.14,67.26,27.48,78.35,17,89.72c9.67,9.38,19.9,19.9,29.57,29.57.86.86,4,4.26,4.54,4.26.28,0,3.4-3.41,4.26-4.26,9.95-9.95,19.9-19.9,29.29-29.57C72.68,78.63,61.59,67.26,50.22,56.17Z"/><path class="cls-1" d="M102.53,81.75c-.86.86-8.53,7.39-8.25,8.25,0,.86,3.41,3.4,4.26,4.26,8.81,8.81,16.77,16.49,25.58,25.3.86.86,4,4.26,4,4.26s-.28,0,4.54-4.26C142.89,109.34,152,100.23,161.94,90c-11.65-11.09-22.46-22.74-34.11-33.55C120.16,64.42,111.06,73.23,102.53,81.75Z"/><path class="cls-1" d="M205.14,56.75Q188.51,73.81,171.89,90c10.81,11.37,21.6,22.46,33,33q16.63-17.05,33.25-33.25C227.88,78.35,216.23,67.82,205.14,56.75Z"/><path class="cls-1" d="M123,129c-11.1-11.39-22.47-22.76-33.84-33.83q-17.05,16.63-33.25,33.25C67,139.75,78.66,150.56,89.47,161.93,101.12,151.41,111.93,140,123,129Z"/><path class="cls-1" d="M195.49,123.83c-9.39-9.39-19.9-20.46-28.71-28.71-11.09,11.07-21.89,22.44-33.27,33.25,10.51,11.65,22.18,21.88,33,33,9.11-9.37,19.34-19.32,29-29,1.14-1.14,4.26-4,4.26-4.54C199.76,127.53,196.63,125,195.49,123.83Z"/><path class="cls-1" d="M128.39,134.06c-11.37,10.81-22.18,22.18-33.25,33,8.81,9.67,19,19.34,28.43,28.71l4.26,4.26s3.12-3.4,4-4.26c9.95-9.95,19.9-19.61,29.57-29C150.85,155.1,139.2,144.87,128.39,134.06Z"/></g></g></svg>