<svg xmlns="http://www.w3.org/2000/svg" viewBox="0 0 220.73 200"><defs><style>.cls-1{fill:#fff;}</style></defs><title>Asset 245</title><g id="Layer_2" data-name="Layer 2"><g id="HKI_hearts"><path class="cls-1" d="M74.1,163.87c-.1-.08-.2-.13-.29-.2S73.54,163.53,74.1,163.87Z"/><path class="cls-1" d="M215.47,40.21A48.27,48.27,0,0,0,217,28.6c0-2.26-.95-4-3.21-4.19a4.79,4.79,0,0,0-1.89.2c-1.76.74-3,2.88-4.06,4.3A17.69,17.69,0,0,0,206.25,31a45.78,45.78,0,0,0,.64-13.61c-.32-2.94-3.93-3.64-6.19-2.84a6.1,6.1,0,0,0-1,.44,4.08,4.08,0,0,0-5.39-2.35c.29-1.72.77-3.49,1.13-5.19.29-2.39,0-4.39-2.3-6-1.84-1.28-4.89-1.26-6.4.6-.36.42-.85,1-1.4,1.78a5.76,5.76,0,0,0-10.19-1.33A49,49,0,0,0,172.23,7c-2.7-2.73-7.42-3.43-10.25.07-1.64,1.9-3.22,4.17-4.85,6a7.34,7.34,0,0,0-2.13.21,4.86,4.86,0,0,0-1.89-.43,13.23,13.23,0,0,0-9.38,2,6.74,6.74,0,0,0-7.36,3.77c-2.89,5.95-5.6,11.77-8.07,18-2.35,4.4-4.58,8.94-6.57,13.47-.11-.45-.35-.75-.55-1.29-2.36-5.61-4.89-11.51-9-16.36a13.69,13.69,0,0,0-4.54-4,21.76,21.76,0,0,0-2.9-3.94,5.86,5.86,0,0,0-5.13-2.41,9,9,0,0,0-1.76.61A6.28,6.28,0,0,0,96.53,22,31.71,31.71,0,0,0,95,18.85c-1.11-2.14-4-2.55-6-1.92A10.07,10.07,0,0,0,87,18.17a14,14,0,0,0-6.51-5.69c-2.26-1-4.27.46-4.86,2.59,0,.19-.06.3-.06.49a19.43,19.43,0,0,0-2.14-2.43c-1-1.09-2.92.32-2.37,1.78s1.24,2.81,1.79,4.2c0,.19-.13.19-.13.19-3.37-4.68-7.18-9.23-12.5-11.88-2.39-1.19-5.63-.14-6,2.73A39.53,39.53,0,0,0,44.9,2.88c-2-1.26-3.86-1.37-5.37.47a5,5,0,0,0-.59,1.72c-.18,1.89,1,4,1.48,5.73.37.86.69,1.58,1.13,2.38A42,42,0,0,0,30.07,5.85C27.32,4.58,25,7.29,24.6,9.61c0,.62,0,.86,0,1.1a4.32,4.32,0,0,0-5,3.51c-1.3-1-2.51-2.3-3.93-3.45-1.84-1.51-4-2.42-6.3-1.12a5.25,5.25,0,0,0-2.57,5.81c.2.6.44,1.4.68,2a5.86,5.86,0,0,0-6.17,8.34C4.75,33.36,9.5,40.29,14.06,47.39h-.3a6,6,0,0,0-3,6.49c.69,3.78,2.54,7.25,4.41,10.48,3.43,12,10.16,22.82,17.19,32.89-.24,0-.3-.19-.36-.19-6.23-6.78-12.8-12.84-18.63-19.52a1.62,1.62,0,0,0-2.92.58c-.3,0-.67-.43-.93-.55a5.4,5.4,0,0,0-6.71-.26C.11,79.09,0,82.15,1.56,84.89A49,49,0,0,0,4.84,90.3a4.57,4.57,0,0,0-2.2,1c-2.5,1.73-3.68,6-1.47,8.32,7.56,8.72,16.66,16.55,25.07,24.55,8.84,8.36,18,16,27.43,23.5a2.91,2.91,0,0,0,.61.49,109,109,0,0,0,8.41,7.51,60.57,60.57,0,0,0,6,4.47c.93.84,1.91,1.39,2.84,2.11a20.67,20.67,0,0,1,2.28,1.37,4.68,4.68,0,0,1,.72.5,33.88,33.88,0,0,0,8.39,4c4.66,2.83,9.43,5.55,14.34,8.09a36.74,36.74,0,0,0,10,3.78c.25,1.4,1.74,2.74,2.9,3.4h2.13c.51,2.56,3.37,3.27,5.56,2.41a64.86,64.86,0,0,0-2.87,8.42c-.95,3.86,3.34,7.42,6.56,4.83a3.52,3.52,0,0,0,2.55-1.41c1.64-2.08,3.22-4.11,4.79-5.94.19-.13.23-.24.3-.24a4.25,4.25,0,0,0,2.44-1c4.53-4,8.24-8.92,12-13.53,3.75-4.84,7.63-9.44,11.38-14.3,7.44-9.63,14.52-19.8,21.1-30.29,13.47-20.12,26.27-40.88,36.44-62.8,3.49-7.94,8.74-16.58,8.13-25.37C220.48,41.45,218.15,39,215.47,40.21ZM47.53,32.88a1.89,1.89,0,0,0-1.4-.53c-1.85-2.31-3.75-4.55-5.55-6.79a57.14,57.14,0,0,0-4.42-5.47c-.13-.11-.13-.24-.26-.54a30.35,30.35,0,0,1,2.66,2.84c3.37,3.35,6.39,7.11,9.34,10.68C47.77,33.07,47.7,33.07,47.53,32.88ZM65.72,41.2c-2.47-3-5-6.31-7.45-9.1-.93-1.71-1.67-3.29-2.59-4.69-2.54-4.69-5.13-9.55-7.48-14.41a60.42,60.42,0,0,1,8.11,8.55c2.17,6,5.75,11.5,8.6,16.91.93,1.52,1.68,3.6,2.66,5.29C66.89,42.78,66.26,42,65.72,41.2Zm126.61,4.9c0-.49,0-1.22-.38-1.39,1.14-2.87,2.22-5.63,3.3-8.51.72-2.15,1.56-4.11,2.34-6.44a.32.32,0,0,1,.3-.31,23.51,23.51,0,0,1-1.07,3.62c-1.07,4.52-3,8.87-4.49,13.46C192.32,46.34,192.32,46.21,192.32,46.1ZM206.49,48c-3.94,4.9-7.08,10.6-10.33,16.1-1.09,1.53-2.17,3.13-3.09,4.73a23.42,23.42,0,0,1,1.14-2.87c1.5-3.61,2.94-7.34,4.27-10.9.89-1.6,1.81-3.13,2.59-4.59,2.83-4.6,5.67-9.32,8.64-13.79A70.27,70.27,0,0,1,206.49,48Z"/></g></g></svg>