<svg xmlns="http://www.w3.org/2000/svg" viewBox="0 0 141.25 200"><defs><style>.cls-1{fill:#fff;}</style></defs><title>Asset 241</title><g id="Layer_2" data-name="Layer 2"><g id="HKI_hearts"><path class="cls-1" d="M129.3,10A38.26,38.26,0,0,0,103,0,46,46,0,0,0,73.82,10.79l-3.18,2.7-3.2-2.7A45.91,45.91,0,0,0,38.24,0,38.26,38.26,0,0,0,12,10,36.53,36.53,0,0,0,12,64.1l51.94,48.4a9.86,9.86,0,0,0,1.78,1.3v30.65H37.9a4.93,4.93,0,1,0,0,9.85H65.69v19H37.9a4.93,4.93,0,0,0,0,9.85H65.69v11.9a4.93,4.93,0,0,0,9.85,0V113.82a10.12,10.12,0,0,0,1.8-1.3l52-48.42a36.56,36.56,0,0,0,0-54.08Z"/></g></g></svg>