<svg xmlns="http://www.w3.org/2000/svg" viewBox="0 0 309.87 200"><defs><style>.cls-1{fill:#fff;}</style></defs><title>Asset 249</title><g id="Layer_2" data-name="Layer 2"><g id="HKI_hearts"><path class="cls-1" d="M255,0c-21.35,0-35.7,12.06-47.48,27.42-4,5.84-4,5.84-8.45,0C187.31,12.07,173,0,151.61,0c-23.34,0-42.06,16.49-50.29,36.3h-47a12,12,0,0,0,0,24H173.2a12,12,0,0,1,0,24H12a12,12,0,1,0,0,24H213a12,12,0,1,1,0,24H91.7a12,12,0,1,0,0,24H159c10.57,11.68,22.76,24.84,36.8,39.77,5.15,5.47,9.57,5.47,15.07,0,77.66-81.13,99-110.73,99-137.78C309.87,30.34,286.68,0,255,0Z"/></g></g></svg>