<svg xmlns="http://www.w3.org/2000/svg" viewBox="0 0 199.99 200"><defs><style>.cls-1{fill:#fff;}</style></defs><title>Asset 225</title><g id="Layer_2" data-name="Layer 2"><g id="HKI_hearts"><path class="cls-1" d="M170.68,29.33A99.95,99.95,0,0,0,28.92,170.26l.85.85a99.8,99.8,0,0,0,140.45,0l.88-.88a99.83,99.83,0,0,0-.42-140.9ZM34.28,156.23A86.09,86.09,0,0,1,13.81,107.1c4.61,11.38,12,23.07,22.27,35.34,1.68,2,3.53,4.19,5.53,6.33Zm9.5,9.47L51,158.49c8.44,8.59,17.68,16.86,27.28,25.15A87.08,87.08,0,0,1,43.78,165.7Zm49,13.1A405,405,0,0,1,60.22,149l32.59-32.76Zm0-81.49L51.1,139.22c-20.32-22.43-29.8-41.88-29.8-61,0-15.55,4.54-26.7,13.5-33.14,7.22-5.19,15.74-6.28,21.61-6.28,15.37,0,31.08,17.54,36.25,23.31l.15.17Zm0-54.53c-13-11.79-25-17.53-36.4-17.53H56A85.28,85.28,0,0,1,92.81,13.7Zm14.4-29.08A83.63,83.63,0,0,1,144,25.47c-11.58-.15-24,5.74-36.75,17.44Zm0,48.56.15-.17C112.47,56.38,128,39,143.6,39c13.11,0,35.11,5.12,35.11,39.42,0,19.05-9.42,38.49-29.59,61L107.2,97.31Zm0,54,32.6,32.6a381.09,381.09,0,0,1-32.6,30Zm14.68,67.37c8.61-7.4,18.23-16,27.15-25.12l7.2,7.21A87.1,87.1,0,0,1,121.88,183.6Zm43.83-27.36-7.35-7.35,2.21-2.49c1.11-1.26,2.2-2.49,3.36-3.77,10.28-12.27,17.65-24,22.26-35.33A85.92,85.92,0,0,1,165.71,156.25Z"/></g></g></svg>