<svg xmlns="http://www.w3.org/2000/svg" viewBox="0 0 173.56 300"><defs><style>.cls-1{fill:#fff;}</style></defs><title>Asset 240</title><g id="Layer_2" data-name="Layer 2"><g id="HKI_hearts"><path class="cls-1" d="M82.62,172.64c-.2.2-.39.41-.59.64a3.83,3.83,0,0,0-.53-.64A44.83,44.83,0,0,0,18.1,236l64,64c26.06-26.06,58.45-58.47,64-64a44.83,44.83,0,1,0-63.39-63.4Z"/><path class="cls-1" d="M147.21,73.86c9.07,21.68,5.24,47.57-15.84,56.3-14.54,6-38.8-5.1-17.86-29.26,27.32-31.52-6.18-69.62-6.18-69.62s.2,53.73-25.75,41.88C65.06,61.31,70.2,26.22,78.78,0,55.58,16.9,42.61,61.06,51.94,83.77c18.89,34.54-4.6,52.52-20.55,44.32-19.23-13.62-6.45-32-4.67-45.58C5.17,99.95-9.2,131.94,6.87,172.42a48.16,48.16,0,0,1,75.2-14,48.19,48.19,0,0,1,66.32,1.7c.64.64,1.24,1.28,1.83,1.94a54.11,54.11,0,0,1,13.58-19.73C183.44,123.7,171.18,89.75,147.21,73.86Z"/></g></g></svg>