<svg xmlns="http://www.w3.org/2000/svg" viewBox="0 0 220.95 200"><defs><style>.cls-1{fill:#fff;}</style></defs><title>Asset 254</title><g id="Layer_2" data-name="Layer 2"><g id="HKI_hearts"><path class="cls-1" d="M37.05,107.07c-9-12.52-16.15-34.76-10.7-54C29.08,43.52,37.2,27.22,61,25.55A40.08,40.08,0,0,1,76.1,28.08l-7,8.52,38.53,1.08L99.2,0,92.08,8.65A62.17,62.17,0,0,0,60.46,1.06l-.65,0c-28.14,1.8-49.46,18.74-57,45.32-7.72,27.15,1.65,57.19,14.35,74.92.58.83,1.22,1.63,1.85,2.44l.65.83A11.6,11.6,0,0,0,20.9,126l17.57-17.07-.23-.31C37.83,108.09,37.42,107.58,37.05,107.07Z"/><path class="cls-1" d="M129.68,156.83c-6.66,5.14-13.08,10.08-18.93,15-5.64-4.42-10.42-7.91-14.81-11.11-6.78-5-12.64-9.24-19.93-15.56l-6.38-5.5-.38-.33L77,131.76,38.77,126.3l4.13,38.4,8.64-8.33,2.13,1.83q3.18,2.71,6.26,5.39c8.08,7,14.62,11.8,21.55,16.86,6.36,4.66,13,9.47,21.78,16.74a12.24,12.24,0,0,0,16.09-.42c7-6.4,15.87-13.27,25.28-20.54,8.61-6.65,17.51-13.51,26.56-21.2a10.65,10.65,0,0,0,1.17-1.22l-18.55-16.19C145.73,144.43,137.57,150.73,129.68,156.83Z"/><path class="cls-1" d="M219.64,83.27c4.12-26.86-1.51-49-16.27-63.87C195,10.91,180.24.88,157.36,1l-.75,0c-11.48.82-19.3,2.3-36.42,13.09l15.1,20c.17-.1,3.19-2.45,3.36-2.56,5.19-3.47,11.52-5.46,19.33-6.06,11.3.08,20.68,3.7,28,11.1,11.48,11.61,11.5,29.75,9.46,42.94a59.91,59.91,0,0,1-10.36,26.09l-7.49-8.42-7,38,38.53-2.57-7.48-8.41a10.41,10.41,0,0,0,.88-.93A84.83,84.83,0,0,0,219.64,83.27Z"/></g></g></svg>