<svg xmlns="http://www.w3.org/2000/svg" viewBox="0 0 165.24 200"><defs><style>.cls-1{fill:#fff;}</style></defs><title>Asset 267</title><g id="Layer_2" data-name="Layer 2"><g id="HKI_hearts"><path class="cls-1" d="M142.19,100.9a17.81,17.81,0,0,1-5.08,10.72c-1.18,1.28-2.43,2.51-3.72,3.67-5,4.54-10.19,8.82-14.08,14.47a2.79,2.79,0,0,1-.32-.3,71.62,71.62,0,0,0-9.62-10.1c-2.72-2.47-5.47-4.93-8-7.55a16.91,16.91,0,0,1-5-11.91,11.73,11.73,0,0,1,22.19-5.58l.77,1.46c.3-.57.54-1,.77-1.48a11.72,11.72,0,0,1,13.83-5.93A11.94,11.94,0,0,1,142.19,100.9ZM87.43,153.46l-1.13-.59a4.4,4.4,0,0,0-3-1.5H81.92a4.35,4.35,0,0,0-3,1.5l-1.13.59c-3.74,1.94-8.08,1-9.72-2.13s.09-7.23,3.83-9.19l.71-.37c.8-.22,3-2.14,4.91-4.28,0,0,1.1-1.24,5.08-1.24s5.08,1.24,5.08,1.24c1.89,2.14,4.11,4.06,4.91,4.28l.71.37c3.74,1.95,5.45,6.06,3.83,9.19S91.17,155.42,87.43,153.46ZM60.09,115.29c-5,4.54-10.19,8.82-14.08,14.47a3.11,3.11,0,0,1-.33-.3,71.44,71.44,0,0,0-9.62-10.1c-2.72-2.47-5.47-4.93-8-7.55a16.91,16.91,0,0,1-5-11.91,11.73,11.73,0,0,1,22.19-5.58L46,95.78c.3-.57.54-1,.77-1.48a11.72,11.72,0,0,1,13.83-5.93,11.93,11.93,0,0,1,8.31,12.52,17.83,17.83,0,0,1-5.08,10.72C62.62,112.89,61.37,114.12,60.09,115.29Zm103.37,7.53c-3.26-4.69-4.6-13-3-18.49a85.31,85.31,0,0,0,3-21.39C163.52,37.13,127.31,0,82.63,0S1.73,37.14,1.73,83a85.31,85.31,0,0,0,3,21.39c1.62,5.48.28,13.8-3,18.49,0,0-1.79,2.57-1.79,9.65,0,14.41,12.19,26.09,27.23,26.09h.82c.89-.07,4,3.89,7,8.8l9.88,16.48c0,.12,0,.22,0,.33v4.35a3.72,3.72,0,0,0,3.69,3.83,3.59,3.59,0,0,0,3-1.6v3c0,2.11,2,3.82,4.51,3.82s4.5-1.71,4.5-3.86v1.37c0,2.11,2.29,3.83,5.11,3.83,2.41,0,4.43-1.25,5-3v0l0,.89h.14c.6,1.79,3,3.13,5.94,3.13s5.2-1.26,5.88-3c.68,1.74,3.06,3,5.88,3s5.33-1.33,5.95-3.13h.16V196c.54,1.67,2.55,2.93,5,2.93,2.82,0,5.11-1.72,5.11-3.86v-1.3c0,2.11,2,3.82,4.51,3.82s4.5-1.71,4.5-3.86v-2.83h.08a3.6,3.6,0,0,0,2.92,1.5,3.73,3.73,0,0,0,3.69-3.86v-4.35c0-.1,0-.19,0-.29l9.88-16.48c2.94-4.91,6.07-8.86,7-8.8H138c15,0,27.23-11.68,27.23-26.09C165.25,125.41,163.46,122.82,163.46,122.82Z"/></g></g></svg>