<svg xmlns="http://www.w3.org/2000/svg" viewBox="0 0 116.18 200"><defs><style>.cls-1{fill:#fff;}</style></defs><title>Asset 233</title><g id="Layer_2" data-name="Layer 2"><g id="HKI_hearts"><path class="cls-1" d="M73.9,200a42.33,42.33,0,0,0,42.28-42.28V117.34a6.4,6.4,0,0,0-6.42-6.43,6.44,6.44,0,0,0-6.43,6.43v5.61l-21,21a6.45,6.45,0,0,0,0,9.1,6.41,6.41,0,0,0,9.08,0l11.9-11.9v16.58a29.42,29.42,0,0,1-58.85,0v-97l1.67-.42c8.16-2,15.84-7.21,21.65-14.58,5.19-6.6,8.3-14.29,8.3-20.58A25.13,25.13,0,0,0,39.08,3l-1,.56L37,3A25.13,25.13,0,0,0,0,25.13c0,6.7,3,14.55,7.93,21a38.5,38.5,0,0,0,22,14.27l1.73.38v96.93A42.33,42.33,0,0,0,73.9,200ZM19.21,39.47c-4.38-5.1-6.34-10.88-6.34-14.35a12.27,12.27,0,0,1,20.74-8.88,6.41,6.41,0,0,0,8.88,0,12.27,12.27,0,0,1,20.75,8.88c0,3.94-2.76,9.68-6.87,14.3-5.17,5.81-11.67,9-18.32,9A24.45,24.45,0,0,1,19.21,39.47Z"/></g></g></svg>