<svg xmlns="http://www.w3.org/2000/svg" viewBox="0 0 196.15 200"><defs><style>.cls-1{fill:#fff;}</style></defs><title>Asset 238</title><g id="Layer_2" data-name="Layer 2"><g id="HKI_hearts"><path class="cls-1" d="M195.15,88.3a51.47,51.47,0,0,1-3.54-18.67v-.09a52.41,52.41,0,0,1,4-19.85,7.21,7.21,0,0,0-2.79-8.83l-.13-.12a51.47,51.47,0,0,1-13.36-15.2l0-.08a52.15,52.15,0,0,1-6.43-18.78A7.2,7.2,0,0,0,167.54.31l-.13,0c-.31-.07-.62-.12-.94-.16L165.89,0c-.08,0-.15,0-.24,0a3.43,3.43,0,0,0-.41,0,5.83,5.83,0,0,0-.86.09l-.4.09a6.17,6.17,0,0,0-1,.31s0,0-.06,0a51.58,51.58,0,0,1-19.85,4H143A52,52,0,0,1,123.82.81,7.16,7.16,0,0,0,120.71,0c-.12,0-.22,0-.34,0l-.18,0-.23,0a7.2,7.2,0,0,0-6.8,7.18,3.71,3.71,0,0,0,0,.4A51.17,51.17,0,0,1,107,25.44l0,.08a52.38,52.38,0,0,1-8.85,11.26,51.84,51.84,0,0,1-8.85-11.26l0-.08A51.94,51.94,0,0,1,82.68,6.27a7,7,0,0,0-.91-2.67A7.11,7.11,0,0,0,76.87.16a.26.26,0,0,0-.11,0A10.47,10.47,0,0,0,75.63,0c-.09,0-.16,0-.25,0s-.29,0-.46,0l-.49,0a7.25,7.25,0,0,0-1.81.46,51.57,51.57,0,0,1-19.85,4h-.09A52.41,52.41,0,0,1,32.84.56,7.26,7.26,0,0,0,31.05.1L30.54,0a4.26,4.26,0,0,0-.46,0c-.09,0-.16,0-.25,0a8.53,8.53,0,0,0-1,.1l-.22,0a7.15,7.15,0,0,0-5.74,6.09,51.48,51.48,0,0,1-6.49,19.17l0,.08A51.94,51.94,0,0,1,2.93,40.71a7,7,0,0,0-1.86,2.13A6.81,6.81,0,0,0,.29,45,6.83,6.83,0,0,0,0,46.91a7,7,0,0,0,.5,2.62,54.53,54.53,0,0,1,3.79,20v.09A55.29,55.29,0,0,1,.91,88.39,7.12,7.12,0,0,0,0,91.88c0,.1,0,.21,0,.32a7.21,7.21,0,0,0,5.81,7.08,54.2,54.2,0,0,1,14.34,11.28l.06.08A55.21,55.21,0,0,1,30.79,128a7.47,7.47,0,0,0,.38.78c.06.12.11.25.18.37a6.64,6.64,0,0,0,.68.93c.06.06.1.15.16.21a7.73,7.73,0,0,0,1.06,1l.31.19a8.53,8.53,0,0,0,.77.47A54.19,54.19,0,0,1,50.5,144.24l.06.06a55.17,55.17,0,0,1,10.56,17.38,6.5,6.5,0,0,0,.37.77,4.08,4.08,0,0,0,.17.37,8.55,8.55,0,0,0,.69,1c.06.06.09.13.15.19a8.46,8.46,0,0,0,1,.94c.12.09.25.16.37.23a6.93,6.93,0,0,0,.71.44,54.43,54.43,0,0,1,16.18,12.31l.06.06a54.91,54.91,0,0,1,10,16.19,7.3,7.3,0,0,0,2.22,4,7.17,7.17,0,0,0,4.5,1.82l.34,0,.68,0a7.13,7.13,0,0,0,4.35-1.82,7.24,7.24,0,0,0,2.25-4.11,51.51,51.51,0,0,1,9.85-16.22l.06-.06a51.93,51.93,0,0,1,16.24-12.09,7.56,7.56,0,0,0,1-.63l.14-.08a6.27,6.27,0,0,0,1.08-1,8.16,8.16,0,0,0,.85-1.17,3.77,3.77,0,0,0,.24-.5c.12-.25.25-.49.35-.74a51.41,51.41,0,0,1,10.34-17.4l.06-.06A51.91,51.91,0,0,1,161.73,132a7.32,7.32,0,0,0,2.26-1.69s.07-.11.12-.16a6.91,6.91,0,0,0,1.33-2.26,51.27,51.27,0,0,1,10.34-17.4l.06-.08A51.84,51.84,0,0,1,190.26,99.3a7.2,7.2,0,0,0,5.88-7.08c0-.11,0-.19,0-.29A7.39,7.39,0,0,0,195.15,88.3Z"/></g></g></svg>