<svg xmlns="http://www.w3.org/2000/svg" viewBox="0 0 251.19 200"><defs><style>.cls-1{fill:#fff;}</style></defs><title>Asset 253</title><g id="Layer_2" data-name="Layer 2"><g id="HKI_hearts"><path class="cls-1" d="M251.19,58.93V35.24H235.41V23.67h14l1.75,0V0L0,0V23.74H14.8V35.3H0V59H14.8V70.56H0V94.24H14.8v11.57H0V129.5H14.8v11.57H0v23.68H14.8v11.57H0V200H218.86l32.33,0V176.26H235.41V164.7h15.78V141H235.41V129.44h15.78V105.75H235.41V94.18h15.78V70.49H235.41V58.93ZM30.58,182.35v11.54H6.08V182.35ZM6.08,17.66V6.13H30.59V17.66Zm122.64,0V6.13H153V17.66h-9.51ZM112.94,23.7l24.31,0V35.24H112.94Zm9.52-17.62V17.62H98.14V6.08Zm122.64,0V17.62H220.58V6.08Zm0,35.24V52.86H220.58V41.36Zm0,35.24V88.1H220.58V76.6Zm0,35.26v11.54H220.58V111.85Zm0,35.24V158.6H220.58V147.08Zm-15.77,17.66v11.51l-24.57,0V164.73Zm-15.07,17.62v11.54H189.94V182.35Zm-46.43-17.62v11.51l-24.32,0V164.73Zm6.34-141,24.3,0V35.24h-24.3Zm30.58,46.82V59h24.57V70.49Zm0,35.25V94.24h24.57v11.52Zm0,35.23V129.47h24.57V141Zm-30.59,0V129.44l24.3,0V141Zm15.78,17.62V147.09h24.3v11.54h-9.51Zm24.32-46.74V123.4h-9.51l-14.81,0V111.86Zm-24.32-59V41.36h24.32V52.89h-9.51Zm-6.28,94.21V158.6h-24.3V147.08Zm-9.49,17.62,24.3,0v11.51h-24.3ZM229.32,35.25l-24.57,0V23.74h24.57ZM190,17.63V6.13h24.3V17.66h-9.51ZM183.68,6.08V17.62H159.36V6.08ZM153,182.35v11.54H128.72V182.35Zm-30.6,0v11.54H98.14V182.35Zm-30.64,0v11.54H67.5V182.35Zm-30.58,0v11.54H36.92V182.35ZM36.92,17.62V6.08h24.3V17.62ZM51.73,35.24V23.7l24.3,0V35.24ZM91.8,147.1v11.54H82.29l-14.8,0V147.1ZM20.86,105.78V94.24h24.5v11.51Zm30.85,23.68,24.32,0V141H51.71ZM36.92,111.83l24.3,0v11.54H36.92Zm24.3-70.51V52.86H36.92V41.36ZM36.92,147.09l24.3,0v11.54H36.92ZM45.36,35.25l-24.5,0V23.74h24.5Zm0,23.74V70.49l-24.51,0V59Zm0,70.48V141l-24.51,0V129.47Zm6.34,35.21,24.3,0v11.52H51.71ZM67.5,17.63V6.13H91.8V17.66H82.29ZM30.58,41.37V52.91H6.08V41.37Zm0,35.24V88.15H6.08V76.61Zm0,35.24v11.54H6.08V111.85Zm0,35.25v11.54H6.08V147.1Zm-9.73,29.16V164.73h24.5v11.51Zm61.43,0V164.73h24.3v11.51Zm77.07,6.08,24.3,0v11.54h-24.3Zm61.22,0,24.51,0v11.54H220.58Z"/></g></g></svg>