<?xml version="1.0" encoding="UTF-8"?>
<svg xmlns="http://www.w3.org/2000/svg" xmlns:xlink="http://www.w3.org/1999/xlink" width="141.732pt" height="141.732pt" fill="#ffffff" viewBox="0 0 141.732 141.732" version="1.1">
<g id="surface1">
<path style=" stroke:none;fill-rule:nonzero;fill-opacity:1;" d="M 69.914062 56.324219 L 77.503906 56.324219 C 77.503906 50.046875 82.605469 44.941406 88.882812 44.9375 L 88.882812 37.351562 C 83.8125 37.351562 79.050781 39.324219 75.46875 42.910156 C 71.886719 46.492188 69.914062 51.257812 69.914062 56.324219 "/>
<path style=" stroke:none;fill-rule:nonzero;fill-opacity:1;" d="M 62.257812 42.214844 C 73.785156 38.386719 80.035156 33.859375 80.035156 20.910156 L 72.445312 20.910156 C 72.445312 28.480469 70.710938 31.414062 59.867188 35.011719 C 48.335938 38.839844 42.089844 43.371094 42.089844 56.320312 L 49.679688 56.320312 C 49.679688 48.75 51.414062 45.816406 62.257812 42.214844 "/>
<path style=" stroke:none;fill-rule:nonzero;fill-opacity:1;" d="M 97.738281 68.464844 C 94.253906 68.464844 91.125 69.371094 88.410156 71.09375 L 89.515625 63.921875 L 30.078125 63.921875 L 38.835938 120.824219 L 80.757812 120.824219 L 81.25 117.628906 C 82.296875 111.113281 87.886719 108.097656 94.355469 104.605469 C 102.0625 100.445312 111.652344 95.269531 111.652344 82.371094 C 111.652344 74.703125 105.410156 68.464844 97.738281 68.464844 M 38.925781 71.511719 L 80.667969 71.511719 L 77.648438 91.148438 C 77.648438 91.152344 77.644531 91.15625 77.644531 91.160156 L 74.25 113.234375 L 45.347656 113.234375 Z M 90.75 97.925781 C 88.394531 99.199219 85.9375 100.527344 83.640625 102.09375 L 85.148438 92.308594 C 87.203125 78.871094 93.128906 76.050781 97.738281 76.050781 C 101.226562 76.050781 104.0625 78.886719 104.0625 82.371094 C 104.0625 90.335938 99.003906 93.46875 90.75 97.925781 "/>
</g>
</svg>
