<?xml version="1.0" encoding="UTF-8"?>
<svg width="85px" height="66px" viewBox="0 0 85 66" version="1.1" xmlns="http://www.w3.org/2000/svg" xmlns:xlink="http://www.w3.org/1999/xlink">
    <!-- Generator: Sketch 42 (36781) - http://www.bohemiancoding.com/sketch -->
    <title>placeholder_workstudy</title>
    <desc>Created with Sketch.</desc>
    <defs></defs>
    <g id="components" stroke="none" stroke-width="1" fill="none" fill-rule="evenodd" stroke-linecap="round" stroke-linejoin="round">
        <g id="mobile" transform="translate(-1620.000000, -3343.000000)" stroke="#FFFFFF" stroke-width="3">
            <g id="placeholder_workstudy" transform="translate(1622.000000, 3344.000000)">
                <path d="M31.6969697,47.9909091 C31.6969697,56.2727764 24.9400152,62.9875 16.6060606,62.9875 C8.27210606,62.9875 1.51515152,56.2727764 1.51515152,47.9909091 C1.51515152,39.7090418 8.27210606,32.9943182 16.6060606,32.9943182 C24.9400152,32.9943182 31.6969697,39.7090418 31.6969697,47.9909091 Z" id="Stroke-1"></path>
                <path d="M79.4848485,47.9909091 C79.4848485,56.2727764 72.7278939,62.9875 64.3939394,62.9875 C56.0599848,62.9875 49.3030303,56.2727764 49.3030303,47.9909091 C49.3030303,39.7090418 56.0599848,32.9943182 64.3939394,32.9943182 C72.7278939,32.9943182 79.4848485,39.7090418 79.4848485,47.9909091 Z" id="Stroke-3"></path>
                <path d="M31.6969697,47.9909091 C31.6969697,43.1595074 35.6382121,39.2428977 40.5,39.2428977 C45.3617879,39.2428977 49.3030303,43.1595074 49.3030303,47.9909091" id="Stroke-5"></path>
                <path d="M0,42.9920455 L13.3567121,9.31430578 C15.6555606,4.04004256 20.1098939,0.749662673 24.9578485,0.749662673" id="Stroke-7"></path>
                <path d="M56.0425288,0.749662673 C60.8892258,0.749662673 65.3435591,4.04004256 67.6436652,9.31430578 L81.0003773,42.9920455" id="Stroke-9"></path>
            </g>
        </g>
    </g>
</svg>