<svg version="1.0" xmlns="http://www.w3.org/2000/svg"
 width="424.000000pt" height="445.000000pt" viewBox="0 0 424.000000 445.000000"
 preserveAspectRatio="xMidYMid meet">
<metadata></metadata>
<g transform="translate(0.000000,445.000000) scale(0.100000,-0.100000)"
fill="#ffffff" stroke="none">
<path d="M3436 4402 c-10 -79 -49 -140 -175 -274 -128 -137 -176 -206 -212
-308 -21 -57 -24 -83 -24 -220 1 -143 3 -160 26 -222 42 -109 87 -173 213
-306 125 -132 161 -189 172 -274 l7 -48 163 0 164 0 0 28 c-1 62 -30 187 -59
247 -44 94 -82 146 -202 271 -60 62 -117 131 -129 154 -45 89 -47 206 -3 297
9 20 69 93 133 162 192 208 234 287 256 484 l6 57 -165 0 -164 0 -7 -48z"/>
<path d="M1057 2562 c-581 -581 -1057 -1061 -1057 -1067 0 -5 51 -60 112 -122
l113 -113 152 152 153 153 0 -783 0 -782 1590 0 1590 0 0 782 0 783 153 -153
152 -152 113 113 c61 62 112 117 112 122 0 10 -2110 2125 -2120 2125 -3 0
-481 -476 -1063 -1058z m1700 -44 l633 -633 0 -782 0 -783 -315 0 -315 0 0
690 0 690 -640 0 -640 0 0 -690 0 -690 -315 0 -315 0 0 782 0 783 632 632
c348 348 635 633 638 633 3 0 290 -285 637 -632z m-327 -1673 l0 -525 -310 0
-310 0 0 525 0 525 310 0 310 0 0 -525z"/>
</g>
</svg>
