<?xml version="1.0" encoding="UTF-8"?>
<svg width="57px" height="42px" viewBox="0 0 57 42" version="1.1" xmlns="http://www.w3.org/2000/svg" xmlns:xlink="http://www.w3.org/1999/xlink">
    <!-- Generator: Sketch 42 (36781) - http://www.bohemiancoding.com/sketch -->
    <title>placeholder_news</title>
    <desc>Created with Sketch.</desc>
    <defs></defs>
    <g id="components" stroke="none" stroke-width="1" fill="none" fill-rule="evenodd">
        <g id="mobile" transform="translate(-2000.000000, -3320.000000)" stroke="#FFFFFF" stroke-width="3">
            <g id="placeholder_news" transform="translate(2002.000000, 3322.000000)">
                <path d="M0,11.7484878 C1.41994963e-29,12.2953171 0.204,12.7578049 0.612,13.1350244 C1.02,13.5131707 1.541,13.7022439 2.176,13.7022439 L15.893,13.7022439 C16.48,13.7022439 16.98,13.5131707 17.389,13.1350244 C17.797,12.7578049 18,12.2953171 18,11.7484878 L18,2.01678049 C18,1.42917073 17.797,0.946292683 17.389,0.568146341 C16.98,0.189073171 16.48,0 15.893,0 L2.176,5.20255925e-13 C1.541,5.20255925e-13 1.02,0.189073171 0.612,0.568146341 C0.204,0.946292683 7.10542736e-14,1.42917073 7.10542736e-14,2.01678049 L0,11.7484878 Z" id="Fill-1"></path>
                <path d="M0,23.1707317 C6.499,23.1707317 6.499,26.8780488 12.999,26.8780488 C19.496,26.8780488 19.496,23.1707317 25.993,23.1707317 C32.495,23.1707317 32.495,26.8780488 38.996,26.8780488 C45.498,26.8780488 45.498,23.1707317 52,23.1707317" id="Stroke-3" stroke-linecap="round"></path>
                <path d="M0.4999,33.8292683 C6.9989,33.8292683 6.9989,37.5365854 13.4989,37.5365854 C19.9959,37.5365854 19.9959,33.8292683 26.4929,33.8292683 C32.9949,33.8292683 32.9949,37.5365854 39.4959,37.5365854 C45.9979,37.5365854 45.9979,33.8292683 52.4999,33.8292683" id="Stroke-5" stroke-linecap="round"></path>
                <path d="M27,1.85365854 C33.499,1.85365854 33.499,5.56097561 39.999,5.56097561 C46.496,5.56097561 46.496,1.85365854 52.993,1.85365854" id="Stroke-3" stroke-linecap="round"></path>
                <path d="M27,12.5121951 C33.499,12.5121951 33.499,16.2195122 39.999,16.2195122 C46.496,16.2195122 46.496,12.5121951 52.993,12.5121951" id="Stroke-3" stroke-linecap="round"></path>
            </g>
        </g>
    </g>
</svg>