<svg version="1.0" xmlns="http://www.w3.org/2000/svg"
 width="472.000000pt" height="299.000000pt" viewBox="0 0 472.000000 299.000000"
 preserveAspectRatio="xMidYMid meet">
<metadata></metadata>
<g transform="translate(0.000000,299.000000) scale(0.100000,-0.100000)"
fill="#ffffff" stroke="none">
<path d="M874 2980 c-366 -73 -657 -346 -756 -710 -32 -120 -32 -366 0 -484
28 -102 78 -216 127 -291 55 -85 314 -341 630 -622 333 -296 533 -500 695
-707 69 -88 130 -161 135 -163 6 -2 71 74 145 169 91 117 194 232 317 355 100
101 187 183 193 183 6 0 93 -82 193 -183 123 -123 226 -238 317 -355 74 -95
139 -171 145 -169 5 2 66 75 135 163 162 207 362 411 695 707 316 281 575 537
630 622 49 75 99 189 127 291 32 117 32 363 0 484 -96 357 -381 628 -742 706
-88 19 -298 18 -400 -2 -143 -27 -295 -98 -392 -183 -25 -23 -49 -41 -52 -41
-3 0 -38 25 -78 56 -85 66 -203 124 -313 156 -71 20 -102 23 -265 23 -163 0
-194 -3 -265 -23 -110 -32 -228 -90 -313 -156 -40 -31 -75 -56 -78 -56 -3 0
-27 18 -52 41 -97 85 -249 156 -392 183 -88 17 -313 20 -386 6z m286 -321
c216 -34 396 -151 506 -329 20 -33 40 -60 43 -60 3 0 19 24 35 53 16 28 68 91
116 138 70 70 103 95 171 127 119 57 203 76 329 76 197 0 365 -79 492 -231
162 -194 191 -458 77 -693 -37 -76 -56 -100 -188 -230 -80 -80 -265 -252 -411
-382 -287 -257 -411 -374 -538 -511 l-82 -88 -197 199 c-109 110 -319 307
-468 439 -457 407 -533 489 -593 651 -30 82 -42 252 -22 341 73 334 394 554
730 500z m2627 -5 c252 -52 448 -245 503 -495 20 -89 8 -259 -22 -341 -60
-162 -136 -244 -593 -651 -148 -132 -359 -329 -468 -439 l-197 -199 -82 88
c-45 48 -135 140 -201 203 l-119 115 113 100 c205 182 394 375 447 457 181
281 209 628 74 932 l-26 59 49 44 c59 53 169 107 245 122 30 6 64 13 75 15 46
9 131 5 202 -10z"/>
</g>
</svg>
