<?xml version="1.0" encoding="UTF-8" standalone="no"?>
<svg
   xmlns:dc="http://purl.org/dc/elements/1.1/"
   xmlns:cc="http://creativecommons.org/ns#"
   xmlns:rdf="http://www.w3.org/1999/02/22-rdf-syntax-ns#"
   xmlns:svg="http://www.w3.org/2000/svg"
   xmlns="http://www.w3.org/2000/svg"
   id="svg5225"
   version="1.1"
   viewBox="0 0 95 67"
   height="67px"
   width="95px">
  <metadata
     id="metadata5229">
    <rdf:RDF>
      <cc:Work
         rdf:about="">
        <dc:format>image/svg+xml</dc:format>
        <dc:type
           rdf:resource="http://purl.org/dc/dcmitype/StillImage" />
        <dc:title>placeholder_eatdrink</dc:title>
      </cc:Work>
    </rdf:RDF>
  </metadata>
  <!-- Generator: Sketch 42 (36781) - http://www.bohemiancoding.com/sketch -->
  <title
     id="title5210">placeholder_eatdrink</title>
  <desc
     id="desc5212">Created with Sketch.</desc>
  <defs
     id="defs5214" />
  <g
     style="fill:none;fill-rule:evenodd;stroke:none;stroke-width:1"
     transform="matrix(-1,0,0,1,94.9535,0)"
     id="components">
    <g
       transform="translate(-1445,-3340)"
       id="mobile">
      <g
         transform="translate(1446,3339)"
         id="placeholder_eatdrink">
        <g
           style="fill:#fefefe"
           transform="translate(11,0.0234)"
           id="Group-3">
          <path
             id="Fill-1"
             d="m 33.5671,0.9764 c -18.232,0 -33.012,14.78 -33.012,33.012 0,18.232 14.78,33.011 33.012,33.011 18.231,0 33.012,-14.779 33.012,-33.011 0,-18.232 -14.781,-33.012 -33.012,-33.012 m 0,3 c 16.548,0 30.012,13.463 30.012,30.012 0,16.549 -13.464,30.011 -30.012,30.011 -16.549,0 -30.012,-13.462 -30.012,-30.011 0,-16.549 13.463,-30.012 30.012,-30.012" />
        </g>
        <path
           style="fill:#fefefe"
           id="Fill-4"
           d="m 44.5671,7.4754 c -14.655,0 -26.536,11.881 -26.536,26.536 0,14.656 11.881,26.536 26.536,26.536 14.655,0 26.536,-11.88 26.536,-26.536 0,-14.655 -11.881,-26.536 -26.536,-26.536 m 0,3 c 12.978,0 23.536,10.559 23.536,23.536 0,12.978 -10.558,23.536 -23.536,23.536 -12.978,0 -23.536,-10.558 -23.536,-23.536 0,-12.977 10.558,-23.536 23.536,-23.536" />
        <path
           style="stroke:#fefefe;stroke-width:3"
           id="Stroke-6"
           d="m 87.1989,2.7196 v 56.777" />
        <path
           style="stroke:#fefefe;stroke-width:3"
           id="Stroke-8"
           d="m 92.4538,2.7196 v 13.716 c 0,2.902 -2.354,5.255 -5.255,5.255 -2.902,0 -5.255,-2.353 -5.255,-5.255 V 2.7196" />
        <path
           style="stroke:#fefefe;stroke-width:3"
           id="Stroke-10"
           d="m 0.4997,27.6912 v 0 c 2.902,0 5.255,-2.353 5.255,-5.255 V 7.9742 c 0,-2.902 -2.353,-5.255 -5.255,-5.255 v 56.778" />
      </g>
    </g>
  </g>
</svg>
