<?xml version="1.0" encoding="UTF-8"?>
<svg xmlns="http://www.w3.org/2000/svg" xmlns:xlink="http://www.w3.org/1999/xlink" width="141.732pt" height="141.732pt" viewBox="0 0 141.732 141.732" fill="#ffffff" version="1.1">
<g id="surface1">
<path style=" stroke:none;fill-rule:nonzero;fill-opacity:1;" d="M 74.660156 89.179688 C 88.28125 87.5 98.808594 76.921875 98.808594 64.160156 C 98.808594 56.988281 97.21875 50.617188 95.679688 44.460938 C 94.183594 38.484375 92.773438 32.839844 92.773438 26.597656 L 92.773438 22.800781 L 48.960938 22.800781 L 48.960938 26.597656 C 48.960938 32.839844 47.550781 38.484375 46.054688 44.460938 C 44.515625 50.617188 42.921875 56.988281 42.921875 64.160156 C 42.921875 76.921875 53.453125 87.5 67.070312 89.179688 L 67.070312 111.34375 L 46.738281 111.339844 L 46.738281 118.929688 L 94.992188 118.929688 L 94.992188 111.339844 L 74.660156 111.34375 Z M 56.402344 30.390625 L 85.328125 30.390625 C 85.753906 36.054688 87.054688 41.25 88.316406 46.300781 C 88.875 48.535156 89.421875 50.71875 89.886719 52.910156 C 88.761719 53.21875 87.824219 53.605469 86.984375 53.953125 C 85.535156 54.554688 84.488281 54.988281 82.636719 54.988281 C 80.78125 54.988281 79.734375 54.554688 78.285156 53.953125 C 76.523438 53.222656 74.328125 52.316406 70.867188 52.316406 C 67.402344 52.316406 65.210938 53.226562 63.449219 53.953125 C 61.996094 54.554688 60.949219 54.988281 59.097656 54.988281 C 57.246094 54.988281 56.195312 54.554688 54.746094 53.953125 C 53.910156 53.605469 52.96875 53.21875 51.847656 52.910156 C 52.3125 50.71875 52.859375 48.535156 53.417969 46.300781 C 54.679688 41.25 55.976562 36.054688 56.402344 30.390625 M 50.511719 64.160156 C 50.511719 62.917969 50.570312 61.699219 50.671875 60.5 C 51.046875 60.640625 51.429688 60.792969 51.839844 60.964844 C 53.574219 61.683594 55.734375 62.578125 59.097656 62.578125 C 62.460938 62.578125 64.617188 61.683594 66.351562 60.964844 C 67.839844 60.351562 68.914062 59.90625 70.867188 59.90625 C 72.820312 59.90625 73.894531 60.351562 75.378906 60.964844 C 77.113281 61.683594 79.273438 62.578125 82.636719 62.578125 C 85.996094 62.578125 88.15625 61.683594 89.890625 60.964844 C 90.304688 60.792969 90.683594 60.640625 91.0625 60.5 C 91.164062 61.703125 91.222656 62.917969 91.222656 64.160156 C 91.222656 73.902344 82.089844 81.832031 70.867188 81.832031 C 59.640625 81.832031 50.511719 73.902344 50.511719 64.160156 "/>
</g>
</svg>
