<svg xmlns="http://www.w3.org/2000/svg" viewBox="0 0 201.2 200"><title>Asset 8</title><g id="Layer_2" data-name="Layer 2"><g id="HKI_hearts"><path d="M149.47,60.28a7.63,7.63,0,0,0-2.25-5.59,7.75,7.75,0,0,0-5.71-2.27,7,7,0,0,0-5.07,2.3L17,176.65a7.76,7.76,0,0,0-2.27,5.71,7,7,0,0,0,2.27,5,7.51,7.51,0,0,0,10.79,0L146.87,65.8A7.61,7.61,0,0,0,149.47,60.28Z"/><path d="M157.51,0a7.65,7.65,0,0,0,0,15.3h18L165.44,25.69a7.5,7.5,0,0,0,0,10.75,7.67,7.67,0,0,0,10.79,0l9.66-10V44.61a7.65,7.65,0,1,0,15.3,0V0Z"/><path d="M125.7,24.95A54.57,54.57,0,0,0,91,37.31,55.42,55.42,0,0,0,56.39,24.95,54.45,54.45,0,0,0,16.29,42.42c-21.72,22.93-21.72,60.24,0,83.17L34,144.24a7.61,7.61,0,0,0,11.07-10.45L27.6,115c-16.27-17.13-16.27-45,0-62.13a39.68,39.68,0,0,1,58,.06,7.91,7.91,0,0,0,11-.06,39.68,39.68,0,0,1,58,0c16.27,17.13,16.27,45,0,62.12L91.27,181.71,70.48,159.89a7.61,7.61,0,0,0-11,10.48L85.67,198l.22.22v1.58h2.52a4.39,4.39,0,0,0,1.46.23h2.07a3.51,3.51,0,0,0,1.29-.25,4.17,4.17,0,0,0,2.42-1.27l69.9-73.34c21.72-22.93,21.72-60.24,0-83.21A55.46,55.46,0,0,0,125.7,24.95Z"/></g></g></svg>