<svg xmlns="http://www.w3.org/2000/svg" viewBox="0 0 247.33 200"><title>Asset 38</title><g id="Layer_2" data-name="Layer 2"><g id="HKI_hearts"><path d="M170.67,0a77.54,77.54,0,0,0-47,16.13A76.64,76.64,0,0,0,0,76.67a8.3,8.3,0,0,0,2.5,5.88L118,198a9.62,9.62,0,0,0,5.71,2,8.31,8.31,0,0,0,5.88-2.5l115.28-115a8.3,8.3,0,0,0,2.5-5.88A76.75,76.75,0,0,0,170.67,0Zm59.87,73L123.67,179.86,16.8,73a60.15,60.15,0,0,1,101-40.5A7.14,7.14,0,0,0,123,34.67l.4,0a7.14,7.14,0,0,0,6.45-2.11A59.9,59.9,0,0,1,230.54,73Z"/></g></g></svg>