<svg xmlns="http://www.w3.org/2000/svg" viewBox="0 0 211.66 200"><title>Asset 49</title><g id="Layer_2" data-name="Layer 2"><g id="HKI_hearts"><path d="M181.53,145.32,166,150.91,110.81,94.29,167.68,36a12.11,12.11,0,0,0,2.43,4.62,13.7,13.7,0,0,0,11.18,5.59,15,15,0,0,0,11.18-5.1c9.48-9.72,4.37-34,3.65-36.7l-.49-2.43-2.43-.49a102.79,102.79,0,0,0-16-1.46c-9.72,0-16.77,1.94-20.66,6.08-4.62,4.86-6.08,10.94-3.65,16.52a14.07,14.07,0,0,0,9.48,8.26L105.71,89.19,49.09,31.11a15.27,15.27,0,0,0,9.48-8.26c2.43-5.59,1-11.66-3.65-16.52C51,2.19,44,.24,34.26.24a102.79,102.79,0,0,0-16,1.46l-2.43.49-.49,2.43C14.58,7.29,9.72,31.83,19,41.31a15,15,0,0,0,11.18,5.1h0a13.7,13.7,0,0,0,11.18-5.59,12.11,12.11,0,0,0,2.43-4.62l56.87,58.32L45.44,150.91l-15.55-5.59L0,175.46,18,182l6.56,18,30.13-30.13L49.82,157l55.89-57.35L161.6,157,157,169.87,187.12,200l6.56-18,18-6.56ZM159.66,19.93c-1.22-2.92-.49-5.83,2.19-8.51,2.43-2.43,8-3.89,15.55-3.89a74,74,0,0,1,12.15,1c1.7,9.23,2.43,23.09-2.19,27.7-1.94,1.94-3.89,2.92-6.08,2.92a7.27,7.27,0,0,1-5.59-2.67,8.79,8.79,0,0,1-1.22-7.53l1.94-6.8-6.56,2.19h-.49C165.25,25.27,161.12,23.33,159.66,19.93ZM35.72,36.21a7.27,7.27,0,0,1-5.59,2.67c-2.19,0-4.13-1-6.08-2.92-4.62-4.62-3.89-18.47-2.19-27.7A74,74,0,0,1,34,7.29c7.53,0,13.12,1.46,15.55,3.89,2.67,2.67,3.4,5.83,2.19,8.51a7.87,7.87,0,0,1-7.29,4.62,10.33,10.33,0,0,1-2.67-.49L35,21.63l1.94,6.56v.24C37.67,31.59,37.18,34.26,35.72,36.21Z"/></g></g></svg>