<svg xmlns="http://www.w3.org/2000/svg" viewBox="0 0 200.02 200"><title>Asset 39</title><g id="Layer_2" data-name="Layer 2"><g id="HKI_hearts"><path d="M172.93,0a27.14,27.14,0,0,0-27.09,27.09,5.55,5.55,0,0,0,11.1,0,16,16,0,0,1,32,0v91.82a27.71,27.71,0,0,0-35.24,1.54,27.77,27.77,0,0,0-45.2,12.76h-17a27.77,27.77,0,0,0-45.2-12.76A27.71,27.71,0,0,0,11,118.91V27.09a16,16,0,0,1,32,0,5.55,5.55,0,0,0,11.1,0,27,27,0,1,0-54.1,0V141c0,21.66,38.39,54.06,42.8,57.68a5.54,5.54,0,0,0,7.13,0c4.17-3.5,39-33.35,42.45-54.41h15.28c3.39,21.5,38.31,51,42.48,54.45a5.54,5.54,0,0,0,7.13,0C161.63,195,200,162.1,200,141V27A27.13,27.13,0,0,0,172.93,0ZM46.3,187.14c-14.92-13-35.2-34.61-35.2-46.11a16.65,16.65,0,0,1,30.59-9.1,5.55,5.55,0,0,0,9.29,0A16.65,16.65,0,0,1,81.58,141C81.54,152.18,61.23,174,46.3,187.14Zm107.37,0c-14.92-13-35.2-34.61-35.2-46.11a16.65,16.65,0,0,1,30.59-9.1c2.48,3.31,7.09,3.31,9.29,0A16.65,16.65,0,0,1,189,141C188.92,152.18,168.6,174,153.68,187.14Z"/></g></g></svg>