<svg xmlns="http://www.w3.org/2000/svg" viewBox="0 0 235 200"><title>Asset 30</title><g id="Layer_2" data-name="Layer 2"><g id="HKI_hearts"><path d="M105,47.51c0,16.67,25,16.67,25,0S105,30.83,105,47.51Z"/><path d="M140,12.51c0,16.69,25,16.69,25,0S140-4.17,140,12.51Z"/><path d="M140,47.51c0,16.67,25,16.67,25,0S140,30.83,140,47.51Z"/><path d="M175,12.51c0,16.69,25,16.69,25,0S175-4.17,175,12.51Z"/><path d="M175,47.51c0,16.67,25,16.67,25,0S175,30.83,175,47.51Z"/><path d="M235,47.51c0-16.67-25-16.67-25,0S235,64.18,235,47.51Z"/><path d="M105,82.51c0,16.67,25,16.67,25,0S105,65.82,105,82.51Z"/><path d="M105,117.5c0,16.69,25,16.69,25,0S105,100.82,105,117.5Z"/><path d="M105,152.5c0,16.69,25,16.69,25,0S105,135.81,105,152.5Z"/><path d="M105,187.48c0,16.69,25,16.69,25,0S105,170.81,105,187.48Z"/><path d="M140,82.51c0,16.67,25,16.67,25,0S140,65.82,140,82.51Z"/><path d="M175,82.51c0,16.67,25,16.67,25,0S175,65.82,175,82.51Z"/><path d="M70,12.51c0,16.69,25,16.69,25,0S70-4.17,70,12.51Z"/><path d="M70,47.51c0,16.67,25,16.67,25,0S70,30.83,70,47.51Z"/><path d="M35,12.51c0,16.69,25,16.69,25,0S35-4.17,35,12.51Z"/><path d="M35,47.51c0,16.67,25,16.67,25,0S35,30.83,35,47.51Z"/><path d="M0,47.51c0,16.67,25,16.67,25,0S0,30.83,0,47.51Z"/><path d="M70,82.51c0,16.67,25,16.67,25,0S70,65.82,70,82.51Z"/><path d="M140,117.5c0,16.69,25,16.69,25,0S140,100.82,140,117.5Z"/><path d="M140,152.5c0,16.69,25,16.69,25,0S140,135.81,140,152.5Z"/><path d="M210,82.51c0,16.67,25,16.67,25,0S210,65.82,210,82.51Z"/><path d="M175,117.5c0,16.69,25,16.69,25,0S175,100.82,175,117.5Z"/><path d="M70,117.5c0,16.69,25,16.69,25,0S70,100.82,70,117.5Z"/><path d="M35,82.51c0,16.67,25,16.67,25,0S35,65.82,35,82.51Z"/><path d="M70,152.5c0,16.69,25,16.69,25,0S70,135.81,70,152.5Z"/><path d="M35,117.5c0,16.69,25,16.69,25,0S35,100.82,35,117.5Z"/><path d="M0,82.51c0,16.67,25,16.67,25,0S0,65.82,0,82.51Z"/></g></g></svg>