<svg xmlns="http://www.w3.org/2000/svg" viewBox="0 0 271.75 200"><title>Asset 43</title><g id="Layer_2" data-name="Layer 2"><g id="HKI_hearts"><path d="M201.58,0,135.88,37.94,70.17,0,0,40.52v81l70.17,40.52L135.88,200,206,159.48l65.71-37.94v-81ZM65.71,149.16,8.92,116.38V50.81L65.71,83.6ZM13.38,43.1,70.17,10.32,127,43.1,70.17,75.88ZM74.65,83.6l56.79-32.79v65.57L74.65,149.16Zm61.22,106.09L79.09,156.9l56.79-32.79,56.78,32.79Zm61.25-40.52-56.79-32.78V50.81L197.12,83.6Zm4.46-73.28L144.8,43.1l56.79-32.78L258.37,43.1Zm61.25,40.5L206,149.16V83.6l56.78-32.79Z"/></g></g></svg>