<svg xmlns="http://www.w3.org/2000/svg" viewBox="0 0 200.07 200"><title>Asset 16</title><g id="Layer_2" data-name="Layer 2"><g id="HKI_hearts"><path d="M199.92,100.18c.31-2.94-1.65-8.41-1.67-8.48l-.56-1.53-.15,0c-2.7-5.78-7.48-10.76-13.9-14.47-5.92-3.41-14-5-23.44-4.78a4,4,0,0,0-.92-.08c-.07,0-5.23,0-7.77.79v-.06a152.56,152.56,0,0,0-23.87,5.07c13.09-13,26.58-30.24,26.58-45.82C154.21,12.41,142.59,0,125.29,0c-8.65,0-17.53,4.07-25.18,11.5C92.47,4.08,83.58,0,74.94,0A29.08,29.08,0,0,0,59,4.45l0,0a30.07,30.07,0,0,0-6.47,5.74L51.27,11.7l.15.11a33.42,33.42,0,0,0-5.41,19c0,6.81,2.54,14.44,7.58,22.69a3.8,3.8,0,0,0,.2.48c0,.05,2.68,4.79,4.77,6.68l-.05,0A144.71,144.71,0,0,0,72.11,76.23c-10.61-3-22.84-5.62-34-5.62-8.81,0-16.08,1.62-21.61,4.8-16,9.23-20.92,25.5-12.26,40.48C8.54,123.39,16.51,129,26.78,132c-2.61,10.35-1.7,20.08,2.62,27.56a29,29,0,0,0,11.84,11.6l0-.09c2.23,1.69,7.44,2.65,8.19,2.78l2.12.38V174a33.18,33.18,0,0,0,19-4.86c6-3.44,11.35-9.55,16-18.17l0,0c1.64-1.9,3.14-6.08,3.64-7.58h0c1.49-3.46,2.79-7.06,4-10.68,1.76,19.47,9.09,43.54,30.34,65.64a5.44,5.44,0,1,0,7.84-7.54c-19.8-20.6-26.16-43.1-27.48-60.87,4.9,16,12.64,32.61,24.62,39.52a34.63,34.63,0,0,0,17.13,4.93c9.95,0,18.71-5.3,24.07-14.55,4.32-7.49,5.24-17.22,2.62-27.56,10.26-2.9,18.22-8.55,22.56-16a29.14,29.14,0,0,0,4.12-16ZM100.11,30c2.46,4.45,3.89,8.92,4,12.58a6.78,6.78,0,0,1-1.75,4.73,2.94,2.94,0,0,1-4.48,0,6.87,6.87,0,0,1-1.76-4.73C96.21,39,97.65,34.51,100.11,30ZM78.74,141.17l-1.59,3c-1,1.93-1.64,3.16-2.49,4.62-3.09,5-6.38,8.49-9.76,10.44a23.44,23.44,0,0,1-11.56,3.41c-.7,0-1.41,0-1.88-.09l-.59-.15a20.94,20.94,0,0,1-6.05-2.34,19,19,0,0,1-5.56-6.28c-3-5.09-3.4-12.13-1.26-19.9,8.75.63,17.2-.85,23.15-4.05a18.18,18.18,0,0,0,8.73-10.8,14.21,14.21,0,0,0-10.39-18,18.35,18.35,0,0,0-13.71,2.17c-5.8,3.57-11.24,10.08-15.09,18-7.8-2-13.67-5.91-16.62-11s-3.51-10.15-1.54-14.81c1.64-3.9,5.07-7.5,9.64-10.14C26,83.08,31.26,82,37.94,82c16.37,0,38.54,6.81,53.15,12.85C89.3,108.3,85.18,127.17,78.74,141.17ZM42.83,122.69c2.64-4.37,5.8-7.84,8.91-9.76a7,7,0,0,1,3.55-1,5.64,5.64,0,0,1,1.4.17,3.08,3.08,0,0,1,2,1.41,3.15,3.15,0,0,1,.21,2.47,6.8,6.8,0,0,1-3.2,3.89C52.51,121.59,48,122.6,42.83,122.69Zm57.29-36.94c-10.8-8.31-25.08-21.33-34-33.86l-1.69-2.66c-1.25-2-2-3.17-2.9-4.7-2.77-5.16-4.18-9.76-4.18-13.67,0-5.3,1.43-10.08,3.85-13.3l.42-.43A20.84,20.84,0,0,1,66.72,13a19.17,19.17,0,0,1,8.22-1.68c5.91,0,12.2,3.14,17.87,8.88C87.87,27.53,85,35.5,84.74,42.31a18.24,18.24,0,0,0,5,13,14.55,14.55,0,0,0,20.77,0,18.21,18.21,0,0,0,5-13c-.2-6.81-3.12-14.79-8.06-22.07,5.65-5.74,12-8.88,17.87-8.88,16.28,0,17.56,14.92,17.56,19.49C142.85,48.32,116.5,73.16,100.12,85.74ZM186,110.57c-3,5.13-8.83,9-16.63,11-3.83-7.9-9.28-14.43-15.09-18a18.29,18.29,0,0,0-13.7-2.19,14.23,14.23,0,0,0-10.38,18A18.16,18.16,0,0,0,139,130.18c5.94,3.2,14.38,4.68,23.13,4.07,2.14,7.76,1.72,14.79-1.24,19.91-3.39,5.88-8.13,8.87-14.09,8.87a23.54,23.54,0,0,1-11.57-3.41c-15.13-8.73-23.46-44-26.17-64.45,12.59-5.19,31-11.06,46.31-12.48l3.22-.13c2.28-.1,3.69-.15,5.48-.15,5.83.18,10.51,1.26,13.88,3.22,4.6,2.66,8,6.29,9.59,10l.15.58a21,21,0,0,1,1,6.42A19.06,19.06,0,0,1,186,110.57ZM157.28,123c-5.13-.08-9.69-1.07-12.91-2.82a6.73,6.73,0,0,1-3.19-3.89,2.89,2.89,0,0,1,2.23-3.87,5.52,5.52,0,0,1,1.41-.17,6.91,6.91,0,0,1,3.56,1C151.51,115.16,154.66,118.64,157.28,123Z"/></g></g></svg>