<svg xmlns="http://www.w3.org/2000/svg" viewBox="0 0 257.72 260"><title>Asset 53</title><g id="Layer_2" data-name="Layer 2"><g id="HKI_hearts"><path d="M226.29,152.22c-15,5.78-21.67,4-21.67,4a63.16,63.16,0,0,0,1.16-11.56,33,33,0,0,0-1.16-9.54s9.54-5.78,16.46-21.67c6.65-14.44,3.46-27.16,7.8-35.83,4.9-9,18.49-4.33,18.49,4.33S235.81,91.25,237,95c.57,2,9.24,3.46,15-4.33,9.54-13.29-2.89-24.84-9.24-27.45-6.65-3.17-25.13-3.46-30.33,18.49s-19.35,29.17-19.35,29.17S200,91.25,187,64.1c-9.83-21.38-27.45-38.71-24.84-46.22,3.17-7.51,9.54-10.4,15.32-5.49,5.78,5.2-.57,12.43,1.73,14.73,2.89,2.31,6.94-3.17,7.51-9.24.28-4.33.28-13-11.27-16.76-14.16-4.91-24.84,7.24-25.72,18.51-1.16,11.56,16.76,31.2,23.11,69.62A22.28,22.28,0,0,1,167.63,108s-12.43.28-23.11,7.51-14.45,23.68-14.45,23.68-3.76-13.87-13.29-22a8.88,8.88,0,0,0-2-1.44c-10.69-7.22-23.11-7.51-23.11-7.51a22.28,22.28,0,0,1-5.21-18.78c6.06-38.43,24-58.06,23.11-69.62C108.41,8.64,98-3.48,83,1.42,71.44,5.18,71.44,13.85,71.44,18.18c.57,6.06,4.9,11.56,7.51,9.24,2.89-2-4-9.54,2-14.73,5.78-4.91,12.72-2,15.32,5.49,2.89,7.51-14.73,25.13-24.84,46.22-13,27.16-6.06,46.79-6.06,46.79S51.5,104,46.3,82,22.61,60.36,16,63.53C9.31,66.42-2.82,77.69,6.73,91c5.78,7.79,14.44,6.65,15,4.33,1.44-3.76-10.4-4.33-10.4-13,0-9,13.87-13.29,18.49-4.33,4.33,8.67,1.44,21.38,7.79,35.83,6.94,15.89,16.46,21.67,16.46,21.67A32.85,32.85,0,0,0,52.93,145a63.1,63.1,0,0,0,1.16,11.56s-6.65,1.73-21.67-4C13.07,145.3-4.26,163.2.93,177.36c3.76,9.83,14.73,14.44,22.54,11.27,5.49-2,7.79-4,6.06-5.78-2.32-2.89-9,3.76-14.44-1.73-6.65-6.65-1.44-13.29,4.33-14.73,8.67-2,13.87,6.06,22.24,9.54,13.29,5.49,28.6,3.17,28.6,3.17s3.46,3.46,5.49,4.33a20.25,20.25,0,0,0,5.49,1.73s-18.78,25.13-21.1,40.45C57.27,245.27,67.09,260,83.55,260c16.76,0,21.67-11.27,18.78-23.11-2.89-12.72-14.16-12.43-14.44-9.54-.57,3.46,10.69,6.65,7.51,15.32-2.89,7.51-26.88,6.94-18.49-13.88,2.89-6.06,5.49-10.68,13.29-18.49a87,87,0,0,0,12.13-14.44,93.92,93.92,0,0,1,14.44,9,40.52,40.52,0,0,1,12.13,15.32,35.7,35.7,0,0,1,11.56-15.89,94.25,94.25,0,0,1,14.44-9A88,88,0,0,0,167,209.73c7.8,7.8,10.69,12.43,13.29,18.49,8.38,20.51-15.89,21.38-18.49,13.87-3.18-9,8.38-12.13,7.51-15.32-.29-2.89-11.56-3.17-14.45,9.54-2.89,11.56,2,23.11,18.78,23.11,16.46,0,26-14.73,23.4-34.38C195,209.73,176,184.6,176,184.6a20.48,20.48,0,0,0,5.49-1.73,44.73,44.73,0,0,0,5.49-4.33s15,2.32,28.6-3.17c8.67-3.46,13.87-11.56,22.24-9.54,5.78,1.44,11,8.38,4.33,14.73-5.49,5.49-12.13-1.16-14.45,1.73-1.73,1.73.57,3.76,6.07,5.78,7.79,3.17,18.78-1.44,22.54-11.27C263,162.92,245.35,145,226.29,152.22Z"/></g></g></svg>