<svg xmlns="http://www.w3.org/2000/svg" viewBox="0 0 202.9 200"><title>Asset 52</title><g id="Layer_2" data-name="Layer 2"><g id="HKI_hearts"><path d="M196.73,46.63a28.92,28.92,0,0,0,2.78-4.32l.06,0,.6-1.29v0a28.82,28.82,0,0,0-50.11-28.16,61.83,61.83,0,0,0-8.24-.62,60.83,60.83,0,0,0-40.41,15.28,61.05,61.05,0,0,0-83.58,88.94l3.85,3.85A36.33,36.33,0,0,0,73,171.55L101.46,200,185,116.44a60.91,60.91,0,0,0,11.72-69.81ZM85.39,144.2a36.09,36.09,0,0,0-10.64-25.71,6.57,6.57,0,1,0-9.29,9.29,23.23,23.23,0,0,1,5.71,23.41l-44-44A47.92,47.92,0,0,1,94.91,39.39l6.51,6.51L108,39.39a47.95,47.95,0,0,1,67.77,0,48.66,48.66,0,0,1,3.71,4.21,15.56,15.56,0,0,1-12-.52A6.56,6.56,0,1,0,161.87,55,28.63,28.63,0,0,0,174,57.7a29.08,29.08,0,0,0,9.9-1.75c.76-.28,1.5-.6,2.23-.94a48,48,0,0,1-10.44,52.16l-74.27,74.26L81.19,161.21A36.21,36.21,0,0,0,85.39,144.2Zm95.3-129.59a15.53,15.53,0,0,1,8,19.58c-1.18-1.41-2.41-2.79-3.72-4.1a60.82,60.82,0,0,0-20.61-13.55,15.38,15.38,0,0,1,16.3-1.93Zm-117,147.63c-8.94,7.11-22.9,6.58-31.07-1.59A23.26,23.26,0,0,1,31,129.59Z"/></g></g></svg>