<svg xmlns="http://www.w3.org/2000/svg" viewBox="0 0 358.54 180"><title>Asset 31</title><g id="Layer_2" data-name="Layer 2"><g id="HKI_hearts"><path d="M357.32,88.81l-.28-.73c-5.59-14.05-20-48.14-32.95-61.22-2.06-2.08-3.81-3.88-5.33-5.46-9.73-10.07-12-12.12-27.19-17L284.64,2.1C279.56.44,278.11,0,276.42,0l-.91.07c-5.43.79-14.85,18.32-14.9,18.5-.75,2.51-1.47,7.92.59,12.29s5.05,5.8,7.49,7a8.42,8.42,0,0,0,5,1.51A14.49,14.49,0,0,0,279.37,38a20.89,20.89,0,0,0,3.16-1.67A22,22,0,0,0,290,38a11.59,11.59,0,0,0,4.72-1c2,.91,6.21,4.2,6.55,5.88.6,3.08.81,19.69.77,30.69a15.78,15.78,0,0,0-2.62-.51c-2-.18-3.63-.31-5.3-.31a27.49,27.49,0,0,0-15.73,4.81c-.32.2-.63.42-.93.64-4.17-3.31-11.73-7.93-21.55-7.93a32.46,32.46,0,0,0-11.23,2,34.47,34.47,0,0,0-6.17,3.07c-.29-.43-.57-.89-.9-1.3-6.15-7.73-16.16-11.88-28.95-12-13.5,0-26.14,9.63-32,15.79C169.19,69.74,156.83,62,144.79,62c-12.27.14-22,4.23-28,11.82a27.2,27.2,0,0,0-3.65,6.31,32.46,32.46,0,0,0-10.48-1.8c-9.8,0-17.37,4.63-21.55,8-.3-.22-.6-.44-.9-.63a27.5,27.5,0,0,0-15.75-4.83,51.44,51.44,0,0,0-5.32.33,15.53,15.53,0,0,0-2.58.5c0-11.32.17-27.67.77-30.67.34-1.68,4.7-5.08,6.51-5.9a11.24,11.24,0,0,0,4.76,1.06,21.87,21.87,0,0,0,7.46-1.68A21.43,21.43,0,0,0,79.2,46.1a14.49,14.49,0,0,0,5.72,1.37,8.07,8.07,0,0,0,4.62-1.31l.3-.14c2.44-1.18,5.47-2.65,7.55-7s1.35-9.79.63-12.17C97.84,26,88.33,8.94,83,8.19l-.89-.06c-1.7,0-3,.43-8.47,2.22L67,12.49c-15.15,4.91-17.46,7-27.19,17-1.53,1.58-3.3,3.39-5.36,5.49-13,13.09-27.38,47.22-33,61.26L1.23,97C0,100-1.3,107,2.76,112.05,24.61,139.36,57.7,148,58,148.07c3.91,1,12.18,1.16,19.47,1.34,4.66.11,8.71.23,11,.49a57.89,57.89,0,0,0,8.3.39c3.37,0,7.84-.11,13.3-.32,9.11-.36,16.42-4.8,21.33-12.79,17.75,20.41,40.66,39.16,41.66,40l3.51,2.87,3.54-2.84c3.13-2.52,30.34-24.66,48-46.56a25.15,25.15,0,0,0,20.35,11.24c5.56.21,9.92.32,13.34.32a56,56,0,0,0,8.5-.42c2.16-.24,6.72-.35,10.74-.45l.59,0c7.78-.21,15.12-.41,18.87-1.32.33-.08,33.42-8.71,55.29-36C359.83,98.8,358.55,91.81,357.32,88.81Zm-247.77,50c-15,.58-18.52.15-19.66,0l-.46-.06c-2.53-.28-6.7-.4-11.72-.53-6.08-.15-14.41-.37-17.07-1-.3-.08-30.07-8.22-49.21-32.15-.42-.53-.38-2.78.08-3.85l.32-.8c11.12-28,22.53-49.47,30.52-57.55l.48-.49c1.89-1.93,3.53-3.59,5-5.1,8.91-9.2,9.63-10,22.6-14.15l8-2.62,1.88-.61c2.49,3.29,6.54,9.24,6.93,10a8.83,8.83,0,0,1,0,4.31c-.36.73-.39.81-2.38,1.79l-.36.19a9.11,9.11,0,0,1-.93-.35,8.69,8.69,0,0,1-2.12-1.22,7.87,7.87,0,0,0-7.55-1.28l-1.59.56A17.3,17.3,0,0,1,68.61,35l-.4-.17a10.52,10.52,0,0,0-4.51-1h0l-.66,0c-4.16.29-15.13,6.88-16.75,15-1,4.8-1,24.66-1,33.25-1.22,4.26-2.37,8.07-2.47,8.35l-1.61,2.88,3.24,5.56h3.22a6.68,6.68,0,0,0,4.45-1.94c3.59-2.87,6.29-4.42,8.05-4.59C61.64,92.11,63,92,64.4,92c2.4,0,5.33.23,9.69,3a15.33,15.33,0,0,1,2.68,2.51L81,102.67l4.69-5.56c.72-.78,7.34-7.59,16.9-7.59A21.49,21.49,0,0,1,110,90.85l.49.21a48.3,48.3,0,0,0,1,13.87c1.33,6.2,5.44,13.87,12.18,22.79C120.77,134.8,116,138.55,109.55,138.81ZM242.79,105A43.74,43.74,0,0,0,243,85.68a23.09,23.09,0,0,1,5.48-2.93,21.48,21.48,0,0,1,7.39-1.37c9.8,0,16.76,7.44,16.78,7.46l4.83,5.77,4.29-5.23a14.83,14.83,0,0,1,2.65-2.48,16.41,16.41,0,0,1,9.68-3c1.31,0,2.61.12,4.19.25,2.59.26,6.67,3.5,8.06,4.59a6.71,6.71,0,0,0,4.48,1.94h3.21l3.34-5.46-1.54-2.63c-.28-.63-1.5-4.61-2.64-8.68,0-6.84,0-28.2-1-33.26-1.62-8.07-12.58-14.67-16.81-15l-.65,0a10.46,10.46,0,0,0-4.43,1,2,2,0,0,0-.33.16,16,16,0,0,1-3.86-1.08l-1.53-.53a7.75,7.75,0,0,0-7.53,1.28,8.37,8.37,0,0,1-2.09,1.2c-.42.17-.73.28-1,.35l-.42-.22c-1.92-.93-2-1-2.31-1.75a10,10,0,0,1-.2-3.77,122.92,122.92,0,0,1,7.13-10.53l2.45.81L288.15,15c13,4.19,13.69,4.94,22.62,14.17l.87.9c1.34,1.39,2.84,2.94,4.55,4.68,8,8,19.38,29.54,30.51,57.49l.35.87c.45,1,.48,3.28,0,3.81-19.19,24-48.92,32.07-49.19,32.15-2.82.68-11.76.89-17.28,1-4.84.13-9,.24-11.6.53l-.51.07a50.5,50.5,0,0,1-6.69.29c-3.26,0-7.48-.1-12.89-.31-6.06-.25-10.62-3.58-13.6-9.85C239.27,114.82,241.8,109.48,242.79,105ZM169.31,86.39l.42.45.2.21,7.41,7.42L178.51,93c1.19-1.49,2.2-2.72,3-3.63l.5-.61a16,16,0,0,0,1.16-1.39c4.47-5.71,15.75-14.17,25.73-14.17,9.12.1,16,2.8,20,7.8s5,12.44,3,21.58c-3.63,16.52-35.93,46.91-55.27,63-19-16-50.62-46.4-54.18-63-2-9.25-.92-16.79,3.08-21.8s10.68-7.51,19.59-7.62C153.44,73.18,163.78,80,169.31,86.39Z"/></g></g></svg>