<svg xmlns="http://www.w3.org/2000/svg" viewBox="0 0 208.76 200"><title>Asset 48</title><g id="Layer_2" data-name="Layer 2"><g id="HKI_hearts"><path d="M140.74,163.92l-18.63-49L155.29,150C150.81,154.6,146,159.24,140.74,163.92ZM52.33,149.24l33.91-34.76L67.74,164Q59.39,156.57,52.33,149.24ZM28.59,14.61l45.35,40L10.14,38.08A46.45,46.45,0,0,1,28.59,14.61ZM64.13,7.17l-.2.12,1.48,2.39,13.81,40.6L34.85,11.2a52.61,52.61,0,0,1,21.64-4.5A63,63,0,0,1,64.13,7.17Zm109.14,3.55L127.69,51.1,141.41,9.8l1.35-2.28a65,65,0,0,1,10.08-.82A52.35,52.35,0,0,1,173.28,10.72ZM198.6,37.59l-64.77,17L179.65,14A45.9,45.9,0,0,1,198.6,37.59ZM135.83,61l64.68-17a71.32,71.32,0,0,1,.12,29.39Zm7,26.49,56-6.3a112.65,112.65,0,0,1-5.68,15.69Zm-5.46,5.79,52.73,9.84a157.82,157.82,0,0,1-9.88,16.66Zm-6.49,3.82,45.49,28.17a219.86,219.86,0,0,1-15.76,19.13ZM110.58,84.54l7.34,4.54,21.87,34.77L115.93,98.59Zm4.52,30.76,20.26,53.3q-12.25,10.49-27.19,21.14Zm-15,74.42q-14.83-10.56-27-21l19.73-52.82ZM89.36,89.49l8.06-5L92,99,66.59,125ZM76.25,97.57,46.87,143.42a212.29,212.29,0,0,1-15-18.52Zm-5.71-4.36L28,119.39a155.43,155.43,0,0,1-9.69-16.55Zm-6-5.69L15.34,96.58A111.21,111.21,0,0,1,9.91,81.39Zm36.26-20.35,0,2.07L89.32,59.18,81.23,35.42Zm.16-12.5L72.68,8.74a96.44,96.44,0,0,1,28.67,12.63Zm6.71-1L108,21.4A98.65,98.65,0,0,1,133.81,9.5ZM107.42,69l0-1.93,17.92-30.24-7.66,23.06Zm-3.43,17,5.72,15-5.65,60.48-5.89-59.93Zm-17.3-2.79-61-6.85L85.6,64.84,98.36,76.09Zm22.87-7.18,12.35-10.95L181,76.45,121.05,83.2ZM8.23,44.5,71.3,60.8,8,73A71.09,71.09,0,0,1,8.23,44.5ZM205.8,37.88C198.48,14.51,178.18,0,152.84,0c-15.48,0-32.07,5.37-48.12,15.56C88.66,5.38,72,0,56.49,0,30.87,0,10.36,14.65,3,38.25c-11.46,36.61,8.1,97.81,97.37,159.82l1.91,1.32a3.36,3.36,0,0,0,1.91.6,3.27,3.27,0,0,0,1.9-.6l1.91-1.32C197.6,135.83,217.27,74.51,205.8,37.88Z"/></g></g></svg>