<svg xmlns="http://www.w3.org/2000/svg" viewBox="0 0 196.63 200"><title>Asset 7</title><g id="Layer_2" data-name="Layer 2"><g id="HKI_hearts"><path d="M186.47,57.13C196,20.45,166.41,0,141.68,0A44.7,44.7,0,0,0,99.92,28.16,45,45,0,0,0,58,0C41.29,0,22.57,9.21,14.93,26.35l-.09-.14S0,49.12,0,57.35a14.87,14.87,0,0,0,20.14,14C39.69,101.65,92,149.21,99.5,155.95v.8s0-.18.4-.46c.36.24.36.4.36.4v-.8C109,147.95,179.78,83.57,186.47,57.13Z"/><path d="M179.5,91.24s-17.2,26.45-17.2,35.93a17.17,17.17,0,1,0,34.33,0C196.63,117.69,179.5,91.24,179.5,91.24Z"/><path d="M110.83,182.68A17.37,17.37,0,0,0,128.13,200a17.17,17.17,0,0,0,17-17.32c0-9.48-17-35.93-17-35.93S110.83,173.2,110.83,182.68Z"/><path d="M6.69,119a14.91,14.91,0,0,0,29.83,0c0-8.29-15.08-31.14-15.08-31.14S6.69,110.71,6.69,119Z"/></g></g></svg>