<svg xmlns="http://www.w3.org/2000/svg" viewBox="0 0 151.35 200"><title>Asset 40</title><g id="Layer_2" data-name="Layer 2"><g id="HKI_hearts"><path d="M57.3,15.25,42.15,0,28.65,12.26,15.16,0,0,15.25.81,31.61,28.18,55.85h.94L57.3,31.61V15.25ZM13.54,19.4,8.31,14.17l5.24-5.23,5.24,5.23Z"/><path d="M57.3,87.34,42.15,72.09,28.65,84.36,15.16,72.09,0,87.34.81,103.7l27.37,24.24h.94L57.3,103.7V87.34ZM13.54,91.5,8.31,86.26,13.54,81l5.24,5.24Z"/><path d="M15.16,144.11,0,159.36l.81,16.36L28.18,200h.94L57.3,175.72V159.36L42.14,144.11l-13.5,12.26Zm-1.61,19.4-5.24-5.23L13.54,153l5.24,5.24Z"/><path d="M151.35,15.29,136.2,0,122.7,12.3,109.2,0,94,15.29l.81,16.36,27.37,24.24h.94l28.18-24.24V15.29Zm-43.76,4.16-5.24-5.24L107.59,9l5.23,5.24Z"/><path d="M151.35,87.38,136.2,72.13,122.7,84.4,109.2,72.13,94,87.38l.81,16.36L122.23,128h.94l28.18-24.24V87.38Zm-43.76,4.16-5.24-5.24,5.24-5.24,5.23,5.24Z"/><path d="M109.2,144.15,94,159.4l.81,16.36L122.23,200h.94l28.18-24.24V159.4l-15.16-15.25-13.5,12.26Zm-1.61,19.4-5.24-5.24,5.24-5.24,5.23,5.24Z"/></g></g></svg>