<svg xmlns="http://www.w3.org/2000/svg" viewBox="0 0 233.51 200"><title>Asset 21</title><g id="Layer_2" data-name="Layer 2"><g id="HKI_hearts"><path d="M165.36,12.94c-19.75,0-37.72,9.2-48.66,24.48C105.77,22.14,87.8,12.94,68,12.94A59.72,59.72,0,0,0,8.4,72.58c0,48.91,101,123.32,105.3,126.47a4.91,4.91,0,0,0,5.77,0C123.78,196,225,122.52,225,72.58A59.72,59.72,0,0,0,165.36,12.94ZM165,148.2A561.16,561.16,0,0,1,116.63,189a579.27,579.27,0,0,1-48.27-41.06c-32.8-31.43-50.13-57.48-50.13-75.32A49.88,49.88,0,0,1,68,22.76c19,0,35.94,10.08,44.29,26.3a4.91,4.91,0,0,0,8.73,0c8.36-16.22,25.33-26.3,44.29-26.3a49.88,49.88,0,0,1,49.82,49.83C215.19,90.81,197.85,117,165,148.2Z"/><path d="M9.34,44.22c8.61-18,23-29.87,41.55-34.36A4.91,4.91,0,0,0,48.58.32C27,5.53,10.41,19.24.48,40a4.91,4.91,0,1,0,8.86,4.24Z"/><path d="M233,40C223.11,19.24,206.48,5.53,184.94.32a4.91,4.91,0,1,0-2.31,9.55c18.57,4.49,32.94,16.37,41.54,34.36A4.91,4.91,0,0,0,233,40Z"/><path d="M165.44,9.82l2.85.12h.21a4.91,4.91,0,0,0,.2-9.82L165.85,0a4.86,4.86,0,0,0-5.11,4.7A4.92,4.92,0,0,0,165.44,9.82Z"/><path d="M88,70.57a4.92,4.92,0,0,0-6.59,2.21,18.31,18.31,0,0,1-32.84,0,4.91,4.91,0,0,0-8.79,4.38,28.14,28.14,0,0,0,50.43,0A4.91,4.91,0,0,0,88,70.57Z"/><path d="M191.41,70.57a4.91,4.91,0,0,0-6.59,2.21,18.31,18.31,0,0,1-32.84,0,4.91,4.91,0,0,0-8.79,4.38,28.14,28.14,0,0,0,50.43,0A4.91,4.91,0,0,0,191.41,70.57Z"/><path d="M168.4,101.08c-7,0-15.25,1.3-15.25,7.5s8.29,7.5,15.25,7.5,15.25-1.3,15.25-7.5S175.36,101.08,168.4,101.08Z"/><path d="M65,101.08c-7,0-15.25,1.3-15.25,7.5s8.29,7.5,15.25,7.5,15.25-1.3,15.25-7.5S72,101.08,65,101.08Z"/><path d="M116.71,118.91c2.86,0,7.75-2.32,7.75-5.17s-4.9-36.19-7.75-36.19S109,110.9,109,113.74,113.85,118.91,116.71,118.91Z"/><path d="M127,129.51H106.37a4.91,4.91,0,1,0,0,9.82H127a4.91,4.91,0,1,0,0-9.82Z"/></g></g></svg>