<svg xmlns="http://www.w3.org/2000/svg" viewBox="0 0 220.08 198.41"><title>Asset 54</title><g id="Layer_2" data-name="Layer 2"><g id="HKI_hearts"><path d="M203.55,17.29C195.75,9.4,182,0,160.7,0h-1C131,2.07,118.1,17.54,110.28,31.69,98.4,10.66,80.73,0,57.7,0H56.61C29.58,1.74,9.94,17.33,2.72,42.78-4.81,69.26,4.4,98.66,16.87,116c10.39,14.51,24.41,26.54,38,38.16l1.71,1.47c1.58,1.36,3.14,2.7,4.69,4.05,8.27,7.18,15,12.13,22.19,17.36l.55.4c6.8,5,13.82,10.11,23.24,17.89l3.66,3,3.5-3.21c7.65-7,17.24-14.43,27.41-22.27,15.93-12.28,34-26.19,50.13-43,11.57-12.55,23.17-26.83,26.86-51.1C222.77,52.67,217.5,31.4,203.55,17.29Zm-9.28,21V23.47c.51.48,1,1,1.55,1.49a42.84,42.84,0,0,1,8.89,13.38ZM208,77.17a72.59,72.59,0,0,1-13.74,33v-61H208A82.68,82.68,0,0,1,208,77.17Zm-26.39,47.68c-4.14,4.19-8.57,8.37-13.44,12.68V124.85Zm1.75-75.62V114H168.19V49.23Zm0-33.26V38.34H168.19v-27A48.36,48.36,0,0,1,183.38,16ZM143,38.34V14.75a53,53,0,0,1,14.32-3.56V38.34ZM143,114V49.23H157.3V114ZM143,140V124.85H157.3V140Zm9.22,10.89c-2.85,2.29-5.87,4.68-9.22,7.28v-7.28Zm-20.11,0v15.7c-5.36,4.13-10.93,8.48-16.06,12.73V150.93Zm0-26.08V140H116V124.85Zm0-75.62V114H116V49.23Zm0-27.78V38.35H119.15C122.15,32.82,126.21,26.48,132.1,21.44ZM105.15,150.93v28.84c-5.68-4.43-10.6-8-15-11.28l-.15-.1V150.93Zm0-26.08V140H90V124.85ZM90,38.34V22.77a61.85,61.85,0,0,1,11.5,15.58Zm15.19,10.89V114H90V49.23ZM79.06,150.93v9.34c-3.81-2.94-7.18-5.72-10.69-8.76l-.67-.59Zm0-26.08V140H63.88V124.85Zm0-75.62V114H63.88V49.23Zm0-34V38.34H63.88V11.2A46.2,46.2,0,0,1,79.07,15.26ZM53,124.85v13.37c-4.56-4-9.59-8.56-14.31-13.37Zm0-75.62V114H38.67V49.23Zm0-37.9v27H38.67V15.29A52,52,0,0,1,53,11.32ZM27.78,49.23v63.26c-.75-1-1.44-1.88-2.08-2.78C15.49,95.43,7.52,71.35,12.37,49.23Zm0-27V38.34H15.91A45.48,45.48,0,0,1,27.78,22.19Z"/></g></g></svg>