<svg xmlns="http://www.w3.org/2000/svg" viewBox="0 0 200.2 200"><title>Asset 44</title><g id="Layer_2" data-name="Layer 2"><g id="HKI_hearts"><path d="M177.27,0H23.07A22.92,22.92,0,0,0,0,22.78s0,.09,0,.14V130.66a20.79,20.79,0,0,0,.17,2.68H0V200c15.29-15.41,30.58-30.69,45.87-46.33H177.13a23,23,0,0,0,23.07-22.94V22.92A22.93,22.93,0,0,0,177.27,0ZM129.71,79.32q-14.62,15.61-29.33,31.12a2.19,2.19,0,0,0-.2.31l-.32-.28L77.14,86.38c-2.18-2.3-4.34-4.62-6.53-6.92A19.76,19.76,0,0,1,65.3,69.34a18.85,18.85,0,0,1,3.38-15.11,17.63,17.63,0,0,1,9.94-6.85,21,21,0,0,1,6.65-.67,19.61,19.61,0,0,1,7.51,1.88,17.37,17.37,0,0,1,5,3.68c.67.7,1.32,1.41,2,2.11a4,4,0,0,1,.26.36c.37-.4.68-.71,1-1a22.42,22.42,0,0,1,4.33-3.9,19.35,19.35,0,0,1,8-3,19.11,19.11,0,0,1,12.41,2.35,18,18,0,0,1,9,12.24A19,19,0,0,1,129.71,79.32Z"/></g></g></svg>