<svg xmlns="http://www.w3.org/2000/svg" viewBox="0 0 197.89 200"><title>Asset 3</title><g id="Layer_2" data-name="Layer 2"><g id="HKI_hearts"><path d="M111.73,182.69a4.51,4.51,0,0,0-5.56,1.47h0a25.26,25.26,0,0,0-2.31,3.8,25.33,25.33,0,0,1-4.93-6.21,4.25,4.25,0,0,0-5.85-1.65,4.53,4.53,0,0,0-1.93,6.11c1.84,3.67,5.92,10.27,12.57,13.26a6.14,6.14,0,0,0,2.5.54,4.57,4.57,0,0,0,4.25-2.47,41.62,41.62,0,0,0,3.48-10A4.11,4.11,0,0,0,111.73,182.69Z"/><path d="M88.69,166.69a4.78,4.78,0,0,0-5.32.65h0a14.62,14.62,0,0,0-1.93,2.19,17.47,17.47,0,0,1-2.1-3.6A4,4,0,0,0,74,163.85a4.42,4.42,0,0,0-2.89,5.44,25.33,25.33,0,0,0,8.2,12.25,5.88,5.88,0,0,0,3.65,1.33,5.06,5.06,0,0,0,1-.09,4.7,4.7,0,0,0,3.25-2.39c1.63-2.92,3.31-5.94,3.71-9.74A3.83,3.83,0,0,0,88.69,166.69Z"/><path d="M71.22,154.47a4.09,4.09,0,0,0-5,.71h0c-.46.46-.91,1-1.36,1.52a30.59,30.59,0,0,1-2.73-7,3.94,3.94,0,0,0-4.87-2.8,4.07,4.07,0,0,0-3.06,4.91c1.18,5.56,3,11.33,8.07,15.89A4.92,4.92,0,0,0,66.34,169a4.61,4.61,0,0,0,3.29-2.23c.3-.5.6-1,.91-1.46a18.85,18.85,0,0,0,2.85-6A4.34,4.34,0,0,0,71.22,154.47Z"/><path d="M118.52,153.23a4,4,0,0,0-2.2-3.39,3.52,3.52,0,0,0-3.61.21h0a11.17,11.17,0,0,0-1.52,1.24,29.43,29.43,0,0,1-1.16-5.5,4,4,0,0,0-4-3.7h-.1a3.77,3.77,0,0,0-3.72,3.77,37.34,37.34,0,0,0,3.43,17.05,3.88,3.88,0,0,0,1.17,1.51,4.35,4.35,0,0,0-1,.59,18,18,0,0,0-3,3.08,21.41,21.41,0,0,1-3.47-6.22,4.47,4.47,0,0,0-7.74-1.36,11.17,11.17,0,0,0,1.53-8.26h0a4,4,0,0,0-3.45-3.15,4.45,4.45,0,0,0-3.6,1c-.54-1.51-1-3-1.37-4.18a4.32,4.32,0,0,0-5.33-3.06,4.54,4.54,0,0,0-3.4,5.4c1,5.19,2.13,10.25,4.7,15.06a4.92,4.92,0,0,0,4.23,2.62h.22a5.61,5.61,0,0,0,4.7-2.54L90,163q.46-.72.89-1.44a4.4,4.4,0,0,0-.11,2.66c1.35,5.35,4.18,10.26,9.18,15.94a4.68,4.68,0,0,0,3.55,1.56l.52,0a5.33,5.33,0,0,0,4-2.52l.85-1.43c1.78-3,3.46-5.74,3.77-9.63a3.66,3.66,0,0,0-1.22-3.12,4.55,4.55,0,0,0,1.67-1C115.86,161.27,118.73,158,118.52,153.23Z"/><path d="M144.29,148.87a4.35,4.35,0,0,0-4.62,1.15h0a21.72,21.72,0,0,0-3.11,4.29,33,33,0,0,1-6.18-9,3.86,3.86,0,0,0-7.07,3c1.64,5,4.14,11.09,8.9,15.67a4.11,4.11,0,0,0-1.74-1,3.87,3.87,0,0,0-3.9,1.09,18.67,18.67,0,0,0-2.79,4.61,16.92,16.92,0,0,1-.16-5.38,3.51,3.51,0,0,0-2.78-3.92,4.36,4.36,0,0,0-5,2.61c-2.49,7.05-1.24,13.41,3.82,19.43a5,5,0,0,0,3.76,1.6,4.44,4.44,0,0,0,2.63-.79c5.94-4.29,8.68-10.42,7.33-16.38a3.66,3.66,0,0,0-.91-1.68,23.35,23.35,0,0,0,2.87,2.34,4.65,4.65,0,0,0,2.63.79,5.94,5.94,0,0,0,3.9-1.54c4.23-3.9,6.25-8.24,5.82-12.58A5.18,5.18,0,0,0,144.29,148.87Z"/><path d="M55.32,130.37a5.58,5.58,0,0,0-6.22,1.86,34.23,34.23,0,0,0-2.74,4.39,30.44,30.44,0,0,1-4.22-7.76,4,4,0,0,0-4-2.49,16.55,16.55,0,0,0,4.2-9.79,3.79,3.79,0,0,0,0-.86,54.45,54.45,0,0,0,4.87,10.23A4.2,4.2,0,0,0,50.83,128h0a4.22,4.22,0,0,0,3.67-2.07c2.61-4.44,3.2-8.89,3.57-13.07a3.31,3.31,0,0,0-2.51-3.47A3.48,3.48,0,0,0,51.43,111h0a31.75,31.75,0,0,0-1.62,3.82,53.58,53.58,0,0,1-3.95-7,2.44,2.44,0,0,0-1.75-1.43,20,20,0,0,0,4.33-10,4.13,4.13,0,0,0-2.7-4.55,3.52,3.52,0,0,0-4.39,1.75q-.31.54-.62,1.06a37.21,37.21,0,0,1-2.25-9.13,3.67,3.67,0,0,0-2.73-3.26,4.49,4.49,0,0,0,1.07-.72c3.31-3.13,6.4-6.73,6.62-11.77a3.67,3.67,0,0,0-2-3.31,3.35,3.35,0,0,0-3.6.19,21.54,21.54,0,0,0-4,4,49.27,49.27,0,0,1-2.53-7L31,62.63a3.46,3.46,0,0,0-4.21-2.43A3.64,3.64,0,0,0,24,64.46c1.07,5.79,2.19,11.78,6.32,17a3.84,3.84,0,0,0,2.48,1.37,3.53,3.53,0,0,0-1.57,2.85,45.62,45.62,0,0,0,4,19.93,5.46,5.46,0,0,0,3.94,3.3A4.69,4.69,0,0,0,40,109a4.24,4.24,0,0,0,.92-.1,2.61,2.61,0,0,0,0,.72,31.93,31.93,0,0,0,1,4.75A3.34,3.34,0,0,0,40.2,113a4.3,4.3,0,0,0-4.87,1.41,57.24,57.24,0,0,1-3.83,4.8,17.79,17.79,0,0,1-3-10.16,3.42,3.42,0,0,0-6.7-.9c-2.22,7.66-.31,14.47,6,21.42A4.66,4.66,0,0,0,31.23,131a4.33,4.33,0,0,0,2.44-.72c.42-.29.78-.58,1.17-.88a3.57,3.57,0,0,0,0,.69,37.5,37.5,0,0,0,8.46,19.47,4.56,4.56,0,0,0,3.3,1.67h.37a5.91,5.91,0,0,0,4-1.53c4.52-4.25,7.13-9.51,7.35-14.81A4.38,4.38,0,0,0,55.32,130.37Z"/><path d="M74.84,138.87a5.23,5.23,0,0,0-3.75-1,75,75,0,0,1-3.64-10.81l-.53-1.86A4,4,0,0,0,63,122.38h-.11a3.69,3.69,0,0,0-3.6,2.89c-1.65,7.11.49,16.79,5.21,23.54a5.75,5.75,0,0,0,4.61,2.59h0A6,6,0,0,0,74,148.86a12.47,12.47,0,0,0,2.28-6.43A3.71,3.71,0,0,0,74.84,138.87Z"/><path d="M91.74,147.28a5.52,5.52,0,0,0,.85.07,5,5,0,0,0,3.69-1.53c3.49-3.81,3.93-7.79,4.4-12a4,4,0,0,0-3-4.26A4.37,4.37,0,0,0,92.75,131a45.15,45.15,0,0,1-1.81-4.82,4.65,4.65,0,0,0-9,2.47c1.42,5.78,3.94,11.22,6.16,16A4.63,4.63,0,0,0,91.74,147.28Z"/><path d="M152.34,135.77a5.13,5.13,0,0,0-5.78,1.61,3.94,3.94,0,0,0-.42.74,18.83,18.83,0,0,1-6.75-9.3,3.83,3.83,0,0,0-4.6-2.65,4.08,4.08,0,0,0-3,4.68c1,6.47,4.79,12.23,11.08,16.65a9.51,9.51,0,0,0,5.35,2,5.34,5.34,0,0,0,4.23-2c1.94-2.32,2.14-4.51,2.36-7l0-.51A3.83,3.83,0,0,0,152.34,135.77Z"/><path d="M162.8,115.34a4.93,4.93,0,0,0-3.78-2.19,4,4,0,0,0-3.36,1.41,25.44,25.44,0,0,0-3,4.87l-.54,1a19.66,19.66,0,0,1-4.72-7.74A4.37,4.37,0,0,0,142,109.6a4.61,4.61,0,0,0-3.49,5.49c1.35,6.83,5.49,11.94,10.35,17.42a5.31,5.31,0,0,0,4,1.68,5.12,5.12,0,0,0,2.79-.79c5.33-3.5,11.64-11.2,7.19-18.06Z"/><path d="M28.8,90.45a4.08,4.08,0,0,0-2.23-4.59,3.46,3.46,0,0,0-4.39.92,34.56,34.56,0,0,0-2.55,3.84c-.61,1-1.2,2-1.85,2.9a42,42,0,0,1-1.61-7.34,3.06,3.06,0,0,0-3.1-2.72h-.16A34,34,0,0,0,20.76,63.7a3.89,3.89,0,0,0-3.09-4.16,4.73,4.73,0,0,0-5.34,2.78c-1.43,3.48-2.68,6.5-4,9.44a20.92,20.92,0,0,1-2.58-7.49A2.52,2.52,0,0,0,3,62a3.06,3.06,0,0,0-3,2.74c-.42,6.31,1.11,12,5,18.44a4.93,4.93,0,0,0,3.81,2.3l.38,0c.15,0,.29,0,.43,0a3.48,3.48,0,0,0-.42,1.35,27.53,27.53,0,0,0,3.5,15.76,4.43,4.43,0,0,0,3.7,2.17,3.42,3.42,0,0,0,1.26-.24C22.86,102.5,27,97.24,28.8,90.45Z"/><path d="M171.11,93.59A4.46,4.46,0,0,0,166,95.72l-.5.92c-.49.92-1,1.78-1.44,2.56a22.35,22.35,0,0,1-1.7-6.26,4.87,4.87,0,0,0-5-4.39A4.38,4.38,0,0,0,153,93.06a33.23,33.23,0,0,0,5.13,17.39,5.12,5.12,0,0,0,4.43,2.5,5.61,5.61,0,0,0,2.53-.62c6.28-3.19,9.37-7.86,9.47-14.3A4.53,4.53,0,0,0,171.11,93.59Z"/><path d="M184.68,71.87a4.45,4.45,0,0,0-4.8,1.75h0a60.24,60.24,0,0,0-4.46,7.46,18.7,18.7,0,0,1-2.71-6.28,3.84,3.84,0,0,0-4.62-2.87,4.28,4.28,0,0,0-3.32,4.9c.86,5.37,2.95,12.88,11.1,16.17a3.92,3.92,0,0,0,1.47.26A4.84,4.84,0,0,0,181,91.62c3.23-4.15,7.24-9.3,6.74-15.83A4.3,4.3,0,0,0,184.68,71.87Z"/><path d="M148.76,90.42a5.5,5.5,0,0,0,4.34-2.2l.63-.88c3-4.24,6.16-8.63,6.94-14.14a4.88,4.88,0,0,0-3.43-5.2,3.7,3.7,0,0,0-4.54,2.16h0c-.7,1.51-1.48,3-2.28,4.41a43.05,43.05,0,0,1-.89-6.12,4.07,4.07,0,0,0-4.15-3.93h-.07a4,4,0,0,0-4,4A44.16,44.16,0,0,0,145,88a4.2,4.2,0,0,0,.28.48,4.59,4.59,0,0,0-2.33-.9,4,4,0,0,0-4.2,3.17h0a18.47,18.47,0,0,1-1.27,3.4c-.66-1.43-1.29-2.88-1.91-4.3l-.38-.88a3.17,3.17,0,0,0-2.51-2c2.38-4,3.2-8.42,4-12.72A3.86,3.86,0,0,0,134,70a3.22,3.22,0,0,0-4,1.73h0c-.82,1.7-1.61,3.4-2.4,5.11a50.05,50.05,0,0,1-2.06-5.62,3.48,3.48,0,0,0-4.24-2.42,3.59,3.59,0,0,0-2.68,4.27c1.18,6.15,2.72,11.17,6.39,15.7a3.79,3.79,0,0,0,3,1.43h.18l.14,0a3.52,3.52,0,0,0,0,1.39c1.15,5.16,2.2,9.44,4.43,13.66l.07.11a4.17,4.17,0,0,0-2,1.65,39.76,39.76,0,0,0-2.55,4.92c-.33.71-.64,1.4-1,2.07a38,38,0,0,1-5.72-6.84,3.61,3.61,0,0,0-4.9-1.38,3.91,3.91,0,0,0-1.69,5.11c2.48,5.47,6.18,9.82,9.76,13.8a4.38,4.38,0,0,0,3.13,1.43h.18a5,5,0,0,0,3.42-1.36c4.85-4.65,7.23-10.09,6.88-15.74a4.27,4.27,0,0,0-.42-1.56,4.13,4.13,0,0,0,1.25-.53c4.49-3,9-8.54,8.08-15.23a4.63,4.63,0,0,0-.75-1.89,4,4,0,0,0,1.7.6Z"/><path d="M96.87,67.49c-3.06,7.3-1.82,14.64,3.6,21.23a3.72,3.72,0,0,0,2,1.16,3.82,3.82,0,0,0,0,1.69,32.33,32.33,0,0,0,8,14.25,3.89,3.89,0,0,0,2.75,1.26h.17a4.42,4.42,0,0,0,3-1.18,32.28,32.28,0,0,0,7.67-9.82,3.83,3.83,0,0,0-1.26-4.82,3.46,3.46,0,0,0-4.59.46h0c-1.38,1.42-2.72,2.87-4.07,4.32l-.54.58a21.24,21.24,0,0,1-3.94-7,3.58,3.58,0,0,0-1.62-2.05,22.37,22.37,0,0,0,6.33-12.69,3.05,3.05,0,0,0-2.28-3.35,3.33,3.33,0,0,0-4,1.55h0a26.69,26.69,0,0,1-4.13,5.83,11.82,11.82,0,0,1-.81-9.47,3,3,0,0,0-1.91-3.85A3.44,3.44,0,0,0,96.87,67.49Z"/><path d="M9.08,59.56a14,14,0,0,0,10.38-4.4A16.82,16.82,0,0,0,23.75,42.7a3.89,3.89,0,0,0-3.17-3.53A3.23,3.23,0,0,0,16.95,41l-.45,1c-1.09,2.41-2.22,4.89-3.9,6.53a29.47,29.47,0,0,1,.1-8.62,3.85,3.85,0,0,0-3-4.45,3.46,3.46,0,0,0-4.21,2.62,41.62,41.62,0,0,0-.8,18A4.49,4.49,0,0,0,9.08,59.56Z"/><path d="M44.25,45.56a3.74,3.74,0,0,0-4.88.64,17,17,0,0,0-1.68,2.52c-.23-1.6-.34-3.24-.44-4.85-.29-4.53-7-4.55-7.24,0-.32,5.35-.39,10.58,2.32,15.72A4,4,0,0,0,36,61.73a5.47,5.47,0,0,0,2.12-.45c4.38-1.86,5.82-5.72,7.21-9.46.22-.58.43-1.17.67-1.76A3.67,3.67,0,0,0,44.25,45.56Z"/><path d="M53.41,47.49a28.27,28.27,0,0,0,4,16.82A4,4,0,0,0,60,66.1a3.4,3.4,0,0,0,.37,0A4.22,4.22,0,0,0,58,68.62a23.22,23.22,0,0,1-3.34,6.16c-.15-.43-.29-.88-.44-1.34l-.4-1.21a4.2,4.2,0,0,0-5-2.92,4.5,4.5,0,0,0-3.38,5.13c.75,5.4,1.65,9.5,6.47,13.09a4.1,4.1,0,0,0,2.48.83,4.55,4.55,0,0,0,.72-.05,5.18,5.18,0,0,0,1.29-.41A3.53,3.53,0,0,0,56,89.41c0,6.36,2.64,12.31,7.81,17.7a4.14,4.14,0,0,0,2.6,1.2,3.21,3.21,0,0,0-.15.7c-.17,4.87,1,9.58,2.11,14.13l.43,1.75a3.92,3.92,0,0,0,2.11,2.68,4.54,4.54,0,0,0,2,.45,5,5,0,0,0,2.07-.45c5.72-2.59,9-8.16,8.74-14.87a3.43,3.43,0,0,0-2.59-3.22A3.33,3.33,0,0,0,77.38,111c-.5.84-1,1.66-1.39,2.45-.57,1-1.09,2-1.66,2.86a28.39,28.39,0,0,1-2.08-7.43,3.12,3.12,0,0,0-1.86-2.43,28,28,0,0,0,6.27-9.82A3.43,3.43,0,0,0,75,92.35a4.33,4.33,0,0,0-5.33,1.12c-.7.91-1.38,1.83-2.06,2.75l-1,1.41a15.92,15.92,0,0,1-3.74-8.36A3.5,3.5,0,0,0,59.11,86a3.32,3.32,0,0,0-.55.13c.07-.09.16-.17.23-.26.56-.8,1.14-1.57,1.7-2.33,3.22-4.34,6.27-8.43,5.4-14.71a3.5,3.5,0,0,0-3.29-3.14c-.1,0-.2,0-.31,0a3.21,3.21,0,0,0,.38-.19c4.29-3,6.48-6.7,7.34-12.3a3.34,3.34,0,0,0-2.41-3.8,3.23,3.23,0,0,0-3.9,2.1h0a24.64,24.64,0,0,1-2.2,4.63A31.37,31.37,0,0,1,58,47.13a2.25,2.25,0,0,0-2.23-1.82A2.5,2.5,0,0,0,53.41,47.49Z"/><path d="M105.39,54.9c.88,3.85,1.71,7.48,5.17,10.53a4.57,4.57,0,0,0,2.93,1.2,3.37,3.37,0,0,0,1.21-.22c6.83-2.51,8.22-8.64,8.66-13.69A3.58,3.58,0,0,0,120.52,49a3.49,3.49,0,0,0-4.2,1.85c-.24.54-.47,1.1-.71,1.68a26.13,26.13,0,0,1-1.82,3.84,23.46,23.46,0,0,1-1.2-3.16c-.18-.56-.37-1.11-.56-1.66a3.64,3.64,0,0,0-4.55-2.31,3.5,3.5,0,0,0-2.41,4.29Z"/><path d="M138.08,66.62a4.12,4.12,0,0,0,2.08-.57c6-3.44,9.34-10.56,8-16.94A3.77,3.77,0,0,0,144.59,46,4.24,4.24,0,0,0,140.21,49l-.29.93a35.9,35.9,0,0,1-2,5.53A16.05,16.05,0,0,1,136.29,50,3.32,3.32,0,0,0,132.85,47,3,3,0,0,0,130,50.09a24.49,24.49,0,0,0,4.49,14.55A4.47,4.47,0,0,0,138.08,66.62Z"/><path d="M197.46,50.26a4,4,0,0,0-3.77-3.14,4.45,4.45,0,0,0-4.47,3c-.65,2-1.31,4.22-2,6.64l-.49-1.11c-.35-.81-.71-1.64-1.11-2.47a3.56,3.56,0,0,0-4.2-1.86,3.75,3.75,0,0,0-3,3.75c.34,7.23,3.31,12.94,8.58,16.5a4.49,4.49,0,0,0,2.53.77,4.75,4.75,0,0,0,1.61-.28,5.35,5.35,0,0,0,3.3-3.4c.26-.85.55-1.72.84-2.59C197,61,198.71,55.72,197.46,50.26Z"/><path d="M19.75,23.1a17.18,17.18,0,0,0,.14,4.08,41.79,41.79,0,0,0,1.88,7.13,5,5,0,0,0,4.43,3.35,4.44,4.44,0,0,0,1.38-.23c6.26-2.09,9.91-6.41,10-11.86A4,4,0,0,0,35,21.86a3.76,3.76,0,0,0-4.23,1l-.71.81c-.58.66-1.11,1.27-1.65,1.84-.87-2.37-2-4.75-4.37-6.14a2.7,2.7,0,0,0-2.7-.06,2.87,2.87,0,0,0-1.11,1.11h-.6l.14,1.54A11,11,0,0,1,19.75,23.1Z"/><path d="M53.77,21.74a3.69,3.69,0,0,0-4.79,1c-.41.53-.79,1.07-1.17,1.61,0,0,0,0,0-.07a4.29,4.29,0,0,0-4.35-4.16h0a4.28,4.28,0,0,0-4.33,4.17c-.29,5.25-.45,10,.63,14.87a4.61,4.61,0,0,0,3.65,3.63,5.44,5.44,0,0,0,1.05.1A5.65,5.65,0,0,0,49,40.51,46.05,46.05,0,0,0,56.1,26.69,4.31,4.31,0,0,0,53.77,21.74Z"/><path d="M61.24,19.15A4.22,4.22,0,0,0,57.94,24a79.11,79.11,0,0,0,5.65,18.65A4.61,4.61,0,0,0,68,45.31h0a4.73,4.73,0,0,0,4.44-2.63c.29-.65.57-1.29.86-1.92,1.81-4,3.52-7.74,2.86-12.56h0a3.88,3.88,0,0,0-3.65-3.47,5.11,5.11,0,0,0-5,2.63c-.7-1.84-1.28-3.61-1.75-5.34a4.4,4.4,0,0,0-.64-1.36,11,11,0,0,0,3.16,1.83,7.32,7.32,0,0,0,2.51.46,6.28,6.28,0,0,0,3.3-.93c3.41-2.08,5.19-7.23,5.69-11A3.9,3.9,0,0,0,77,6.7a4.59,4.59,0,0,0-5.48,1.89c-.46.81-.94,1.59-1.43,2.37l-.35.57a20.91,20.91,0,0,1-2.55-5.62A4.28,4.28,0,0,0,59,8.17c.8,3.9,2.11,8.32,5,11.37A3.75,3.75,0,0,0,61.24,19.15Z"/><path d="M82.79,48.32l-.24,0a4.19,4.19,0,0,0-4.16,4.26,30.09,30.09,0,0,0,4,15.92,4.92,4.92,0,0,0,1.79,1.73,4.53,4.53,0,0,0-1.62,2C81.78,74,81,75.69,80,77.56c-1.1-2.12-2.13-4.34-3.14-6.71a3,3,0,0,0-5.72,1.53,48.79,48.79,0,0,0,5.27,16.78,4.25,4.25,0,0,0,3.75,2.25h.09a4.72,4.72,0,0,0,1.24-.17,3.14,3.14,0,0,0-.64,1.85c-.08,6.77,2.85,12.33,5.73,16.89a4.24,4.24,0,0,0,2.74,1.87,4.13,4.13,0,0,0,1,.08,20.16,20.16,0,0,0,9.58,16,4.45,4.45,0,0,0,2.41.71,5,5,0,0,0,3.35-1.33,3.87,3.87,0,0,0,0,2.59,39,39,0,0,0,7.84,13.34,4.52,4.52,0,0,0,3.5,1.58l.4,0a5.37,5.37,0,0,0,4.13-2.48c2-3.35,3.82-7,3.62-11.23a4.32,4.32,0,0,0-3.83-4.16,4.18,4.18,0,0,0-4.63,3h0a7,7,0,0,1-.44,1.09,23.12,23.12,0,0,1-2.68-4.41,3.91,3.91,0,0,0-5.21-2,5,5,0,0,0-1.19.67,20.18,20.18,0,0,0,3-14.87h0a3.83,3.83,0,0,0-3.82-3.19,4.31,4.31,0,0,0-4.4,3.1,59.73,59.73,0,0,1-1.73,5.77,13.15,13.15,0,0,1-2.81-7.28,3.59,3.59,0,0,0-1.39-2.54,28.23,28.23,0,0,0,2.33-7.57,3.67,3.67,0,0,0-2.47-4.1A3.13,3.13,0,0,0,92,96.36c-.7,1.37-1.41,2.77-2.16,4.14A18.15,18.15,0,0,1,87.13,93,3.22,3.22,0,0,0,83.73,90c-.08,0-.14,0-.22.05a4.24,4.24,0,0,0,.69-.89l.37-.63c2.61-4.51,5.07-8.77,5.93-14.19a4.22,4.22,0,0,0-1.67-4.2c5.53-2.35,8.48-6.46,8.92-12.6A3.68,3.68,0,0,0,95,53.76a3.87,3.87,0,0,0-4.56,1.79,23.15,23.15,0,0,1-2,3.16,23.55,23.55,0,0,1-1.3-6.23A4.4,4.4,0,0,0,86.26,50h.07a5,5,0,0,0,3.57-1.44c3.25-3.36,4.5-7.05,5.59-10.84a4,4,0,0,0-2.13-4.89,4.47,4.47,0,0,0-5.61,1.47h0l-.54.81C87,34,87,32.79,86.91,31.62a4.07,4.07,0,0,0-4.14-4h0a4,4,0,0,0-4.1,4C78.33,38.23,78.93,43.34,82.79,48.32Z"/><path d="M124.41,47c.27,0,.53,0,.78,0,6.25,0,9.61-6.07,10.68-11.93a4.41,4.41,0,0,0-3-4.92,3.66,3.66,0,0,0-4.56,2l-.57,1.2c-.87,1.86-2,4.18-3.21,5.17-.38-.09-1.91-1.51-3.91-6.71a3.76,3.76,0,0,0-4.74-2.25,3.41,3.41,0,0,0-2.26,4.33C115.13,39.28,117.87,46.51,124.41,47Z"/><path d="M178.63,35.56a22.18,22.18,0,0,1-5.89-6.22,4.42,4.42,0,0,0-6.11-1.65,4.57,4.57,0,0,0-1.9,6.25c2.89,5.6,7.49,9.41,12.33,13.14a4.14,4.14,0,0,0,2.55.83,5.72,5.72,0,0,0,3.81-1.51c4.35-4.12,6.54-8.24,7.1-13.35A3.9,3.9,0,0,0,188,28.81a5.17,5.17,0,0,0-5.94,1.7c-.84,1.18-1.64,2.37-2.44,3.57Z"/><path d="M141.2,28.7a4.81,4.81,0,0,0,.59.42,4.68,4.68,0,0,0-.83,2.51c-.32,7.53,2.41,13.1,8.09,16.57a5.16,5.16,0,0,0,2.6.69,4.5,4.5,0,0,0,1.77-.4,4.9,4.9,0,0,0-.27,1.63c0,4.43,1.55,8.32,3,12.09.53,1.34,1.05,2.7,1.52,4.08a5.55,5.55,0,0,0,3.4,3.46,5,5,0,0,0,1.61.28,4.69,4.69,0,0,0,2.56-.77c4.48-2.89,10.42-7.64,10.29-15.49a4.14,4.14,0,0,0-3-4,4.55,4.55,0,0,0-5.06,1.78c-1.2,1.71-2.31,3.18-3.41,4.51a21.52,21.52,0,0,1-1.88-6.09,4.83,4.83,0,0,0-5.1-4.26c-.1,0-.17.06-.27.07a13.1,13.1,0,0,0,3.74-12.68,4,4,0,0,0-3.77-3.14,4.35,4.35,0,0,0-4.48,3A33.75,33.75,0,0,1,151,36.6a14.6,14.6,0,0,1-1.17-5,4.56,4.56,0,0,0-2.1-3.55c3.22-4.13,6.87-8.8,6.64-14.79a4.17,4.17,0,0,0-3.87-4,3.76,3.76,0,0,0-4.13,3,22.45,22.45,0,0,1-3.17,6.66,16.78,16.78,0,0,1-3.31-4.84,3.21,3.21,0,0,0-4.21-1.65,3.51,3.51,0,0,0-2.28,4.26A24.51,24.51,0,0,0,141.2,28.7Z"/><path d="M170.12,26.52l.59,0c3.25-.2,6.33-2.38,8.23-5.84s2.21-7.66.6-10.58h0a3.92,3.92,0,0,0-3-1.93,3.77,3.77,0,0,0-3.25,1.16,11.9,11.9,0,0,0-2.38,4.7,9.87,9.87,0,0,1-1.65,3.51,13.2,13.2,0,0,1-2-4A3.62,3.62,0,0,0,163.18,11a3.43,3.43,0,0,0-3,3.56,13.86,13.86,0,0,0,4,9.71A8.56,8.56,0,0,0,170.12,26.52Z"/><path d="M45.93,20.25A3.62,3.62,0,0,0,47.26,20c4.56-1.8,6.38-4.78,8.28-8.48a4.27,4.27,0,0,0-1.05-5.1A3.58,3.58,0,0,0,50,6.18,18,18,0,0,0,47,9l-.43.47a13.41,13.41,0,0,1-2-6.16A3.56,3.56,0,0,0,40.83,0a3.38,3.38,0,0,0-3.34,3.37,21.45,21.45,0,0,0,5.13,15.42A4.35,4.35,0,0,0,45.93,20.25Z"/></g></g></svg>