<svg xmlns="http://www.w3.org/2000/svg" viewBox="0 0 223.56 200"><title>Asset 23</title><g id="Layer_2" data-name="Layer 2"><g id="HKI_hearts"><path d="M160.62,93.17a6.45,6.45,0,0,0-8.1,4.18,42.77,42.77,0,0,1-81.49,0,6.44,6.44,0,0,0-12.28,3.91,55.67,55.67,0,0,0,106.07,0A6.47,6.47,0,0,0,160.62,93.17Z"/><path d="M137,71.82l-5.86,5.86A5.53,5.53,0,0,0,139,85.5l5.86-5.86,5.86,5.86a5.52,5.52,0,1,0,7.81-7.81l-5.87-5.86L158.51,66a5.53,5.53,0,0,0-7.82-7.81L144.83,64,139,58.14A5.53,5.53,0,0,0,131.16,66Z"/><path d="M69.79,71.82l-5.87,5.86a5.53,5.53,0,0,0,7.83,7.81l5.87-5.86,5.86,5.86a5.52,5.52,0,1,0,7.8-7.81l-5.86-5.86L91.28,66a5.53,5.53,0,1,0-7.81-7.81L77.61,64l-5.87-5.87A5.53,5.53,0,0,0,63.93,66Z"/><path d="M206.57,17.77c-8-8.11-22.15-17.77-44-17.77l-1.18,0c-20.69,1.48-36,10-46.83,26.17L112,30l-2.59-3.81C97.64,8.82,80.77,0,59.31,0h-.86l-.34,0C30.77,1.77,10.08,18.2,2.77,43.95c-7.66,27,1.72,57,14.41,74.72,10.55,14.7,24.65,26.8,38.3,38.5l1.69,1.45c1.6,1.37,3.18,2.73,4.74,4.1C70.31,170,77.18,175,84.46,180.36c6.87,5,13.94,10.17,23.57,18.12a7.07,7.07,0,0,0,9-.23c7.72-7.09,17.28-14.46,27.4-22.26,16-12.34,34.16-26.33,50.5-43.35,11.19-12.14,23.49-27.22,27.25-52C226.33,54,220.91,32.26,206.57,17.77Zm2,60.84c-3.19,20.92-13.44,33.49-23.66,44.58-15.48,16.11-33.15,29.74-48.75,41.77-7.61,5.87-15.34,11.83-22,17.48l-1.94,1.64-2-1.58c-6.73-5.33-12.42-9.49-17.45-13.16-7.12-5.19-13.73-10-21.83-17.05q-3.2-2.77-6.49-5.59c-13-11.18-26.51-22.74-36.06-36.07C18,96.07,9.67,70.19,16,47.72c3.35-11.8,13.35-31.9,42.65-33.9h.61c26.89,0,38.21,16.58,46.43,34.49a6.91,6.91,0,0,0,12.51.08c8.39-17.72,17.48-32.55,43.87-34.56h.49c17,0,28,7.43,34.16,13.66C210.85,41.71,211,63.14,208.59,78.6Z"/></g></g></svg>