<svg width="41" height="41" viewBox="0 0 41 41" fill="none" xmlns="http://www.w3.org/2000/svg">
<path fill-rule="evenodd" clip-rule="evenodd" d="M3.74219 0.317627C2.08533 0.317627 0.742188 1.66077 0.742188 3.31763V37.3176C0.742188 38.9745 2.08533 40.3176 3.74219 40.3176H37.7422C39.399 40.3176 40.7422 38.9745 40.7422 37.3176V3.31763C40.7422 1.66077 39.399 0.317627 37.7422 0.317627H3.74219ZM20.5576 8.31763C21.9616 8.31763 23.1385 9.50977 23.1385 10.932C23.1385 12.3929 21.9616 13.5463 20.5576 13.5463C19.1537 13.5463 17.9768 12.3929 17.9768 10.932C17.9768 9.50977 19.1537 8.31763 20.5576 8.31763ZM25.378 23.6973L22.0006 27.234L21.697 29.7716L19.2676 29.4641L19.3433 28.7724H14.4088C14.2191 28.7724 14.0669 28.6569 13.9912 28.5036C13.9155 28.3502 13.953 28.196 14.0295 28.0419L17.5593 23.3515L16.6103 22.5056C15.7753 21.7364 15.851 20.8139 16.3067 19.6604L19.7983 20.6597L19.533 21.7364H24.505L24.0118 20.3522C23.8221 20.3135 23.5942 20.198 23.3289 20.0059L20.5959 17.9299L19.9505 20.198L16.4589 19.16L17.4461 15.6998C17.9018 14.4697 19.5337 13.8926 20.6341 14.8152L24.885 18.2367C25.3783 18.6984 25.4547 19.621 24.8468 20.1206L28.2245 28.1565C28.3384 28.3487 28.1488 28.6562 27.9966 28.6949C27.8069 28.8103 27.5034 28.6562 27.4269 28.4641L25.378 23.6973ZM17.5598 29.4641H17.5593L17.56 29.4633L17.5598 29.4641ZM14.4095 31.7315C15.8514 31.7315 17.1038 30.8092 17.5598 29.4641H18.5083C17.9768 31.2713 16.3449 32.6168 14.4095 32.6168C12.0565 32.6168 10.1586 30.6942 10.1586 28.3107C10.1586 25.9272 12.0565 24.0045 14.4095 24.0045C14.941 24.0045 15.5099 24.12 15.9657 24.3121L15.4342 25.0425L15.4221 25.0398L15.422 25.0398C15.0843 24.964 14.7473 24.8884 14.4095 24.8884C12.5115 24.8884 10.9936 26.426 10.9936 28.3099C10.9936 30.1938 12.5115 31.7315 14.4095 31.7315ZM15.282 27.849H19.4947L19.8365 25.2347L18.1665 24.0045L15.282 27.849ZM18.5083 27.1573C18.3186 26.6576 18.0907 26.158 17.7872 25.6963L17.2175 26.4655C17.3191 26.6191 17.3866 26.7731 17.4541 26.9271L17.4541 26.9271L17.4541 26.9272C17.4878 27.0038 17.5214 27.0806 17.5593 27.1573H18.5083ZM20.0262 22.6203H24.9225V22.6195L24.9982 22.8116L22.1895 25.7723L22.4174 24.35L20.0262 22.6203ZM32.0579 28.3107C32.0579 30.6942 30.1599 32.6168 27.8069 32.6168C25.4915 32.6168 23.556 30.6942 23.556 28.3107C23.556 26.9264 24.2014 25.7351 25.1504 24.9659L25.5297 25.8117C24.8843 26.4268 24.4668 27.3494 24.4668 28.3107C24.4668 30.1946 25.9847 31.7322 27.8069 31.7322C29.6667 31.7322 31.1846 30.1946 31.1846 28.3107C31.1846 26.4268 29.6667 24.8892 27.8069 24.8892C27.7312 24.8892 27.693 24.8892 27.5791 24.9279L27.2373 24.082C27.4269 24.0433 27.6166 24.0053 27.8069 24.0053C30.1599 24.0053 32.0579 25.9279 32.0579 28.3114V28.3107Z" fill="#FCBC19"/>
</svg>
