<?xml version="1.0" encoding="utf-8"?>
<!-- Generator: Adobe Illustrator 23.0.4, SVG Export Plug-In . SVG Version: 6.00 Build 0)  -->
<svg version="1.1" id="Layer_1" xmlns="http://www.w3.org/2000/svg" xmlns:xlink="http://www.w3.org/1999/xlink" x="0px" y="0px"
	 viewBox="0 0 41 41" style="enable-background:new 0 0 41 41;" xml:space="preserve">
<style type="text/css">
	.st0{fill-rule:evenodd;clip-rule:evenodd;fill:#64BE1E;}
</style>
<path class="st0" d="M3.7,0.3c-1.7,0-3,1.3-3,3v34c0,1.7,1.3,3,3,3h34c1.7,0,3-1.3,3-3v-34c0-1.7-1.3-3-3-3H3.7z M16.3,28l-2.6,3.1
	l2.3,1.9l2.7-3.2l1.9-3.9l3.6,7.2l2.7-1.4l-4.5-9.1L19,22.5v0.6c0,0.6-0.3,1.1-0.7,1.4v0c-0.2,0.1-0.3,0.2-0.5,0.3l0,0L16.3,28z
	 M21.4,15.7c-0.7-0.6-1.5-0.8-2.4-0.8c-0.6,0-1.1,0.2-1.4,0.6l-1.9,3.3L15.7,23c0,0.4,0.2,0.8,0.4,1c0.3,0.2,0.5,0.4,1,0.4
	s0.7-0.1,1-0.3c0.3-0.2,0.4-0.5,0.4-1l0.1-3.6l0.6-0.9l0,3.3l3.4,0.1l0.1-3.7C22.5,17.2,22.2,16.4,21.4,15.7z M23.9,11.5
	c0,1.7-1.5,3.1-3.2,3.1c-1.7,0-3.1-1.5-3.1-3.2c0-1.7,1.5-3.1,3.2-3.1C22.5,8.4,23.9,9.8,23.9,11.5z M25.8,21.2
	c-0.2,0.2-0.5,0.4-1,0.4l-1.9,0l0-2.8l1.9,0c0.4,0,0.8,0.2,1,0.4c0.2,0.3,0.3,0.6,0.3,1C26.1,20.6,26,20.9,25.8,21.2z"/>
</svg>
