<svg width="47" height="69" viewBox="0 0 47 69" fill="none" xmlns="http://www.w3.org/2000/svg">
<path fill-rule="evenodd" clip-rule="evenodd" d="M23.4325 37.7395C31.0261 37.7395 37.1819 31.5837 37.1819 23.9902C37.1819 16.3966 31.0261 10.2408 23.4325 10.2408C15.839 10.2408 9.68323 16.3966 9.68323 23.9902C9.68323 31.5837 15.839 37.7395 23.4325 37.7395Z" fill="white"/>
<mask id="path-2-outside-1" maskUnits="userSpaceOnUse" x="0.483521" y="0.384094" width="46" height="69" fill="black">
<rect fill="white" x="0.483521" y="0.384094" width="46" height="69"/>
<path fill-rule="evenodd" clip-rule="evenodd" d="M14.2677 23.3354C14.2677 18.2809 18.3794 14.1692 23.4339 14.1692C28.4884 14.1692 32.6001 18.2809 32.6001 23.3354C32.6001 28.3899 28.4884 32.5016 23.4339 32.5016C18.3794 32.5016 14.2677 28.3899 14.2677 23.3354ZM23.4349 65.2381C23.4349 65.2381 44.3862 34.9065 44.3862 23.3354C44.3862 11.7643 35.006 2.38409 23.4349 2.38409C11.8638 2.38409 2.48352 11.7643 2.48352 23.3354C2.48352 34.9065 23.4349 65.2381 23.4349 65.2381Z"/>
</mask>
<path fill-rule="evenodd" clip-rule="evenodd" d="M14.2677 23.3354C14.2677 18.2809 18.3794 14.1692 23.4339 14.1692C28.4884 14.1692 32.6001 18.2809 32.6001 23.3354C32.6001 28.3899 28.4884 32.5016 23.4339 32.5016C18.3794 32.5016 14.2677 28.3899 14.2677 23.3354ZM23.4349 65.2381C23.4349 65.2381 44.3862 34.9065 44.3862 23.3354C44.3862 11.7643 35.006 2.38409 23.4349 2.38409C11.8638 2.38409 2.48352 11.7643 2.48352 23.3354C2.48352 34.9065 23.4349 65.2381 23.4349 65.2381Z" fill="#EC5188"/>
<path d="M23.4349 65.2381L21.7893 66.3748L23.4349 68.7571L25.0804 66.3748L23.4349 65.2381ZM16.2677 23.3354C16.2677 19.3855 19.4839 16.1692 23.4339 16.1692V12.1692C17.2748 12.1692 12.2677 17.1763 12.2677 23.3354H16.2677ZM23.4339 16.1692C27.3838 16.1692 30.6001 19.3855 30.6001 23.3354H34.6001C34.6001 17.1763 29.593 12.1692 23.4339 12.1692V16.1692ZM30.6001 23.3354C30.6001 27.2854 27.3838 30.5016 23.4339 30.5016V34.5016C29.593 34.5016 34.6001 29.4945 34.6001 23.3354H30.6001ZM23.4339 30.5016C19.4839 30.5016 16.2677 27.2854 16.2677 23.3354H12.2677C12.2677 29.4945 17.2748 34.5016 23.4339 34.5016V30.5016ZM23.4349 65.2381C25.0804 66.3748 25.0806 66.3745 25.0809 66.3742C25.0811 66.3739 25.0814 66.3734 25.0818 66.3728C25.0826 66.3717 25.0837 66.3701 25.0851 66.3681C25.0879 66.364 25.0919 66.3581 25.0972 66.3504C25.1079 66.335 25.1234 66.3124 25.1438 66.2827C25.1846 66.2233 25.2445 66.1358 25.3224 66.0216C25.4782 65.7932 25.7057 65.4581 25.9948 65.0282C26.5728 64.1686 27.3972 62.9296 28.3858 61.4073C30.3619 58.3646 32.9998 54.1817 35.6405 49.6295C38.2774 45.0838 40.9372 40.1357 42.9436 35.5688C44.914 31.0839 46.3862 26.6825 46.3862 23.3354H42.3862C42.3862 25.774 41.2395 29.5031 39.2815 33.9598C37.3596 38.3344 34.7815 43.1388 32.1805 47.6224C29.5834 52.0994 26.9834 56.2227 25.0312 59.2287C24.0556 60.7308 23.2432 61.9519 22.6754 62.7962C22.3916 63.2183 22.169 63.5461 22.0179 63.7677C21.9423 63.8785 21.8847 63.9627 21.8461 64.0188C21.8269 64.0469 21.8124 64.0679 21.8029 64.0817C21.7981 64.0886 21.7946 64.0938 21.7923 64.0971C21.7912 64.0987 21.7903 64.0999 21.7898 64.1006C21.7896 64.101 21.7894 64.1012 21.7893 64.1014C21.7893 64.1015 21.7893 64.1014 23.4349 65.2381ZM46.3862 23.3354C46.3862 10.6598 36.1105 0.384094 23.4349 0.384094V4.38409C33.9014 4.38409 42.3862 12.8689 42.3862 23.3354H46.3862ZM23.4349 0.384094C10.7592 0.384094 0.483521 10.6598 0.483521 23.3354H4.48352C4.48352 12.8689 12.9683 4.38409 23.4349 4.38409V0.384094ZM0.483521 23.3354C0.483521 26.6825 1.95572 31.0839 3.92609 35.5688C5.93255 40.1357 8.59228 45.0838 11.2292 49.6295C13.8699 54.1817 16.5078 58.3646 18.4839 61.4073C19.4725 62.9296 20.2969 64.1686 20.8749 65.0282C21.164 65.4581 21.3915 65.7932 21.5473 66.0216C21.6252 66.1358 21.6852 66.2233 21.7259 66.2827C21.7463 66.3124 21.7619 66.335 21.7725 66.3504C21.7778 66.3581 21.7819 66.364 21.7847 66.3681C21.7861 66.3701 21.7871 66.3717 21.7879 66.3728C21.7883 66.3734 21.7886 66.3739 21.7888 66.3742C21.7891 66.3745 21.7893 66.3748 23.4349 65.2381C25.0804 64.1014 25.0805 64.1015 25.0804 64.1014C25.0803 64.1012 25.0801 64.101 25.0799 64.1006C25.0794 64.0999 25.0786 64.0987 25.0774 64.0971C25.0752 64.0938 25.0716 64.0886 25.0669 64.0817C25.0573 64.0679 25.0429 64.0469 25.0236 64.0188C24.9851 63.9627 24.9274 63.8785 24.8518 63.7677C24.7007 63.5461 24.4781 63.2183 24.1943 62.7962C23.6266 61.9519 22.8141 60.7308 21.8385 59.2287C19.8863 56.2227 17.2863 52.0994 14.6892 47.6224C12.0883 43.1388 9.51017 38.3344 7.58824 33.9598C5.63024 29.5031 4.48352 25.774 4.48352 23.3354H0.483521Z" fill="white" mask="url(#path-2-outside-1)"/>
</svg>
