<svg width="41" height="41" viewBox="0 0 41 41" fill="none" xmlns="http://www.w3.org/2000/svg">
<path fill-rule="evenodd" clip-rule="evenodd" d="M3.74219 0.317627C2.08533 0.317627 0.742188 1.66077 0.742188 3.31763V37.3176C0.742188 38.9745 2.08533 40.3176 3.74219 40.3176H37.7422C39.399 40.3176 40.7422 38.9745 40.7422 37.3176V3.31763C40.7422 1.66077 39.399 0.317627 37.7422 0.317627H3.74219ZM31.4597 16.8925L32.9801 16.5032C33.6754 16.33 34.1099 15.8104 34.023 15.1613C33.9799 14.5122 33.2847 14.0362 32.5895 14.0791L30.3299 14.5122L28.7664 11.7416C28.1142 10.5291 27.5928 9.96663 26.0293 9.70681C24.3351 9.49072 22.9446 9.3175 20.5121 9.3175C18.1275 9.3175 16.8711 9.47811 15.2685 9.68295C15.2068 9.69084 15.1446 9.6988 15.0817 9.70681C13.5174 9.96663 12.996 10.5291 12.3446 11.7416L10.7811 14.5122L8.47857 14.0791C7.74029 14.0354 7.08807 14.5122 7.04504 15.1613C6.95814 15.8104 7.39267 16.33 8.04404 16.5032L9.65137 16.8925C8.5216 17.7149 8.04404 19.2738 8.04404 20.3559V24.3389C8.04404 25.3774 8.82535 26.2872 10.042 26.5032V28.7979C10.042 29.1443 10.3458 29.3175 10.6934 29.3175H12.996C13.3006 29.3175 13.6043 29.1443 13.6043 28.7979V26.8925C14.0411 26.9128 14.5112 26.9378 15.0078 26.9642C16.6352 27.0507 18.5481 27.1524 20.5121 27.1524C22.4856 27.1524 24.4855 27.0462 26.1363 26.9585C26.5936 26.9342 27.0241 26.9113 27.4198 26.8925V28.7979C27.4198 29.1443 27.7244 29.3175 28.0282 29.3175H30.3307C30.6784 29.3175 30.9821 29.1443 30.9821 28.7979V26.5032C32.2418 26.2872 33.024 25.3782 33.024 24.3389V20.3559C33.024 19.2738 32.5895 17.7149 31.4597 16.8925ZM10.3027 19.88L15.0378 20.3559L15.0387 20.3568V21.0925C15.0387 21.6987 14.5173 22.088 13.9089 22.088H11.4756C10.8672 22.088 10.3027 21.6987 10.3027 21.0925V19.88ZM20.6859 16.8925C17.6442 16.8925 14.3426 16.7193 11.7363 16.3729H11.7371L13.7351 12.3033C14.0827 11.5667 14.4734 11.264 15.2555 11.0908C16.776 10.7881 18.1226 10.7015 20.5121 10.7015C22.9016 10.7015 24.3351 10.7881 25.8555 11.0908C26.6377 11.264 27.0283 11.5676 27.3759 12.3033L29.3748 16.3729C26.5069 16.8059 23.5529 16.8925 20.6859 16.8925ZM26.2031 20.3559L30.8513 19.88V21.0917C30.8513 21.6979 30.2869 22.0872 29.6785 22.0872H27.3329C26.7246 22.0872 26.2031 21.6979 26.2031 21.0917V20.3559Z" fill="#525A66"/>
</svg>
