<svg width="74" height="74" viewBox="0 0 74 74" fill="none" xmlns="http://www.w3.org/2000/svg">
<path fill-rule="evenodd" clip-rule="evenodd" d="M37 8C20.9837 8 8 20.9837 8 37C8 53.0163 20.9837 66 37 66C53.0163 66 66 53.0163 66 37C66 20.9837 53.0163 8 37 8ZM0 37C0 16.5655 16.5655 0 37 0C57.4345 0 74 16.5655 74 37C74 57.4345 57.4345 74 37 74C16.5655 74 0 57.4345 0 37Z" fill="white"/>
<path fill-rule="evenodd" clip-rule="evenodd" d="M37 7C20.4315 7 7 20.4315 7 37C7 38.6569 5.65685 40 4 40C2.34315 40 1 38.6569 1 37C1 17.1177 17.1177 1 37 1C56.8823 1 73 17.1177 73 37C73 56.8823 56.8823 73 37 73C35.3431 73 34 71.6569 34 70C34 68.3431 35.3431 67 37 67C53.5685 67 67 53.5685 67 37C67 20.4315 53.5685 7 37 7Z" fill="#EE94CC"/>
</svg>
