<svg width="46" height="68" viewBox="0 0 46 68" fill="none" xmlns="http://www.w3.org/2000/svg">
<path fill-rule="evenodd" clip-rule="evenodd" d="M22.7416 37.1926C30.2319 37.1926 36.3041 31.1205 36.3041 23.6301C36.3041 16.1398 30.2319 10.0676 22.7416 10.0676C15.2512 10.0676 9.17908 16.1398 9.17908 23.6301C9.17908 31.1205 15.2512 37.1926 22.7416 37.1926Z" fill="white"/>
<mask id="path-2-outside-1" maskUnits="userSpaceOnUse" x="0.0761719" y="0.317627" width="46" height="68" fill="black">
<rect fill="white" x="0.0761719" y="0.317627" width="46" height="68"/>
<path fill-rule="evenodd" clip-rule="evenodd" d="M13.7012 22.9843C13.7012 17.9985 17.757 13.9426 22.7428 13.9426C27.7287 13.9426 31.7845 17.9985 31.7845 22.9843C31.7845 27.9701 27.7287 32.026 22.7428 32.026C17.757 32.026 13.7012 27.9701 13.7012 22.9843ZM22.7428 64.3176C22.7428 64.3176 43.4095 34.3982 43.4095 22.9843C43.4095 11.5704 34.1567 2.31763 22.7428 2.31763C11.329 2.31763 2.07617 11.5704 2.07617 22.9843C2.07617 34.3982 22.7428 64.3176 22.7428 64.3176Z"/>
</mask>
<path fill-rule="evenodd" clip-rule="evenodd" d="M13.7012 22.9843C13.7012 17.9985 17.757 13.9426 22.7428 13.9426C27.7287 13.9426 31.7845 17.9985 31.7845 22.9843C31.7845 27.9701 27.7287 32.026 22.7428 32.026C17.757 32.026 13.7012 27.9701 13.7012 22.9843ZM22.7428 64.3176C22.7428 64.3176 43.4095 34.3982 43.4095 22.9843C43.4095 11.5704 34.1567 2.31763 22.7428 2.31763C11.329 2.31763 2.07617 11.5704 2.07617 22.9843C2.07617 34.3982 22.7428 64.3176 22.7428 64.3176Z" fill="#64BE14"/>
<path d="M22.7428 64.3176L21.0973 65.4543L22.7428 67.8366L24.3884 65.4543L22.7428 64.3176ZM15.7012 22.9843C15.7012 19.103 18.8616 15.9426 22.7428 15.9426V11.9426C16.6524 11.9426 11.7012 16.8939 11.7012 22.9843H15.7012ZM22.7428 15.9426C26.6241 15.9426 29.7845 19.103 29.7845 22.9843H33.7845C33.7845 16.8939 28.8332 11.9426 22.7428 11.9426V15.9426ZM29.7845 22.9843C29.7845 26.8656 26.6241 30.026 22.7428 30.026V34.026C28.8332 34.026 33.7845 29.0747 33.7845 22.9843H29.7845ZM22.7428 30.026C18.8616 30.026 15.7012 26.8656 15.7012 22.9843H11.7012C11.7012 29.0747 16.6524 34.026 22.7428 34.026V30.026ZM22.7428 64.3176C24.3884 65.4543 24.3886 65.454 24.3889 65.4537C24.3891 65.4534 24.3894 65.4529 24.3898 65.4524C24.3905 65.4513 24.3916 65.4497 24.393 65.4477C24.3958 65.4437 24.3998 65.4379 24.405 65.4303C24.4155 65.415 24.4309 65.3927 24.451 65.3634C24.4912 65.3048 24.5503 65.2185 24.6272 65.1058C24.7809 64.8804 25.0054 64.5498 25.2905 64.1257C25.8608 63.2777 26.674 62.0554 27.6493 60.5537C29.5988 57.552 32.201 53.4256 34.8062 48.9347C37.4075 44.4504 40.0317 39.5686 42.0114 35.0623C43.9551 30.6382 45.4095 26.292 45.4095 22.9843H41.4095C41.4095 25.3835 40.2806 29.0575 38.3493 33.4534C36.454 37.7672 33.9115 42.5053 31.3462 46.9276C28.7847 51.3433 26.2203 55.4101 24.2947 58.375C23.3325 59.8566 22.5311 61.061 21.9712 61.8937C21.6912 62.3101 21.4717 62.6334 21.3227 62.8519C21.2482 62.9611 21.1913 63.0442 21.1533 63.0995C21.1343 63.1272 21.12 63.1479 21.1106 63.1615C21.1059 63.1684 21.1025 63.1734 21.1002 63.1766C21.0991 63.1783 21.0983 63.1794 21.0978 63.1802C21.0976 63.1805 21.0974 63.1807 21.0973 63.1809C21.0972 63.181 21.0973 63.1809 22.7428 64.3176ZM45.4095 22.9843C45.4095 10.4658 35.2613 0.317627 22.7428 0.317627V4.31763C33.0522 4.31763 41.4095 12.675 41.4095 22.9843H45.4095ZM22.7428 0.317627C10.2244 0.317627 0.0761719 10.4658 0.0761719 22.9843H4.07617C4.07617 12.675 12.4335 4.31763 22.7428 4.31763V0.317627ZM0.0761719 22.9843C0.0761719 26.292 1.53058 30.6382 3.47426 35.0623C5.45403 39.5686 8.07818 44.4504 10.6795 48.9347C13.2847 53.4256 15.8869 57.552 17.8364 60.5537C18.8116 62.0554 19.6249 63.2777 20.1951 64.1257C20.4803 64.5498 20.7048 64.8804 20.8585 65.1058C20.9353 65.2185 20.9945 65.3048 21.0347 65.3634C21.0548 65.3927 21.0702 65.415 21.0807 65.4303C21.0859 65.4379 21.0899 65.4437 21.0927 65.4477C21.0941 65.4497 21.0951 65.4513 21.0959 65.4524C21.0963 65.4529 21.0966 65.4534 21.0968 65.4537C21.0971 65.454 21.0973 65.4543 22.7428 64.3176C24.3884 63.1809 24.3884 63.181 24.3884 63.1809C24.3883 63.1807 24.3881 63.1805 24.3879 63.1802C24.3874 63.1794 24.3866 63.1783 24.3855 63.1766C24.3832 63.1734 24.3797 63.1684 24.3751 63.1615C24.3657 63.1479 24.3514 63.1272 24.3324 63.0995C24.2944 63.0442 24.2375 62.9611 24.163 62.8519C24.014 62.6334 23.7944 62.3101 23.5145 61.8937C22.9545 61.061 22.1532 59.8566 21.191 58.375C19.2654 55.4101 16.701 51.3433 14.1395 46.9276C11.5742 42.5053 9.03165 37.7672 7.13641 33.4534C5.2051 29.0575 4.07617 25.3835 4.07617 22.9843H0.0761719Z" fill="white" mask="url(#path-2-outside-1)"/>
</svg>
