<svg width="41" height="41" viewBox="0 0 41 41" fill="none" xmlns="http://www.w3.org/2000/svg">
<path fill-rule="evenodd" clip-rule="evenodd" d="M0.742188 3.31763C0.742188 1.66077 2.08533 0.317627 3.74219 0.317627H37.7422C39.399 0.317627 40.7422 1.66077 40.7422 3.31763V37.3176C40.7422 38.9745 39.399 40.3176 37.7422 40.3176H3.74219C2.08533 40.3176 0.742188 38.9745 0.742188 37.3176V3.31763ZM11.2526 8.91386C14.3918 8.47662 17.2537 8.31763 20.5529 8.31763H20.5549C23.7348 8.31763 26.6354 8.51637 29.8153 8.91386C30.7693 9.0331 31.3258 9.58959 31.3258 10.4243V29.0248C31.3258 29.6607 30.9283 30.0185 30.4911 30.1377L29.2986 30.3365V32.8406C29.2986 33.1189 29.0601 33.3176 28.7421 33.3176H26.8342C26.5957 33.3176 26.3174 33.1189 26.3174 32.8406V30.6147C24.807 30.8135 22.6208 30.893 20.4744 30.893C18.3677 30.893 16.261 30.8135 14.7108 30.6147V32.8406C14.7108 33.1189 14.4723 33.3176 14.2338 33.3176H12.3259C12.0079 33.3176 11.7694 33.1189 11.7694 32.8406V30.3365L10.5769 30.1377C10.1794 30.0185 9.74219 29.621 9.74219 29.0248V10.4243C9.74219 9.58959 10.2987 9.0331 11.2526 8.91386ZM20.7912 25.0905C23.6919 25.0905 26.6731 24.693 28.9387 24.2955C29.5747 24.216 29.7735 23.9377 29.7735 23.421V11.8154C29.7735 11.2986 29.5747 10.9409 28.9387 10.9409L12.5245 10.8614C11.8885 10.8614 11.65 11.2191 11.65 11.7359V23.3415C11.65 23.8582 11.8885 24.0967 12.5245 24.216C14.8299 24.7327 17.7306 25.0905 20.7912 25.0905ZM12.286 27.1177C12.3257 26.601 12.8027 26.124 13.3592 26.124C13.9157 26.124 14.3926 26.601 14.3926 27.1177C14.3926 27.7139 13.9157 28.1909 13.3592 28.1909C12.7629 28.1512 12.286 27.6742 12.286 27.1177ZM27.9461 26.124C27.4293 26.124 26.9523 26.601 26.9126 27.1177C26.9126 27.6742 27.3896 28.1512 27.9461 28.1909C28.5025 28.1909 28.9795 27.7139 28.9795 27.1177C28.9795 26.601 28.5025 26.124 27.9461 26.124Z" fill="#007AC9"/>
</svg>
