<svg xmlns="http://www.w3.org/2000/svg" viewBox="0 0 187.08 200"><defs><style>.cls-1{fill:#cfe4f5;}</style></defs><title>Asset 133</title><g id="Layer_2" data-name="Layer 2"><g id="HKI_hearts"><path class="cls-1" d="M68.09,73.56c1.81-1.92,4.4-3.41,4.16-6.28a4.81,4.81,0,0,0-3.35-3.42c-6.16-1.42-8.85,7.74-14.19,11.07-1.93,1.22-5.37,2.59-8.12,1.64s-5.24-6.48-6.14-8.29c-1.81-3.63-1.62-7.19-4.37-10.72-1.54-2-7.18-9.73-13.61-9.7-1.48,0-4.41.26-4.56,1.43-.08,3.64,3.61,4.34,4.38,7.32-1.7,2.55-6.19.77-6.72,4.82.28,4.16,9.31,2.43,13.13,1.24,3.58,5.52,4.16,11.4,9,16.19,7.24,7.25,19.78,5.78,26,.18C65,77.86,66.27,75.49,68.09,73.56Z"/><path class="cls-1" d="M71.59,133.94c1.45-.26,2.78-1.36,4.31-1.35s3.38,1,5.12,1.37c3.36.67,7.8,1.34,10.16.12,1.74-.9,5.7-7.59,6.85-12.72,2.07-9.26-2.06-13.65-7.83-16,.05-4.18,1.43-10,.26-13.54-1-2.94-3.58-3.63-7-2.36-1.9,3.5-1.66,9.11-2.48,14-.71,4.3-2.59,7.9-.5,10.13,2.38,1.54,5,1,7.8,1,1,4.5-1.09,11.59-4.29,13.43-4.86-.37-9.48-2.56-13.66-2.43-1.63.06-2.66,1.4-4.26,1-4.49-1.39-5.26-9.86-1.75-13.41,3.14,1.54,9.25,2.6,10.63-.57C74.49,105.57,76.73,97,76.75,89c-1.11-2.33-6.11-4.31-8.3-1.8-1,6.53-2.15,10.71-2.89,16.23a13.41,13.41,0,0,0-12.7,11.26c-.92,5.23.35,11.71,2.77,14.29C60.23,131.93,65.11,135.1,71.59,133.94Z"/><path class="cls-1" d="M106.2,143.87c-1.69-1.52-4.56-1.38-7.33-1.66a25.87,25.87,0,0,0-2.06-4.77c-2.79-.82-4.06-1.78-6.64-1.2-1.73.38-3,2.43-4.5,2.83s-3.1-.28-4.55.19c-4.09,1.34-6.86,7.9-13.22,6.3-.12,1.76,1.57,4.73,1.88,6.26.36,1.81,4,6.51,5.37,7.46,8,5.5,32.76-4,33.47-7.57.25-1.24-.54-2.34-1-3.89C107,146,107.35,144.91,106.2,143.87Zm-16.56,8.9c-3.22.77-8.33,3.5-10.44-.91,2.6-3.71,10.31,1.25,12.48-3.38,1.28.9,2.8,1.61,4.23,2.42C94.82,152.26,92.13,152.16,89.64,152.77Z"/><path class="cls-1" d="M151.81,58.23c-1.44.51-2,3-3.19,4.51-1,1.19-2.74,2.32-4.27,4-1.32,1.47-2.47,3.3-4,4.79-1.33,1.3-3.21,2.33-4.6,3.59-1.82,1.66-3,3.57-4.31,4.37-5.57,3.5-12.29,2.5-15.46-3-3-5.23-2.69-13.15-7.38-16.77-2.15-.74-14.81-7.55-16.75-1.66-1.32,4,7.2,5.55,9.47,8.72C97,67.28,91,65.83,88,68.1c-1.2,8.5,10.71,4,16.68,5.44,2.63,7.47,6,12.79,14,15.29,10.1,3.17,18-1.08,23.33-5.81,1.33-1.17,2.89-2.08,4.17-3.26l6.82-6.32c.53-.5,1.17-1.73,1.8-2.42,2.23-2.38,4.94-6.69,3.93-10.45C156.88,58.7,154,57.44,151.81,58.23Z"/><path class="cls-1" d="M186.46,41.69a53.52,53.52,0,0,0-4.9-14.51C176.86,17.33,168.63,9.93,158,4.69a52.36,52.36,0,0,0-10.85-3.6c-4-1-8.49-.69-12.32-1C129.18-.49,113.07,4.35,111.24,5c-2.46.83-5.8,2.93-9.22,4.52-3.06,1.44-7.57,4.25-9.55,4.11-1.78-.12-3.52-2-5.67-3A66.68,66.68,0,0,0,65.93,5.43c-6.63-.58-12.16.22-17.78.45-4.24.17-8.3-.05-12.16.77-4.86,1-8.29,3.62-12.8,6-7.66,4-9.87,5.4-14.74,12.51C6.62,27.81,4.27,30.4,3,32.74-1.78,41.44.13,54.1,2.07,61.67,3,65.26,3.41,69,4.22,71.74c1,3.36,3.13,6.68,4.76,10.39,3.16,7.19,5.9,14.25,9.09,21.1,1.61,3.45,3,7.39,4.76,10.39,3.1,5.18,7.93,9.94,11.31,15.33,3.6,5.78,6.67,11.85,10.43,16.37,2.68,3.23,11.27,13.13,12.46,15.12,1.35,2.26,2,4.8,3.31,6.82,1.46,2.31,4.24,4.47,5.9,7.13,1.41,2.25,7.23,9.79,8.71,12,.64,1,6.74,11.07,8.75,11.63,1.2.33,2.59,2.23,4.67,1.92s12.36-8.49,15-11.94c1.42-1.83,8.78-9.67,10.94-12.23,2.33-2.77,4-6.34,6.43-9.39,3.7-4.76,7.37-8.33,10.7-13.39,2.32-3.55,4.46-7.34,6.93-10.46,1.27-1.61,6.15-8,7.22-9.67s8.17-11.06,10-14.22c2.27-3.83,4-7.7,6.3-11.31,1.17-1.81,2.45-3.39,3.66-5.2,3.31-5,5.81-9.64,9-14.74,1.88-3,10.4-20,11.5-26.11A63.05,63.05,0,0,0,186.46,41.69Zm-14.9,24.63c-.91,2.69-4.6,10.61-5.26,12.17a76.77,76.77,0,0,1-5.74,9.86c-3.88,6.19-7.83,12.57-11.8,19.28-1.86,3.12-4.5,5.67-6.36,8.64-1.15,1.85-1.86,3.92-3,5.67s-2.15,3.32-3.24,4.88c-4.24,6.09-9.12,12.11-13.61,18.69-1.13,1.63-2,3.36-3.23,4.88s-2.71,2.51-3.91,4c-2.18,2.83-3.86,6-6,8.69s-4.3,5.39-6.63,7.87c-4.87,5.17-9,10.55-13.88,14.87-4-5.35-7.91-10.51-12.38-15.85-1.68-2-3.93-3.8-5.3-5.93-2-3-11.66-17.55-15.87-21.17-7.21-7.47-11.62-18.15-18.2-26.74-2.14-2.8-4.9-5.39-6.51-8.35-1.17-2.16-2.14-5-3.22-7.56-5-11.74-11.66-24.17-15-37.67C11.09,56.74,9.37,50.73,9.8,44.89c.67-9.26,6-13.57,10.73-19.79,6-3.7,11.52-6.7,18.73-8.26a53.6,53.6,0,0,1,12.16-.77c4.12.07,8.36-.44,12.44,0,6.92.78,12.8,2.34,17.5,4.79,9.92,5.19,15.72,12,21.16,21.08,2.35,3.92,3.84,7.47,6.94,8,2.95.53,5.83-.08,7.1-2.52,1.54-4.75-1.16-7.88-2.8-10.9-2.81-5.12-6.88-10-10.62-14.88.34-1.67,2.4-1.94,3.7-2.57,4.34-2.11,9.89-3.44,15.37-5.28,3.91-1.3,7.57-2.6,11-3.55,3.79-1.06,14.13,2,18.72,4.19,3.65,1.74,7,4.67,10,7.27,4.83,4.11,8.46,8.23,10.2,15.21.63,2.54.47,6,.72,9.52C173.33,52.93,173.72,59.9,171.56,66.32Z"/></g></g></svg>