<svg xmlns="http://www.w3.org/2000/svg" viewBox="0 0 261.38 200"><defs><style>.cls-1{fill:#cfe4f5;}</style></defs><title>Asset 122</title><g id="Layer_2" data-name="Layer 2"><g id="HKI_hearts"><rect class="cls-1" x="240.99" y="16.75" width="20.39" height="20.22"/><rect class="cls-1" x="200.71" width="20.1" height="20.22"/><rect class="cls-1" x="180.53" y="119.7" width="20.29" height="20.22"/><path class="cls-1" d="M200.71,60.38h20.1V40.1h-20.1v20H180.48v-20h-20.1v20H140.63v-20H120.47V60.2H100.53V79.89l-.58.18H80V60.2H59.85V40.08H39.68v20H19.75V79.77H0v39.91H19.93v20.24H40.1V160H60V179.9h20V200h20.16V179.85h20.1V160h20V139.92h20V119.7h20.06V80.2h20.29v20h20.1V79.78H200.71Zm-20.22,19.4h-20V60.38h20Z"/><rect class="cls-1" x="140.05" y="160.27" width="20.35" height="20.29"/></g></g></svg>