<svg xmlns="http://www.w3.org/2000/svg" viewBox="0 0 220 200"><defs><style>.cls-1{fill:#cfe4f5;}</style></defs><title>Asset 147</title><g id="Layer_2" data-name="Layer 2"><g id="HKI_hearts"><path class="cls-1" d="M217.81,49.09a19.2,19.2,0,0,0-3.33-2.49l-.86-.56c-2.68-1.79-3.65-4.16-3-7.47a17.5,17.5,0,0,1,.43-1.76,19.43,19.43,0,0,0,.53-2.28c.57-3.8-1.26-6.5-5-7.42l-1.67-.37c-1.17-.26-2.34-.52-3.5-.83-5-1.33-7.54-4.37-8-9.57a7.3,7.3,0,0,0-3.55-5.89,7.67,7.67,0,0,0-7.21.17c-.64.32-1.24.7-1.85,1.07-.35.22-.7.44-1,.64a12,12,0,0,1-9.34,1.4,11.93,11.93,0,0,1-7.05-6.26,6.23,6.23,0,0,0-10.86-1,8.7,8.7,0,0,0-.78,1.24c-.12.21-.23.43-.37.63a9.75,9.75,0,0,1-1.32,1.8,9.7,9.7,0,0,1-2.33-.59c-2.38-.75-4.18-.74-5.64,0s-2.42,2.21-3.07,4.45-1.45,3-3.45,3.07c-3.36.15-5.36,2.28-5.64,6,0,.59,0,1.18,0,1.77s0,1,0,1.53c-.29,5.14-3.22,9-7.46,9.91s-6.5,3.32-7,7.63c-.24,2.23-1.45,4.24-3.83,6.33s-4,1.81-5.63.65-2.33-2.46-1-5.5c2.06-4.83,1.2-7.2-3.41-9.4-2.91-1.39-3-1.61-2.26-4.75,1.06-4.33-.53-7.12-4.72-8.28a9.2,9.2,0,0,0-1.07-.2c-.21,0-.41-.06-.58-.09-4.37-1.09-6.1-3.17-6.41-7.64l0-.78c0-.45,0-.9,0-1.37-.35-3.41-1.85-5-3-5.73S80.09,5.89,77,7.09a10.59,10.59,0,0,0-1.08.48,8.12,8.12,0,0,1-.8.36C71,9.37,66.64,8.16,64.78,5l-.29-.49C63.25,2.41,61.7-.26,58,0c-4.71.29-5.76,4.61-6.2,6.44-1.19,4.76-4.3,7.2-9.79,7.69a19.85,19.85,0,0,1-5.29-.63L36,13.37a10.45,10.45,0,0,1-1.74-.62A14.17,14.17,0,0,0,32.14,12a6.35,6.35,0,0,0-5.19.8,6.18,6.18,0,0,0-2.52,4.42,7.49,7.49,0,0,0,.08,2.28c0,.29.09.58.11.88.26,4.41-1.41,9.56-6.89,10.76a53.72,53.72,0,0,0-6.12,1.77c-2.63.93-4.33,2.37-5,4.28s-.39,4.1,1,6.51l.7,1.22A23.65,23.65,0,0,1,10,48.26a4.23,4.23,0,0,1-1.2,5.13A25.65,25.65,0,0,1,6,55.46c-1.63,1.1-3.84,2.84-4.06,5.26s1.57,4.5,3,5.87A5.66,5.66,0,0,1,6.36,73a11.69,11.69,0,0,1-3.82,5.3C.64,80-.24,82,.06,84s1.81,3.74,4.23,4.83a12.08,12.08,0,0,0,1.25.46l.44.15c2.29.76,3.91,2.38,5.1,5.09,1,2.36.74,4.77-.08,7.89-.67,2.59-.52,4.58.46,6.07s2.77,2.46,5.62,2.91l.75.05c4.93.75,7,2.8,7.8,7.82.48,2.92,1.68,5,3.55,6.12s4.12,1.25,6.8.39a14.17,14.17,0,0,1,9.55.32c6.6,2.51,9.52,6.67,9.76,13.93a6.24,6.24,0,0,0,2,4.7,6.9,6.9,0,0,0,5.46,1.35,7.64,7.64,0,0,1,6.53,2,7.48,7.48,0,0,1,1.8,6.45,10.51,10.51,0,0,1-.53,2l-.16.48c-1.54,4.73-.34,8.41,3.59,10.92a3.18,3.18,0,0,1,1.76,2.72,16.45,16.45,0,0,1-1,5.42c-.74,1.86-1.45,4.26-.45,6.3.78,1.6,2.4,2.68,5.25,3.5,3.36,1,5.13,2.78,5.74,5.84a18.41,18.41,0,0,0,1.71,5.08A5.6,5.6,0,0,0,91.74,200a4.49,4.49,0,0,0,2-.46l.68-.34c2.57-1.27,5.76-2.86,6.31-7.23.46-3.83,2.86-6.53,7.31-8.24a17.37,17.37,0,0,1,4-.84c2.57-.3,4.29-1.15,5.27-2.6s1.12-3.45.38-6a36.73,36.73,0,0,1-.8-3.69c-.1-.55-.2-1.1-.31-1.65.06-9.35,6.13-16.52,15.88-18.74,4.89-1.14,8.1-.44,10.79,2.43a6.47,6.47,0,0,0,1.74,1.2,6.38,6.38,0,0,0,9.56-5.33,13.47,13.47,0,0,0,0-1.63,10,10,0,0,1,0-1.3,9.15,9.15,0,0,1,9.05-8.91,13.16,13.16,0,0,1,6.81,1.5c2.26,1.1,4,1.37,5.57.83s2.84-1.9,4-4.27c1-2.06,2.59-3.29,5.37-4.1,4.79-1.45,6.1-3.43,5.58-8.48a33.08,33.08,0,0,1,2.86-17.34c3.27-7.1,9.09-12.14,17.31-15,3.26-1.12,5.13-2.54,5.89-4.45s.38-4.06-1.13-6.9c-3.76-7-3-14.09,2.25-20.46C220.73,54.81,220.62,51.91,217.81,49.09ZM203,79.93c-16.35,8.36-24.41,21.69-24,39.68L177.25,121c-1.8,1.42-3.51,2.77-5.28,4a3.45,3.45,0,0,1-1.76.35c-1.13,0-2.26-.07-3.39-.13s-2.39-.14-3.61-.14c-9.14,0-15.6,4.41-19.18,13-.08.19-.17.39-.27.58a32.63,32.63,0,0,0-27.68,6.24c-7.81,6.3-11.79,15.87-11.29,27a32.89,32.89,0,0,0-12.08,8.31l-2.49-2-2.78-2.23v-4.83c0-4.93-1.43-8.71-4.48-11.56-.56-.51-.68-1-.55-2.06l.16-1.33a26.54,26.54,0,0,0,.25-6.81c-1-6.91-5.46-11.77-13.72-14.86-1.91-.72-2.47-1.12-2.77-2.57-1.9-9.52-13.82-18.6-24.53-18.7-1.32,0-2.66,0-3.85,0H37.2c-.42-.66-.83-1.33-1.23-2a28.54,28.54,0,0,0-4.26-5.84,29.2,29.2,0,0,0-5.84-4.08c-.73-.42-1.47-.86-2.22-1.32A22.52,22.52,0,0,0,16,81.35c.21-.7.44-1.4.67-2.1A30.38,30.38,0,0,0,18.41,72a28,28,0,0,0-.74-7.19c-.17-.9-.35-1.82-.5-2.8A20.08,20.08,0,0,0,22,53.17c.84-3.74-.16-7-1.3-10.45,8.49-2.31,13.67-8,15.43-16.82,8.31.13,17.54-.11,23.7-8.57l1.36.54A29.57,29.57,0,0,0,67,19.8a29.28,29.28,0,0,0,6.34.21L75,20c1.45,6.28,5.37,10.77,11.67,13.37A15.63,15.63,0,0,0,92.37,45c0,.25-.06.5-.09.74A14,14,0,0,0,92.1,49a15.94,15.94,0,0,0,10,13.49c5.27,2.32,10.62,1.69,15.48-1.84a23.69,23.69,0,0,0,8.65-11.39c.42-1.26.67-1.77,1.54-2.07C134.63,44.7,139,39.33,141,30.72c.39-1.67,1.19-2.62,2.74-4,3.83-3.44,7-5.13,10.75-5.65a6.67,6.67,0,0,0,2.58-1.15c7.37,5.29,14.44,7.79,25.63,4.33C185.49,31,190.63,35.43,198,37.36c.09.71.16,1.42.24,2.13a30.32,30.32,0,0,0,1.42,7.44,26.18,26.18,0,0,0,3.63,6c.51.7,1,1.42,1.55,2.18C201.33,62.72,200.71,71,203,79.93Z"/></g></g></svg>