<svg xmlns="http://www.w3.org/2000/svg" viewBox="0 0 247.34 200"><defs><style>.cls-1{fill:#cfe4f5;}</style></defs><title>Asset 121</title><g id="Layer_2" data-name="Layer 2"><g id="HKI_hearts"><path class="cls-1" d="M236.55,69.55c6.93-4.11,10.79-11,10.79-19.47a29.16,29.16,0,0,0-24.7-28.7,29,29,0,0,0-56,0A29,29,0,0,0,143,42.4a29,29,0,0,0-19.3,11.87,29,29,0,0,0-19.3-11.87,29,29,0,0,0-23.65-21,29,29,0,0,0-56,0A29.14,29.14,0,0,0,0,50.08C0,58.6,3.86,65.45,10.79,69.55A28.91,28.91,0,0,0,0,92.13C0,105.37,8.82,114,23.75,115.63c1,11.84,9.67,19.5,23.65,21,1,11.84,9.67,19.5,23.65,21,1,11.84,9.67,19.5,23.65,21C95.91,191.9,106.76,200,123.64,200s27.74-8.1,28.94-21.31c14-1.52,22.61-9.18,23.65-21,14-1.52,22.6-9.18,23.65-21,14-1.52,22.6-9.18,23.65-21,14.94-1.62,23.76-10.26,23.76-23.48A28.67,28.67,0,0,0,236.55,69.55ZM211.4,21.86a29.24,29.24,0,0,0-16.76,11.4,29.25,29.25,0,0,0-16.76-11.4,18.23,18.23,0,0,1,33.52,0Zm0,42.05a29.24,29.24,0,0,0-16.76,11.4,29.2,29.2,0,0,0-16.75-11.4,18.41,18.41,0,0,1,16.75-11.05A18.15,18.15,0,0,1,211.4,63.91Zm-23.66,21A29.21,29.21,0,0,0,171,96.33a29.25,29.25,0,0,0-16.76-11.39,18.22,18.22,0,0,1,33.5,0Zm-23.64,21a29.26,29.26,0,0,0-16.76,11.4A29.2,29.2,0,0,0,130.6,106a18.4,18.4,0,0,1,16.75-11.05A18.14,18.14,0,0,1,164.11,106Zm-23.65,21a29.23,29.23,0,0,0-16.75,11.39A29.23,29.23,0,0,0,106.94,127a18.22,18.22,0,0,1,33.51,0ZM100,94.91A18.15,18.15,0,0,1,116.81,106,29.23,29.23,0,0,0,100,117.37,29.24,29.24,0,0,0,83.3,106,18.4,18.4,0,0,1,100,94.91Zm-6.89-10A29.23,29.23,0,0,0,76.4,96.33a29.27,29.27,0,0,0-16.75-11.4A18.4,18.4,0,0,1,76.4,73.88,18.15,18.15,0,0,1,93.16,84.93ZM52.75,52.86A18.4,18.4,0,0,1,69.5,63.91a29.2,29.2,0,0,0-16.75,11.4A29.24,29.24,0,0,0,36,63.91,18.41,18.41,0,0,1,52.75,52.86Zm169.73,10a29.38,29.38,0,0,0-20.94-20,18.24,18.24,0,0,1,35,7.2C236.54,57.59,231.82,61.88,222.49,62.86Zm-34.73-20A29.19,29.19,0,0,0,171,54.29,29.25,29.25,0,0,0,154.24,42.9,18.4,18.4,0,0,1,171,31.84,18.12,18.12,0,0,1,187.76,42.89Zm-23.66,21a29.25,29.25,0,0,0-16.75,11.4,29.26,29.26,0,0,0-16.75-11.4,18.22,18.22,0,0,1,33.5,0Zm-23.65,21a29.23,29.23,0,0,0-16.75,11.4,29.25,29.25,0,0,0-16.76-11.4,18.22,18.22,0,0,1,33.51,0ZM100,75.31A29.25,29.25,0,0,0,83.3,63.92a18.22,18.22,0,0,1,33.5,0A29.21,29.21,0,0,0,100,75.31Zm-23.65-21A29.24,29.24,0,0,0,59.65,42.89a18.22,18.22,0,0,1,33.5,0A29.28,29.28,0,0,0,76.4,54.28Zm-23.65-21A29.26,29.26,0,0,0,36,21.87a18.22,18.22,0,0,1,33.5,0A29.19,29.19,0,0,0,52.75,33.26Zm-6.9,9.64A29.37,29.37,0,0,0,24.91,62.85c-9.33-1-14.06-5.27-14.06-12.77a18.23,18.23,0,0,1,35-7.18Zm-16.75,31A18.14,18.14,0,0,1,45.86,84.93a29.37,29.37,0,0,0-21,20c-9.33-1-14.06-5.25-14.06-12.76A18.27,18.27,0,0,1,29.1,73.88Zm23.65,21A18.4,18.4,0,0,1,69.5,106a29.37,29.37,0,0,0-20.94,20c-9.33-1-14.06-5.27-14.06-12.77A18.27,18.27,0,0,1,52.75,94.89Zm23.65,21A18.41,18.41,0,0,1,93.15,127a29.38,29.38,0,0,0-20.95,20c-9.33-1-14.06-5.27-14.06-12.77A18.27,18.27,0,0,1,76.4,115.91Zm23.65,21A18.4,18.4,0,0,1,116.8,148a29.39,29.39,0,0,0-20.94,20c-9.33-1-14.06-5.27-14.06-12.77A18.26,18.26,0,0,1,100,136.95Zm23.65,21A18.27,18.27,0,0,1,142,176.22c0,10.73-9.93,13-18.25,13s-18.25-2.25-18.25-13A18.27,18.27,0,0,1,123.7,158Zm27.86,10a29.39,29.39,0,0,0-20.94-20,18.23,18.23,0,0,1,35,7.18C165.6,162.68,160.88,167,151.56,168Zm23.63-21a29.38,29.38,0,0,0-20.95-20,18.24,18.24,0,0,1,35,7.18C189.24,141.66,184.52,146,175.19,146.94Zm23.66-21a29.37,29.37,0,0,0-20.94-20,18.23,18.23,0,0,1,35,7.19C212.9,120.64,208.17,124.93,198.85,125.92Zm23.64-21a29.38,29.38,0,0,0-20.94-20,18.24,18.24,0,0,1,35,7.19C236.54,99.63,231.82,103.92,222.49,104.9Z"/></g></g></svg>