<svg xmlns="http://www.w3.org/2000/svg" viewBox="0 0 175 200"><defs><style>.cls-1{fill:#cfe4f5;}</style></defs><title>Asset 146</title><g id="Layer_2" data-name="Layer 2"><g id="HKI_hearts"><path class="cls-1" d="M140.93,43.13a29.27,29.27,0,0,0,1.56-9.37A33.82,33.82,0,0,0,108.74,0,34.54,34.54,0,0,0,87.48,7.5,32.75,32.75,0,0,0,66.23,0,33.82,33.82,0,0,0,32.47,33.76,26,26,0,0,0,34,42.83a87.72,87.72,0,1,0,106.9.31ZM66.24,12.5a20.33,20.33,0,0,1,15.32,6.56l.31.62a7.59,7.59,0,0,0,11.27,0l.31-.62a21.51,21.51,0,0,1,15.32-6.56A21.22,21.22,0,0,1,130,33.43a20.81,20.81,0,0,1-3.12,10.32c-2.18,3.12-6.56,7.81-9.07,10.63L88.45,83.45a1.18,1.18,0,0,1-1.87,0L57.2,54.38a96.92,96.92,0,0,1-9.07-10.63A20.81,20.81,0,0,1,45,33.43,21.4,21.4,0,0,1,66.24,12.5Zm71.26,100a50,50,0,1,1-80-40L77.82,92.81a13.5,13.5,0,0,0,9.68,4.07,13,13,0,0,0,9.68-4.07L117.5,72.5A49.06,49.06,0,0,1,137.5,112.5Zm-50,75A75.09,75.09,0,0,1,40.32,54.07c2.5,3.12,5.94,6.87,8.12,9.38A62.51,62.51,0,1,0,149.69,112.5a62.72,62.72,0,0,0-23.44-48.75c2.5-2.51,5.63-6.25,8.12-9.37A72.81,72.81,0,0,1,162.5,112.5,75,75,0,0,1,87.5,187.5Z"/></g></g></svg>