<svg xmlns="http://www.w3.org/2000/svg" viewBox="0 0 417.88 200"><defs><style>.cls-1{fill:#cfe4f5;}</style></defs><title>Asset 120</title><g id="Layer_2" data-name="Layer 2"><g id="HKI_hearts"><path class="cls-1" d="M84.47,26.4A11.31,11.31,0,0,0,69,30.71a141.76,141.76,0,0,0,0,138.57A11.33,11.33,0,0,0,88.8,158.18a119.06,119.06,0,0,1,0-116.35A11.34,11.34,0,0,0,84.47,26.4Z"/><path class="cls-1" d="M40,1.46A11.33,11.33,0,0,0,24.59,5.78a192.81,192.81,0,0,0,0,188.43,11.33,11.33,0,0,0,19.76-11.09,170,170,0,0,1,0-166.24A11.33,11.33,0,0,0,40,1.46Z"/><path class="cls-1" d="M288.91,39.61a53.05,53.05,0,0,0-75,.05l-4.92,4.93L204,39.66A53.05,53.05,0,0,0,129,39.61l-1.66,1.66a53.1,53.1,0,0,0,.05,75.05l71.57,71.54a14.11,14.11,0,0,0,20,0l71.57-71.54a53.1,53.1,0,0,0,.05-75.05ZM270.48,96.29l-61.54,61.54L147.4,96.29a24.74,24.74,0,0,1-.05-35L149,59.64a24.72,24.72,0,0,1,35,.05l14.94,14.94a14.17,14.17,0,0,0,20,0l14.94-14.94a24.72,24.72,0,0,1,35-.05l1.66,1.66A24.74,24.74,0,0,1,270.48,96.29Z"/><path class="cls-1" d="M393.29,5.78a11.33,11.33,0,0,0-19.75,11.09,170,170,0,0,1,0,166.24,11.33,11.33,0,0,0,19.75,11.09,192.81,192.81,0,0,0,0-188.43Z"/><path class="cls-1" d="M333.41,26.4a11.34,11.34,0,0,0-4.33,15.42,119.06,119.06,0,0,1,0,116.35,11.33,11.33,0,0,0,19.75,11.11,141.75,141.75,0,0,0,0-138.57A11.31,11.31,0,0,0,333.41,26.4Z"/></g></g></svg>