<svg xmlns="http://www.w3.org/2000/svg" viewBox="0 0 686.81 120"><defs><style>.cls-1{fill:#cfe4f5;}</style></defs><title>Asset 152</title><g id="Layer_2" data-name="Layer 2"><g id="HKI_hearts"><path class="cls-1" d="M667.48,4S641-9.77,622.48,14c0,0-15.35-18.33-37.85-12.23,0,0-31.76,8-26.71,38.9,0,0-4.13,23.28,64.56,79.36,0,0,46.69-39.4,59.3-64.64C681.78,55.36,699.86,22.54,667.48,4Z"/><path class="cls-1" d="M527.76,4a41.91,41.91,0,0,0-19-4A32.44,32.44,0,0,0,490,6.71,39.38,39.38,0,0,0,482.75,14S471-.08,453,.5a35.07,35.07,0,0,0-8.09,1.23s-31.76,8-26.71,38.9c0,0-4.13,23.28,64.56,79.36,0,0,46.69-39.4,59.3-64.64l.2-.38c.24-.48.71-1.45,1.26-2.78s1.17-3,1.75-5C548.44,36.24,550,16.76,527.76,4Z"/><path class="cls-1" d="M407.79,32.41a35.86,35.86,0,0,0-.45-3.68c-.05-.29-.13-.58-.17-.87-.21-1-.48-2.07-.81-3.11-.09-.3-.16-.59-.27-.88a32.16,32.16,0,0,0-1.56-3.78c-.11-.24-.26-.48-.38-.7a31.13,31.13,0,0,0-1.91-3.16c-.21-.31-.41-.61-.63-.92a35.08,35.08,0,0,0-3.07-3.65c-.13-.13-.27-.25-.4-.38a40.37,40.37,0,0,0-3.56-3.14c-.35-.28-.71-.56-1.08-.83a48.06,48.06,0,0,0-5-3.27l-1-.46-.23-.1-.82-.34-.76-.3-1-.35-1.13-.38-1.17-.35c-.45-.13-.92-.26-1.42-.38l-1.31-.32C379.17.94,378.6.84,378,.73s-.9-.16-1.38-.23c-.69-.1-1.41-.16-2.12-.23-.44,0-.85-.09-1.31-.13C372,.06,370.84,0,369.62.08h-.12a32.67,32.67,0,0,0-4.1.42c-.43.07-.85.17-1.29.26-1,.2-2,.45-3,.75-.49.15-1,.32-1.49.49a33.56,33.56,0,0,0-3.1,1.31c-.45.21-.89.41-1.34.65a36.64,36.64,0,0,0-11.61,10l-.12-.14-.13-.15-.38-.41c-.31-.32-.72-.74-1.23-1.24l-.47-.44c-.61-.57-1.31-1.19-2.14-1.88l-.48-.38c-.92-.73-1.92-1.49-3.07-2.25l-.15-.1a43.56,43.56,0,0,0-3.79-2.21l-.69-.36a38.42,38.42,0,0,0-4.37-1.85l-.93-.32a36.47,36.47,0,0,0-5-1.26c-.27,0-.56-.07-.84-.11a33.08,33.08,0,0,0-5.91-.38h0a35.07,35.07,0,0,0-8.09,1.23s-31.76,8-26.71,38.9a6.16,6.16,0,0,0,0,1.11c.15,5.22,4.49,29.17,64.6,78.25h0s46.69-39.4,59.31-64.64c0,0,.06-.13.2-.38s.15-.31.21-.44A47,47,0,0,0,405.48,49c.19-.57.39-1.13.57-1.77.26-.89.49-1.85.72-2.85.05-.22.1-.45.15-.67.2-.94.38-1.92.52-2.93,0-.11,0-.21,0-.32.16-1.1.25-2.24.31-3.39,0-.28,0-.56,0-.84,0-1,0-2,0-3C407.8,32.88,407.8,32.65,407.79,32.41Z"/><path class="cls-1" d="M268.58,32.46a35.84,35.84,0,0,0-.48-3.89c0-.16-.06-.31-.09-.47a32.63,32.63,0,0,0-.94-3.68c0-.14-.09-.28-.13-.43a31.23,31.23,0,0,0-1.71-4.12s0,0,0,0a31.54,31.54,0,0,0-2.39-4l-.24-.35A37.42,37.42,0,0,0,255,7.82l-.34-.27A48,48,0,0,0,249.33,4a41.91,41.91,0,0,0-19-4c-1,0-2.06.19-3.1.32-.2,0-.4,0-.6.06-.88.13-1.75.33-2.64.53-.53.13-1.06.24-1.6.4-.83.23-1.66.51-2.5.82-.62.23-1.24.5-1.85.78-.81.35-1.6.71-2.39,1.15s-1.51.94-2.26,1.44-1.21.7-1.81,1.15a39.38,39.38,0,0,0-7.25,7.24,42.47,42.47,0,0,0-5.71-5.18l-.94-.69c-.84-.61-1.73-1.19-2.71-1.8q-.89-.55-1.85-1.08c-.6-.34-1.19-.66-1.83-1-1.1-.53-2.27-1-3.48-1.47-.63-.23-1.25-.45-1.9-.65a36.35,36.35,0,0,0-4.21-1c-.59-.11-1.2-.16-1.8-.24a34.44,34.44,0,0,0-4.26-.27c-.37,0-.69-.08-1.06-.07a35.07,35.07,0,0,0-8.09,1.23s-27.92,7-27.24,33.38a40.31,40.31,0,0,0,.53,5.54,5.54,5.54,0,0,0,0,1.1c.13,5.12,4.31,29.06,64.6,78.28,0,0,46.69-39.4,59.3-64.64A45.87,45.87,0,0,0,267,46.42c.16-.61.33-1.24.48-1.88.09-.37.16-.74.24-1.13.16-.78.31-1.59.43-2.42,0-.23.08-.45.11-.7.15-1.08.24-2.2.31-3.34,0-.27,0-.53,0-.81,0-1,0-2.12,0-3.21C268.59,32.8,268.59,32.63,268.58,32.46Z"/><path class="cls-1" d="M129.37,33.08c0-.22,0-.44,0-.66a34.23,34.23,0,0,0-.45-3.71c0-.28-.12-.56-.17-.84a31.32,31.32,0,0,0-.81-3.14c-.09-.3-.16-.59-.27-.88a32.16,32.16,0,0,0-1.56-3.78c-.12-.23-.27-.47-.39-.71a33,33,0,0,0-1.89-3.13l-.66-1a32.84,32.84,0,0,0-3-3.61c-.15-.16-.33-.31-.48-.45a40.33,40.33,0,0,0-3.45-3c-.36-.3-.74-.59-1.14-.88A50.44,50.44,0,0,0,110.11,4l-.33-.16-.27-.13-.72-.32-.55-.23-1-.41-.81-.29c-.41-.15-.82-.28-1.29-.43l-1-.32c-.48-.14-1-.27-1.52-.41L101.31,1c-.57-.13-1.17-.23-1.79-.34-.45-.08-.87-.16-1.33-.23C97.5.37,96.77.31,96,.24,95.6.2,95.2.14,94.76.11,93.6,0,92.41,0,91.18.06h-.12A32.7,32.7,0,0,0,87,.48c-.44.07-.88.17-1.32.27-1,.2-2,.44-3,.74-.52.16-1,.33-1.55.51a30.61,30.61,0,0,0-3,1.27c-.48.23-1,.43-1.43.69a32.44,32.44,0,0,0-4.25,2.7l-.08.05a39.57,39.57,0,0,0-7.25,7.23s-.2-.24-.53-.59h0c-.33-.34-.81-.82-1.43-1.42l-.27-.26c-.64-.6-1.39-1.27-2.29-2l-.34-.27a44.23,44.23,0,0,0-7.13-4.65l-.63-.34a39,39,0,0,0-4.4-1.85l-.91-.31a36.59,36.59,0,0,0-5-1.26c-.27,0-.55-.07-.82-.11A34,34,0,0,0,35.36.5h0c-1.08,0-2.19.16-3.31.3a35.8,35.8,0,0,0-4.79.93l-.35.1C23.43,2.82-4.18,11.65.54,40.63A12.88,12.88,0,0,0,1,45.14C3,54.31,13.58,77.91,65.1,120h0s41-34.63,56.55-59.75c1-1.67,2-3.31,2.75-4.89l.2-.38c.11-.23.28-.57.48-1l.09-.2c.2-.45.44-1,.69-1.59.18-.45.38-1,.59-1.54s.46-1.3.69-2c.16-.48.32-.94.48-1.47.26-.88.49-1.84.72-2.82l.16-.72c.2-.93.38-1.89.52-2.9,0-.12,0-.22.05-.34.15-1.1.25-2.24.31-3.4l0-.82C129.43,35.15,129.43,34.13,129.37,33.08Z"/></g></g></svg>