<svg xmlns="http://www.w3.org/2000/svg" viewBox="0 0 240.88 260"><defs><style>.cls-1{fill:#cfe4f5;}</style></defs><title>Asset 162</title><g id="Layer_2" data-name="Layer 2"><g id="HKI_hearts"><path class="cls-1" d="M96.53,49.82a28.67,28.67,0,0,0,0-40.54l-.89-.89a28.65,28.65,0,0,0-40.53,0l-2.67,2.67L49.81,8.41a28.64,28.64,0,0,0-40.53,0l-.91.89a28.67,28.67,0,0,0,0,40.54L47.06,88.47a7.64,7.64,0,0,0,10.82,0ZM52.47,72.25,19.22,39a13.38,13.38,0,0,1,0-18.9l.89-.89a13.35,13.35,0,0,1,18.9,0l8.07,8.07a7.67,7.67,0,0,0,10.82,0l8.06-8.07a13.37,13.37,0,0,1,18.92,0l.89.89a13.39,13.39,0,0,1,0,18.9Z"/><path class="cls-1" d="M231.11,38.54,112.57,73a7.64,7.64,0,0,0-5.51,7.34V210.91a42.11,42.11,0,0,0-19.12-4.44c-18.56,0-34.41,11.32-34.41,26.77S69.38,260,87.94,260s34.41-11.32,34.41-26.76v-97.5l103.24-30V188a42.29,42.29,0,0,0-19.12-4.43c-18.56,0-34.41,11.32-34.41,26.76s15.84,26.77,34.41,26.77,34.41-11.32,34.41-26.77a20.63,20.63,0,0,0-.13-2.41,6.91,6.91,0,0,0,.13-1.41V45.88A7.64,7.64,0,0,0,231.11,38.54ZM87.94,244.71c-11,0-19.12-5.8-19.12-11.47s8.11-11.48,19.12-11.48,19.12,5.8,19.12,11.48S99,244.71,87.94,244.71Zm118.53-23c-11,0-19.12-5.78-19.12-11.47s8.11-11.47,19.12-11.47,19.12,5.79,19.12,11.47S217.48,221.76,206.47,221.76ZM225.59,89.85l-103.24,30V86l103.24-30Z"/></g></g></svg>