<svg xmlns="http://www.w3.org/2000/svg" viewBox="0 0 133.44 200"><defs><style>.cls-1{fill:#cfe4f5;}</style></defs><title>Asset 126</title><g id="Layer_2" data-name="Layer 2"><g id="HKI_hearts"><path class="cls-1" d="M38.21,96c9.94,8.79,16.22,12.14,28.85,22.73,12.52-11.7,32.2-24.21,48.56-41.54,7.43-8.18,13.9-16.68,16-30.83,2.25-15-.33-27.84-8.62-36.35C117.76,4.62,109.64-.11,98.13,0,78.21,1.45,71.65,14.16,66.81,24.55,62,14,54-.21,33.27,0,16.29,1.1,6.14,11.64,2.45,24.82-2,40.89,3.73,58.61,10.84,68.69,18.17,79.09,28.84,87.74,38.21,96Z"/><path class="cls-1" d="M127.66,156.53c-6.85-3.83-12.36,6-15.05,4.5L91.76,149.24l20.7-11.71h0c2.39-1.34,8.32,8.73,15.17,4.89,5.55-3.1,7.44-10.49,4.21-16.52-2.47-4.62-10.13-3.37-11.84-6.56s3.44-9.11,1-13.73c-3.22-6-10.33-8.38-15.88-5.29-7.08,4-.7,13.44-4.15,15.37L66.72,135.06,32.47,115.69c-3.45-1.93,2.94-11.41-4.15-15.37-5.55-3.1-12.66-.74-15.88,5.28-2.47,4.62,2.64,10.61,1,13.73s-9.36,1.94-11.84,6.56c-3.22,6-1.34,13.41,4.21,16.52,6.85,3.83,12.78-6.25,15.17-4.89h0l20.7,11.71L20.84,161c-2.69,1.53-8.19-8.34-15.05-4.5C.25,159.64-1.65,167,1.57,173.06c2.47,4.62,10.13,3.38,11.84,6.56s-3.44,9.1-1,13.74c3.22,6,10.33,8.38,15.87,5.29,7.08-4,1-14.06,4.44-16l34-19.23,34,19.23c3.45,1.93-2.65,12,4.44,16,5.55,3.1,12.66.73,15.87-5.29,2.47-4.62-2.64-10.62-1-13.74s9.37-1.94,11.84-6.56C135.08,167,133.2,159.63,127.66,156.53Z"/></g></g></svg>