<svg xmlns="http://www.w3.org/2000/svg" viewBox="0 0 200 200"><defs><style>.cls-1{fill:#cfe4f5;}</style></defs><title>Asset 137</title><g id="Layer_2" data-name="Layer 2"><g id="HKI_hearts"><path class="cls-1" d="M138.21,69S117,51.09,101.34,75.59C85.69,51.08,64.47,69,64.47,69c-14.62,13.39,0,31.3,0,31.3,5.56,9.89,33.36,36.25,36.67,39.54l.2.21c2.26-2.27,31.1-29.65,36.87-39.75C138.21,100.31,152.83,82.4,138.21,69Z"/><path class="cls-1" d="M101.14,159.21a6,6,0,0,0-6,6V194a6,6,0,1,0,11.95,0V165.19A6,6,0,0,0,101.14,159.21Z"/><path class="cls-1" d="M101.14,40.78a6,6,0,0,0,6-6V6A6,6,0,0,0,95.16,6V34.81A6,6,0,0,0,101.14,40.78Z"/><path class="cls-1" d="M40.79,96.39a6,6,0,0,0-6-6H6a6,6,0,0,0,0,12H34.81A6,6,0,0,0,40.79,96.39Z"/><path class="cls-1" d="M194,90.42H165.19a6,6,0,0,0,0,12H194a6,6,0,0,0,0-12Z"/><path class="cls-1" d="M50.88,133.26,30.49,153.66a5.87,5.87,0,0,0,4.12,10.1,6.63,6.63,0,0,0,4.32-1.65l20.39-20.39a6,6,0,0,0-8.44-8.44Z"/><path class="cls-1" d="M147.26,51.08a7,7,0,0,0,4.33-1.65L172,29a6,6,0,0,0-8.44-8.44L143.15,41a5.87,5.87,0,0,0,4.12,10.1Z"/><path class="cls-1" d="M151.59,133.26a6,6,0,0,0-8.44,8.44l20.39,20.39a6.14,6.14,0,0,0,4.12,1.65A6.63,6.63,0,0,0,172,162.1a6.09,6.09,0,0,0,0-8.44Z"/><path class="cls-1" d="M51.08,49.43a6.14,6.14,0,0,0,4.12,1.65,7.5,7.5,0,0,0,4.32-1.65,6.1,6.1,0,0,0,0-8.44L39.13,20.6A6,6,0,0,0,30.69,29Z"/></g></g></svg>