<svg xmlns="http://www.w3.org/2000/svg" viewBox="0 0 233.11 200"><defs><style>.cls-1{fill:#cfe4f5;}</style></defs><title>Asset 125</title><g id="Layer_2" data-name="Layer 2"><g id="HKI_hearts"><path class="cls-1" d="M217.75,22.93A75,75,0,0,0,203.29,10.4,4.24,4.24,0,0,0,201,9,55.05,55.05,0,0,0,171.42.26C152.33.26,135.86,10.39,125.29,19a5.52,5.52,0,0,0-1.39,1,4.22,4.22,0,0,0-.65.82,90.68,90.68,0,0,0-7.13,6.75C108.57,19.71,87.14,0,60.55,0,43.94,0,28.43,7.89,14.45,23.44,2.87,36.37-1.79,51.43.61,68.21c1.93,13.72,8.71,29.09,19.62,44.48a3.56,3.56,0,0,0,.91,1.36l.07.07c31.69,44.74,88.88,82.44,92.91,85.05a4.23,4.23,0,0,0,5,0,466.55,466.55,0,0,0,55.28-43.31c35.51-32.65,55.11-62.41,58.24-88.45C234.76,50.7,229.75,35.73,217.75,22.93ZM21.3,29.07C33.3,15.64,46.51,8.83,60.57,8.83c21.86,0,40.8,16.49,48.75,24.56L60.48,64.09l-49.22-18a43.29,43.29,0,0,1,10-16.95Zm98.95,8.41a3.3,3.3,0,0,0,.18-.31,4.94,4.94,0,0,0,.75-1.85,68.06,68.06,0,0,1,6-6l79.68,76.79c-2.5,3.72-5.22,7.2-7.59,10.08-13.7-4.68-28.6-10.93-41.61-16.47L155,98.65c-14.79-6.14-30.05-12.47-45.33-18Zm68.61,38.78L134.18,23.61c12.58-9.34,25.39-14.26,37.24-14.26a46.53,46.53,0,0,1,23.71,6.47ZM99.48,121.64l7.84-32.36c14.34,5.06,28.65,11,42.52,16.8l4.34,1.8q4.27,1.74,8.4,3.46l1.54.64Zm9.86-77.88L89.31,126l-1.63,6.86-7.18-4.07L66.14,70.92ZM37.69,104.62,58.88,78.67l10.89,44.16ZM9.31,54.8,53.72,70.91l-26,31.92-2.33,1.74c-8.8-13.42-14.33-26.49-16-37.92A46.28,46.28,0,0,1,9.31,54.8Zm22,56.41,42.49,23.91a4.27,4.27,0,0,0,.6.38l11.09,6.25-5.17,20.88c-21.63-18.32-37.93-35-49.67-50.88Zm65.94,19.54,83.2-12.24,5.9,2.24c2.37.9,4.69,1.79,7,2.64-28.73,33.45-68.28,61-76.68,66.69-4.58-3.14-15.56-10.71-28.6-21.33ZM196.93,84.4,203.56,22a66.2,66.2,0,0,1,7.7,7.45c10,10.51,14.27,23,12.6,37-1.25,9.83-5.33,20.63-12.12,32.14Z"/></g></g></svg>